<svg width="256" height="152" viewBox="0 0 256 152" fill="none" xmlns="http://www.w3.org/2000/svg">
<rect width="256" height="152" fill="#ECF0F1"/>
<path d="M135.111 44V51.1111H103.111V100.889H152.889V68.8889H160V100.889C160 102.844 159.304 104.519 157.913 105.913C156.519 107.304 154.844 108 152.889 108H103.111C101.156 108 99.4809 107.304 98.0871 105.913C96.6957 104.519 96 102.844 96 100.889V51.1111C96 49.1556 96.6957 47.4809 98.0871 46.0871C99.4809 44.6957 101.156 44 103.111 44H135.111ZM152.889 44V51.1111H160V58.2222H152.889V65.3333H145.778V58.2222H138.667V51.1111H145.778V44H152.889ZM106.667 93.7778H149.333L136 76L125.333 90.2222L117.333 79.5556L106.667 93.7778Z" fill="#CFCFCF"/>
</svg>
