<svg width="140" height="39" viewBox="0 0 140 39" fill="none" xmlns="http://www.w3.org/2000/svg">
<rect x="105.635" y="22.6499" width="5.61625" height="2.19171" fill="#606060"/>
<rect x="83.9917" y="22.6499" width="5.61625" height="2.19171" fill="#606060"/>
<rect x="17.6929" y="22.6499" width="5.61625" height="2.19171" fill="#606060"/>
<path d="M111.514 7.37626C110.966 6.96531 110.144 6.21191 108.569 6.21191C106.994 6.21191 106.24 6.89682 105.624 7.37626C104.967 8.04473 104.243 8.95155 104.243 10.4583V32.7863H106.435V25.2524C106.424 22.7209 106.424 20.0471 106.435 17.5814C106.44 16.4551 106.45 15.3305 106.446 14.2938C106.441 13.0106 106.434 11.8222 106.446 10.4583C106.446 10.4274 106.448 10.3987 106.451 10.372C106.531 9.27168 107.449 8.40362 108.569 8.40362C109.704 8.40362 110.623 9.26961 110.681 10.3899C110.683 10.4034 110.681 10.4425 110.681 10.4583C110.693 11.8221 110.686 13.0106 110.681 14.2938C110.677 15.3306 110.676 16.455 110.681 17.5814C110.692 20.1128 110.692 22.7209 110.681 25.2524C110.667 26.9524 110.676 28.6484 110.681 30.3207C110.684 31.1492 110.681 31.9694 110.681 32.7863H112.873C112.873 31.5625 112.874 30.3309 112.873 29.0878C112.872 26.5744 112.869 24.034 112.873 21.5539L112.873 10.4583C112.873 8.95155 112.172 8.04473 111.514 7.37626Z" fill="#606060"/>
<rect x="27.2593" y="6.21191" width="2.19171" height="26.5744" fill="#606060"/>
<path d="M89.8712 7.37626C89.3233 6.96531 88.5014 6.21191 86.9261 6.21191C85.3508 6.21191 84.5974 6.89682 83.981 7.37626C83.3235 8.04473 82.6001 8.95155 82.6001 10.4583V32.7863H84.7918V25.2524C84.7808 22.7209 84.7807 20.0471 84.7918 17.5814C84.7967 16.4551 84.8067 15.3305 84.8029 14.2938C84.7982 13.0106 84.7907 11.8222 84.8029 10.4583C84.8029 10.4274 84.8048 10.3987 84.8084 10.372C84.8877 9.27168 85.8055 8.40362 86.9261 8.40362C88.0609 8.40362 88.9797 9.26961 89.0382 10.3899C89.04 10.4034 89.0381 10.4425 89.0382 10.4583C89.0504 11.8221 89.0429 13.0106 89.0382 14.2938C89.0344 15.3306 89.0333 16.455 89.0382 17.5814C89.0492 20.1128 89.0492 22.7209 89.0382 25.2524C89.0236 26.9524 89.0333 28.6484 89.0382 30.3207C89.0407 31.1492 89.0382 31.9694 89.0382 32.7863H91.2299C91.2299 31.5625 91.2305 30.3309 91.2299 29.0878C91.2287 26.5744 91.2263 24.034 91.2299 21.5539L91.2299 10.4583C91.2299 8.95155 90.5287 8.04473 89.8712 7.37626Z" fill="#606060"/>
<path d="M23.5719 7.37626C23.0239 6.96531 22.2021 6.21191 20.6268 6.21191C19.0515 6.21191 18.2981 6.89682 17.6817 7.37626C17.0241 8.04473 16.3008 8.95155 16.3008 10.4583V32.7863H18.4925V25.2524C18.4815 22.7209 18.4814 20.0471 18.4925 17.5814C18.4974 16.4551 18.5074 15.3305 18.5036 14.2938C18.4988 13.0106 18.4914 11.8222 18.5036 10.4583C18.5036 10.4274 18.5055 10.3987 18.5091 10.372C18.5884 9.27168 19.5062 8.40362 20.6268 8.40362C21.7616 8.40362 22.6803 9.26961 22.7389 10.3899C22.7407 10.4034 22.7388 10.4425 22.7389 10.4583C22.751 11.8221 22.7436 13.0106 22.7389 14.2938C22.7351 15.3306 22.734 16.455 22.7389 17.5814C22.7499 20.1128 22.7499 22.7209 22.7389 25.2524C22.7243 26.9524 22.734 28.6484 22.7389 30.3207C22.7413 31.1492 22.7389 31.9694 22.7389 32.7863H24.9306C24.9306 31.5625 24.9312 30.3309 24.9306 29.0878C24.9294 26.5744 24.927 24.034 24.9306 21.5539L24.9306 10.4583C24.9306 8.95155 24.2294 8.04473 23.5719 7.37626Z" fill="#606060"/>
<path d="M43.8342 31.6223C44.3821 32.0332 45.204 32.7866 46.7793 32.7866C48.3546 32.7866 49.108 32.1017 49.7244 31.6223C50.3819 30.9538 51.0942 30.047 51.0942 28.5402L51.0942 6.21219H48.9025V13.7462C48.9135 16.2776 48.9135 18.8857 48.9025 21.4171C48.8976 22.5434 48.9015 23.5932 48.9053 24.6298C48.91 25.9131 48.9146 27.1763 48.9025 28.5402C48.9025 28.5711 48.9006 28.5998 48.897 28.6265C48.8177 29.7269 47.8999 30.5949 46.7793 30.5949C45.6445 30.5949 44.7176 29.7046 44.659 28.5844C44.6572 28.5708 44.6562 28.5561 44.6561 28.5402C44.644 27.1764 44.6486 25.9132 44.6533 24.63C44.6571 23.5933 44.661 22.5435 44.6561 21.4171C44.6451 18.8857 44.6451 16.2776 44.6561 13.7462C44.6708 12.0461 44.6658 10.3534 44.6609 8.6812C44.6585 7.85264 44.6561 7.02911 44.6561 6.21219H42.4644C42.4644 7.43605 42.465 8.67401 42.4656 9.91704C42.4668 12.4304 42.4681 14.9645 42.4644 17.4447V28.5402C42.4644 30.047 43.1767 30.9538 43.8342 31.6223Z" fill="#606060"/>
<path d="M38.7486 7.25853C38.8024 7.29999 38.8536 7.33949 38.9026 7.37626C39.5601 8.04473 40.2724 8.95155 40.2724 10.4583V21.5539C40.2717 22.0541 40.2711 22.5566 40.2708 23.0607H38.0874C38.0908 21.2323 38.0885 19.3873 38.0807 17.5814C38.0758 16.455 38.0797 15.4053 38.0835 14.3686C38.0882 13.0854 38.0928 11.8221 38.0807 10.4583C38.0806 10.4425 38.0796 10.4278 38.0778 10.4142C38.0192 9.29393 37.0923 8.40362 35.9575 8.40362C34.837 8.40362 33.9191 9.27168 33.8399 10.372C33.8362 10.3987 33.8343 10.4274 33.8343 10.4583C33.8222 11.8222 33.8268 13.0855 33.8315 14.3687C33.8353 15.4054 33.8392 16.4551 33.8343 17.5814C33.8265 19.3873 33.8242 21.2323 33.8276 23.0607H31.6426V10.4583C31.6426 8.95155 32.3549 8.04473 33.0124 7.37626C33.0544 7.3436 33.097 7.30998 33.1405 7.27569C33.7353 6.80668 34.4895 6.21191 35.9575 6.21191C37.3919 6.21191 38.2016 6.83654 38.7486 7.25853Z" fill="#606060"/>
<path d="M33.1664 31.7397C33.1126 31.6983 33.0614 31.6588 33.0124 31.622C32.3549 30.9535 31.6426 30.0467 31.6426 28.5399L31.6426 17.4444C31.6433 16.9441 31.6439 16.4417 31.6442 15.9376H33.8276C33.8242 17.7659 33.8265 19.6109 33.8343 21.4169C33.8392 22.5432 33.8353 23.593 33.8315 24.6297C33.8268 25.9129 33.8222 27.1761 33.8343 28.5399C33.8344 28.5558 33.8354 28.5705 33.8372 28.5841C33.8958 29.7043 34.8227 30.5946 35.9575 30.5946C37.078 30.5946 37.9959 29.7266 38.0751 28.6262C38.0788 28.5995 38.0807 28.5708 38.0807 28.5399C38.0928 27.1761 38.0882 25.9128 38.0835 24.6296C38.0797 23.5929 38.0758 22.5432 38.0807 21.4169C38.0885 19.6109 38.0908 17.7659 38.0874 15.9376H40.2724L40.2724 28.5399C40.2724 30.0467 39.5601 30.9535 38.9026 31.622C38.8606 31.6547 38.818 31.6883 38.7745 31.7226C38.1797 32.1916 37.4255 32.7863 35.9575 32.7863C34.5231 32.7863 33.7134 32.1617 33.1664 31.7397Z" fill="#606060"/>
<path d="M132.992 31.74C133.046 31.6985 133.097 31.659 133.146 31.6223C133.804 30.9538 134.516 30.047 134.516 28.5402L134.516 17.4447C134.515 16.9444 134.515 16.4419 134.514 15.9379L132.331 15.9379C132.334 17.7662 132.332 19.6112 132.324 21.4171C132.319 22.5435 132.323 23.5933 132.327 24.63C132.332 25.9132 132.336 27.1764 132.324 28.5402C132.324 28.5561 132.323 28.5708 132.321 28.5844C132.263 29.7046 131.336 30.5949 130.201 30.5949C129.081 30.5949 128.163 29.7269 128.084 28.6265C128.08 28.5998 128.078 28.5711 128.078 28.5402C128.066 27.1763 128.07 25.9131 128.075 24.6298C128.079 23.5932 128.083 22.5434 128.078 21.4171C128.07 19.6112 128.068 17.7662 128.071 15.9379L125.886 15.9379L125.886 28.5402C125.886 30.047 126.599 30.9538 127.256 31.6223C127.298 31.6549 127.341 31.6886 127.384 31.7228C127.979 32.1919 128.733 32.7866 130.201 32.7866C131.636 32.7866 132.445 32.162 132.992 31.74Z" fill="#606060"/>
<path d="M127.41 7.25881C127.356 7.30027 127.305 7.33977 127.256 7.37653C126.599 8.045 125.886 8.95182 125.886 10.4586L125.886 21.5541C125.887 22.0544 125.888 22.5569 125.888 23.0609L128.071 23.0609C128.068 21.2326 128.07 19.3876 128.078 17.5817C128.083 16.4553 128.079 15.4056 128.075 14.3688C128.07 13.0856 128.066 11.8224 128.078 10.4586C128.078 10.4427 128.079 10.428 128.081 10.4144C128.139 9.2942 129.066 8.40389 130.201 8.40389C131.322 8.40389 132.24 9.27196 132.319 10.3723C132.322 10.399 132.324 10.4277 132.324 10.4586C132.336 11.8225 132.332 13.0857 132.327 14.369C132.323 15.4056 132.319 16.4554 132.324 17.5817C132.332 19.3876 132.334 21.2326 132.331 23.0609L134.516 23.0609L134.516 10.4586C134.516 8.95182 133.804 8.045 133.146 7.37653C133.104 7.34387 133.062 7.31026 133.018 7.27597C132.423 6.80696 131.669 6.21219 130.201 6.21219C128.767 6.21219 127.957 6.83682 127.41 7.25881Z" fill="#606060"/>
<path fill-rule="evenodd" clip-rule="evenodd" d="M36.4619 31.1621C36.5775 32.427 37.2179 33.2279 37.8133 33.8332C37.8624 33.87 38.1889 34.1178 38.2427 34.1592L37.9673 33.951C38.4502 34.3235 39.1312 34.8591 40.2724 34.9783V32.7866C39.4848 32.6048 38.8714 31.9497 38.6896 31.1621H36.4619Z" fill="#606060"/>
<path fill-rule="evenodd" clip-rule="evenodd" d="M130.706 7.83643C130.821 6.57151 131.462 5.77066 132.057 5.16529C132.106 5.12853 132.433 4.88075 132.486 4.83929L132.211 5.04756C132.694 4.67506 133.375 4.13948 134.516 4.0202L134.516 6.21191C133.728 6.3937 133.115 7.04879 132.933 7.83643L130.706 7.83643Z" fill="#606060"/>
<path d="M53.2861 32.7863V6.21191H62.8748V8.40362H55.4778V16.3486H59.3133V18.5403H55.4778V30.5946H62.8748V32.7863H53.2861Z" fill="#606060"/>
<path d="M71.6416 32.7863V6.21191H75.7733C77.3473 6.21191 78.493 6.54409 79.2106 7.20845C79.9397 7.87282 80.3158 8.97455 80.339 10.5136C80.3621 11.6209 80.3737 12.5898 80.3737 13.4202C80.3737 14.2507 80.3621 15.0479 80.339 15.8119C80.2927 16.742 80.1075 17.4673 79.7835 17.9877C79.4594 18.5081 78.9111 19.2555 78.2167 19.4991C78.9343 19.7206 79.4941 20.3462 79.8182 20.8777C80.1538 21.4092 80.339 22.14 80.3737 23.0701C80.3969 24.0445 80.4084 24.9469 80.4084 25.7773C80.4084 26.6078 80.3969 27.5102 80.3737 28.4846C80.3158 30.0126 79.9281 31.1144 79.2106 31.7898C78.5046 32.4542 77.3588 32.7863 75.7733 32.7863H71.6416ZM73.8333 30.5946H75.751C76.5265 30.5946 77.1158 30.605 77.4746 30.2286C77.8449 29.8521 78.1415 29.255 78.1646 28.4577C78.1994 27.5165 78.2167 26.6307 78.2167 25.8003C78.2167 24.9698 78.1994 24.084 78.1646 23.1428C78.1415 22.1574 77.8391 21.4645 77.4572 21.0438C77.0869 20.6119 76.5843 20.595 75.751 20.595H73.8333V30.5946ZM73.8333 18.4033H75.751C76.5265 18.4033 77.0869 18.2036 77.4572 17.7718C77.8276 17.34 78.1367 16.6515 78.1482 15.7546C78.1945 14.8023 78.2177 13.9054 78.2177 13.0639C78.2177 12.2224 78.1945 11.331 78.1482 10.3899C78.1367 9.62584 77.8276 9.09081 77.4572 8.73648C77.0869 8.38216 76.5033 8.40362 75.751 8.40362H73.8333V18.4033Z" fill="#606060"/>
<path d="M93.4214 32.7863V6.21191H97.6678C99.1844 6.21191 100.252 6.55517 100.922 7.24167C101.603 7.92818 102.029 9.02301 102.051 10.5953C102.084 12.6991 102.032 14.7379 102.043 16.6424C102.054 18.5469 102.054 20.4514 102.043 22.3559C102.032 24.2493 102.084 26.1621 102.051 28.266C102.029 29.8493 101.603 31.0701 100.922 31.7566C100.241 32.4431 99.1361 32.7863 97.6085 32.7863H93.4214ZM95.6131 30.5946H97.6678C98.4261 30.5946 98.9164 30.6161 99.257 30.2618C99.5977 29.8964 99.8485 29.3039 99.8595 28.5399C99.8925 27.023 99.8485 25.5254 99.8595 24.0195C99.8705 22.5026 99.867 21.005 99.867 19.4991C99.867 17.9822 99.8705 16.4846 99.8595 14.9787C99.8485 13.4618 99.8925 11.9753 99.8595 10.4583C99.8485 9.69433 99.5977 9.09081 99.257 8.73648C98.9164 8.38216 98.4041 8.40362 97.6678 8.40362H95.6131V30.5946Z" fill="#606060"/>
<path d="M115.064 32.7863V6.21191H118.894C120.346 6.21191 121.801 6.61258 122.453 7.27695C123.133 7.85569 123.616 9.05622 123.68 10.5953C123.712 11.5808 123.669 12.4602 123.68 13.335C123.691 14.2097 123.691 15.1072 123.68 15.9376C123.68 16.8965 123.712 17.5839 123.68 18.4033C123.648 19.4773 123.407 20.321 122.981 20.9794C122.65 21.6105 121.844 22.0415 121.15 22.3073L123.68 32.7863H121.492L119.167 22.6497H117.253V32.7863H115.064ZM117.253 20.595H119.03C119.756 20.595 120.531 20.5365 120.851 20.1822C121.182 19.8278 121.323 19.2358 121.355 18.4718C121.387 17.597 121.413 16.766 121.424 15.8691C121.434 14.9612 121.434 14.0264 121.424 13.1295C121.413 12.2326 121.391 11.3772 121.355 10.5268C121.323 9.76282 121.265 9.23738 120.945 8.88306C120.625 8.52873 119.756 8.40362 119.03 8.40362H117.253V20.595Z" fill="#606060"/>
<path d="M9.71421 32.7863C8.25212 32.7863 7.20091 32.4542 6.56058 31.79C5.93092 31.1149 5.52003 30.0644 5.48802 28.5399C5.4906 27.6495 5.4906 26.6907 5.4906 25.8003C5.4954 25.1513 5.4906 24.5674 5.4906 23.8825C5.4835 22.8899 5.48824 21.9738 5.4906 21.0059C5.49179 20.5193 5.4906 19.9946 5.4906 19.4991C5.4906 18.0182 5.47993 16.539 5.4906 15.0472C5.49521 14.3983 5.49898 13.7195 5.4906 13.061C5.47959 12.1946 5.47241 11.3306 5.4906 10.4583C5.51195 9.04278 5.92025 7.9977 6.56058 7.28992C7.21158 6.57125 8.34283 6.21191 9.77291 6.21191C11.235 6.21191 12.2008 6.54403 12.8518 7.20825C13.5028 7.86159 14.1823 8.923 14.2357 10.4583C14.2357 10.7323 14.2357 11.0063 14.2357 11.4172C14.2344 11.6234 14.2357 11.8814 14.2357 12.1021C14.2357 12.2431 14.2349 12.3793 14.2357 12.5131H12.0494C12.0486 12.3833 12.0494 12.248 12.0494 12.1021C12.0494 11.8865 12.0482 11.6073 12.0494 11.4172C12.0517 11.0602 12.0494 10.8008 12.0494 10.4583C12.0387 9.68523 11.8041 9.26732 11.4733 8.95155C11.1531 8.62488 10.5093 8.40362 9.77291 8.40362C9.08988 8.40362 8.38205 8.62488 8.07255 8.95155C7.76306 9.26732 7.69822 9.68523 7.67688 10.4583V14.9102C7.66976 15.9344 7.67451 16.9733 7.67688 17.9923C7.67806 18.501 7.67688 18.9916 7.67688 19.4991C7.67688 20.0019 7.67806 20.4997 7.67688 21.0059C7.6745 22.0237 7.67688 22.9922 7.67688 24.0195C7.67688 25.0469 7.68153 25.9376 7.67688 26.8961C7.68058 27.3948 7.67688 27.9729 7.67688 28.5399C7.69822 29.2913 7.76306 29.7092 8.07255 30.0467C8.39272 30.3734 9.07922 30.5946 9.77291 30.5946C10.5413 30.5946 11.1317 30.3734 11.4733 30.0467C11.8148 29.7092 12.0387 29.2913 12.0494 28.5399C12.0562 28.1558 12.0517 27.8982 12.0494 27.581C12.0481 27.4038 12.0494 27.1989 12.0494 26.9646C12.0494 26.8061 12.0486 26.646 12.0494 26.4852H14.2357C14.2357 27.1701 14.2596 27.855 14.2357 28.5399C14.1823 30.0644 13.6202 31.1149 12.9479 31.79C12.2862 32.4542 11.2083 32.7863 9.71421 32.7863Z" fill="#606060"/>
</svg>
