<svg width="88" height="88" viewBox="0 0 88 88" fill="none" xmlns="http://www.w3.org/2000/svg">
<rect width="88" height="88" fill="#122D48"/>
<g clip-path="url(#clip0_999_1698)">
<path d="M74.6544 47.5044H73.3364C73.1168 47.5044 72.9703 47.2611 73.068 47.0664L76.3628 40.6173L73.068 34.2899C72.9703 34.0952 73.1168 33.8518 73.3364 33.8518H74.6544C75.8747 33.8518 76.6801 34.3385 77.217 35.2877L80.341 40.593L77.2658 45.8982C76.6801 46.9204 75.9235 47.5044 74.6544 47.5044Z" fill="#48B6AB"/>
<path d="M45.5621 48.5752V46.9934V46.2633C45.5621 44.073 46.3675 43.1239 48.9302 43.1239C51.4928 43.1239 52.2494 44.073 52.2494 46.2876V48.5752C52.2494 50.7898 51.5661 51.7146 48.9302 51.7146C46.2943 51.7146 45.5621 50.7655 45.5621 48.5752ZM42.853 45.5575V48.6239C42.853 52.396 45.0984 54.2456 48.9058 54.2456C52.9572 54.2456 54.9585 52.396 54.9585 48.6239V46.3606C54.9585 42.5398 53.1037 40.6173 49.4183 40.6173C47.5634 40.6173 46.2699 41.2013 45.5621 42.3208V37.3805C45.5621 36.5531 44.9764 35.8473 44.2198 35.604C43.8049 35.4823 43.2679 35.531 43.2679 35.531C43.0483 35.531 42.853 35.7013 42.853 35.9204V45.5575Z" fill="white"/>
<path d="M39.6803 43.0021C39.6803 42.1017 39.0457 41.323 38.2159 41.0796C38.0451 41.0309 37.8498 41.0066 37.6546 41.0066H37.1909C36.9468 41.0066 36.7515 41.2013 36.7515 41.4447V52.2256C36.7515 53.126 37.3861 53.9048 38.2159 54.1481C38.3868 54.1968 38.582 54.2212 38.7773 54.2212H39.241C39.4851 54.2212 39.6803 54.0265 39.6803 53.7831V43.0021Z" fill="white"/>
<path d="M7.87888 49.0133C7.87888 52.323 9.66054 54.2212 13.59 54.2212H13.6144C17.5437 54.2212 19.3254 52.2987 19.3254 49.0133V42.8805C19.3254 41.834 18.4712 41.0066 17.4461 41.0066H17.0068C16.7872 41.0066 16.5919 41.2013 16.5919 41.4203V49.0376C16.5919 50.7168 16.0306 51.6659 13.5656 51.6659C11.1005 51.6659 10.5392 50.7168 10.5392 49.0376V42.8805C10.5392 42.0287 9.95342 41.323 9.17241 41.0796C8.83073 40.9823 8.22057 41.0066 8.22057 41.0066C8.00091 41.0066 7.80566 41.2013 7.80566 41.4203V49.0133H7.87888Z" fill="white"/>
<path d="M33.5784 45.8253C33.5784 42.5155 31.7967 40.6173 27.8673 40.6173H27.8429C23.9135 40.6173 22.1318 42.5155 22.1318 45.8253V52.3718C22.1318 53.4182 22.986 54.2457 24.0111 54.2457H24.4504C24.6701 54.2457 24.8653 54.051 24.8653 53.8319V45.8253C24.8653 44.1461 25.4267 43.197 27.8917 43.197C30.3568 43.197 30.9181 44.1461 30.9181 45.8253V52.3718C30.9181 53.2235 31.5039 53.9293 32.2849 54.1727C32.6265 54.27 33.2367 54.2457 33.2367 54.2457C33.4564 54.2457 33.6516 54.051 33.6516 53.8319V45.8253H33.5784Z" fill="white"/>
<path d="M69.8218 46.3606C69.8218 42.5398 67.9669 40.6173 64.2816 40.6173C62.4267 40.6173 61.1332 41.2013 60.4254 42.3208V37.3805C60.4254 36.5531 59.8396 35.8473 59.083 35.604C58.6681 35.4823 58.1312 35.531 58.1312 35.531C57.9115 35.531 57.7163 35.7013 57.7163 35.9204V52.3473C57.7163 53.3938 58.5705 54.2212 59.5956 54.2212H60.0105C60.2301 54.2212 60.4254 54.0266 60.4254 53.8075V46.2633C60.4254 44.073 61.2308 43.1239 63.7934 43.1239C66.3561 43.1239 67.1127 44.073 67.1127 46.2876V52.323C67.1127 53.3695 67.9669 54.1969 68.992 54.1969H69.4313C69.651 54.1969 69.8462 54.0022 69.8462 53.7832L69.8218 46.3606Z" fill="white"/>
</g>
<defs>
<clipPath id="clip0_999_1698">
<rect width="74" height="22" fill="white" transform="translate(7 33)"/>
</clipPath>
</defs>
</svg>
