<svg width="465" height="126" viewBox="0 0 465 126" fill="none" xmlns="http://www.w3.org/2000/svg">
<rect x="350.755" y="73.7084" width="18.6364" height="7.27273" fill="#333333"/>
<rect x="278.937" y="73.7084" width="18.6364" height="7.27273" fill="#333333"/>
<rect x="58.937" y="73.7084" width="18.6364" height="7.27273" fill="#333333"/>
<path d="M370.264 23.0265C368.446 21.6629 365.719 19.1629 360.491 19.1629C355.264 19.1629 352.764 21.4356 350.719 23.0265C348.537 25.2447 346.136 28.2538 346.136 33.2538V107.345H353.409V82.3447C353.373 73.9447 353.372 65.072 353.409 56.8902C353.425 53.1528 353.458 49.4211 353.446 45.9811C353.43 41.723 353.406 37.7795 353.446 33.2538C353.446 33.1512 353.452 33.056 353.464 32.9674C353.727 29.3161 356.773 26.4356 360.491 26.4356C364.257 26.4356 367.306 29.3092 367.5 33.0265C367.506 33.0716 367.5 33.2011 367.5 33.2538C367.54 37.7793 367.516 41.7231 367.5 45.9811C367.487 49.4213 367.484 53.1526 367.5 56.8902C367.536 65.2902 367.536 73.9447 367.5 82.3447C367.451 87.986 367.484 93.6139 367.5 99.1629C367.508 101.912 367.5 104.634 367.5 107.345H374.773C374.773 103.284 374.775 99.1967 374.773 95.072C374.769 86.7318 374.761 78.3018 374.773 70.072L374.773 33.2538C374.773 28.2538 372.446 25.2447 370.264 23.0265Z" fill="#333333"/>
<rect x="90.6818" y="19.1629" width="7.27273" height="88.1818" fill="#333333"/>
<path d="M298.446 23.0265C296.628 21.6629 293.9 19.1629 288.673 19.1629C283.446 19.1629 280.946 21.4356 278.9 23.0265C276.719 25.2447 274.318 28.2538 274.318 33.2538V107.345H281.591V82.3447C281.555 73.9447 281.554 65.072 281.591 56.8902C281.607 53.1528 281.64 49.4211 281.628 45.9811C281.612 41.723 281.587 37.7795 281.628 33.2538C281.628 33.1512 281.634 33.056 281.646 32.9674C281.909 29.3161 284.955 26.4356 288.673 26.4356C292.439 26.4356 295.488 29.3092 295.682 33.0265C295.688 33.0716 295.681 33.2011 295.682 33.2538C295.722 37.7793 295.698 41.7231 295.682 45.9811C295.669 49.4213 295.666 53.1526 295.682 56.8902C295.718 65.2902 295.718 73.9447 295.682 82.3447C295.633 87.986 295.666 93.6139 295.682 99.1629C295.69 101.912 295.682 104.634 295.682 107.345H302.955C302.955 103.284 302.957 99.1967 302.955 95.072C302.951 86.7318 302.942 78.3018 302.955 70.072L302.955 33.2538C302.955 28.2538 300.628 25.2447 298.446 23.0265Z" fill="#333333"/>
<path d="M78.4457 23.0265C76.6275 21.6629 73.9003 19.1629 68.673 19.1629C63.4458 19.1629 60.9457 21.4356 58.9003 23.0265C56.7185 25.2447 54.3181 28.2538 54.3181 33.2538V107.345H61.5908V82.3447C61.5545 73.9447 61.5541 65.072 61.5908 56.8902C61.6071 53.1528 61.6402 49.4211 61.6276 45.9811C61.6119 41.723 61.5873 37.7795 61.6276 33.2538C61.6276 33.1512 61.6339 33.056 61.646 32.9674C61.9091 29.3161 64.9547 26.4356 68.673 26.4356C72.4387 26.4356 75.4874 29.3092 75.6818 33.0265C75.6877 33.0716 75.6813 33.2011 75.6818 33.2538C75.722 37.7793 75.6974 41.7231 75.6818 45.9811C75.6691 49.4213 75.6655 53.1526 75.6818 56.8902C75.7181 65.2902 75.7181 73.9447 75.6818 82.3447C75.6331 87.986 75.6655 93.6139 75.6818 99.1629C75.6898 101.912 75.6818 104.634 75.6818 107.345H82.9545C82.9545 103.284 82.9565 99.1967 82.9545 95.072C82.9504 86.7318 82.9423 78.3018 82.9545 70.072L82.9545 33.2538C82.9545 28.2538 80.6275 25.2447 78.4457 23.0265Z" fill="#333333"/>
<path d="M145.682 103.481C147.5 104.845 150.227 107.345 155.454 107.345C160.682 107.345 163.182 105.072 165.227 103.481C167.409 101.263 169.773 98.2538 169.773 93.2538L169.773 19.1629H162.5V44.1629C162.536 52.5629 162.536 61.2175 162.5 69.6175C162.484 73.3549 162.497 76.8381 162.509 80.2781C162.525 84.5363 162.54 88.7282 162.5 93.2538C162.5 93.3564 162.494 93.4517 162.482 93.5403C162.218 97.1915 159.173 100.072 155.454 100.072C151.689 100.072 148.613 97.1177 148.419 93.4004C148.413 93.3553 148.41 93.3065 148.409 93.2538C148.369 88.7283 148.384 84.5366 148.4 80.2786C148.413 76.8384 148.425 73.3551 148.409 69.6175C148.373 61.2175 148.373 52.5629 148.409 44.1629C148.458 38.5217 148.441 32.9048 148.425 27.3558C148.417 24.6064 148.409 21.8737 148.409 19.1629H141.136C141.136 23.2241 141.138 27.332 141.14 31.4567C141.144 39.7969 141.149 48.2058 141.136 56.4357V93.2538C141.136 98.2538 143.5 101.263 145.682 103.481Z" fill="#333333"/>
<path d="M128.807 22.6359C128.986 22.7735 129.156 22.9045 129.318 23.0265C131.5 25.2447 133.864 28.2538 133.864 33.2538V70.072C133.861 71.7321 133.859 73.3994 133.858 75.072H126.613C126.624 69.0051 126.617 62.8829 126.591 56.8902C126.575 53.1526 126.587 49.6692 126.6 46.229C126.616 41.9711 126.631 37.7793 126.591 33.2538C126.591 33.2011 126.587 33.1523 126.581 33.1072C126.387 29.3899 123.311 26.4356 119.546 26.4356C115.827 26.4356 112.782 29.3161 112.519 32.9674C112.506 33.056 112.5 33.1512 112.5 33.2538C112.46 37.7795 112.475 41.9714 112.491 46.2295C112.503 49.6695 112.516 53.1528 112.5 56.8902C112.474 62.8829 112.467 69.0051 112.478 75.072H105.227V33.2538C105.227 28.2538 107.591 25.2447 109.773 23.0265C109.912 22.9182 110.054 22.8066 110.198 22.6928C112.171 21.1365 114.674 19.1629 119.546 19.1629C124.305 19.1629 126.992 21.2356 128.807 22.6359Z" fill="#333333"/>
<path d="M110.284 103.872C110.105 103.734 109.935 103.603 109.773 103.481C107.591 101.263 105.227 98.2538 105.227 93.2538L105.227 56.4356C105.23 54.7756 105.232 53.1082 105.233 51.4356H112.478C112.467 57.5026 112.474 63.6248 112.5 69.6175C112.516 73.355 112.503 76.8384 112.491 80.2786C112.475 84.5366 112.46 88.7283 112.5 93.2538C112.5 93.3065 112.504 93.3553 112.51 93.4004C112.704 97.1177 115.78 100.072 119.545 100.072C123.264 100.072 126.309 97.1915 126.572 93.5402C126.585 93.4517 126.591 93.3564 126.591 93.2538C126.631 88.7282 126.616 84.5363 126.6 80.2781C126.587 76.8382 126.575 73.3548 126.591 69.6175C126.617 63.6248 126.624 57.5026 126.613 51.4356H133.864L133.864 93.2538C133.864 98.2538 131.5 101.263 129.318 103.481C129.179 103.589 129.037 103.701 128.893 103.815C126.919 105.371 124.417 107.345 119.545 107.345C114.786 107.345 112.099 105.272 110.284 103.872Z" fill="#333333"/>
<path d="M441.535 103.872C441.713 103.734 441.883 103.603 442.046 103.481C444.227 101.263 446.591 98.2538 446.591 93.2538L446.591 56.4357C446.589 54.7756 446.587 53.1083 446.585 51.4357L439.341 51.4357C439.352 57.5026 439.344 63.6248 439.318 69.6175C439.302 73.3551 439.315 76.8384 439.327 80.2786C439.343 84.5366 439.358 88.7283 439.318 93.2538C439.318 93.3065 439.315 93.3553 439.309 93.4004C439.114 97.1177 436.038 100.072 432.273 100.072C428.554 100.072 425.509 97.1915 425.246 93.5403C425.234 93.4517 425.227 93.3564 425.227 93.2538C425.187 88.7282 425.203 84.5363 425.218 80.2781C425.231 76.8382 425.244 73.3548 425.227 69.6175C425.201 63.6248 425.194 57.5026 425.205 51.4357L417.955 51.4357L417.955 93.2538C417.955 98.2538 420.318 101.263 422.5 103.481C422.639 103.589 422.781 103.701 422.925 103.815C424.899 105.371 427.402 107.345 432.273 107.345C437.032 107.345 439.719 105.272 441.535 103.872Z" fill="#333333"/>
<path d="M423.011 22.6359C422.833 22.7735 422.663 22.9046 422.5 23.0266C420.318 25.2447 417.955 28.2538 417.955 33.2538L417.955 70.072C417.957 71.7321 417.959 73.3994 417.96 75.072L425.205 75.072C425.194 69.0051 425.201 62.8829 425.227 56.8902C425.244 53.1526 425.231 49.6692 425.218 46.2291C425.202 41.9711 425.187 37.7793 425.227 33.2538C425.228 33.2011 425.231 33.1523 425.237 33.1072C425.431 29.3899 428.507 26.4356 432.273 26.4356C435.991 26.4356 439.037 29.3161 439.3 32.9674C439.312 33.056 439.318 33.1513 439.318 33.2538C439.358 37.7795 439.343 41.9714 439.327 46.2295C439.315 49.6695 439.302 53.1528 439.318 56.8902C439.344 62.8829 439.352 69.0051 439.341 75.072L446.591 75.072L446.591 33.2538C446.591 28.2538 444.227 25.2447 442.045 23.0266C441.906 22.9182 441.765 22.8066 441.62 22.6929C439.647 21.1365 437.144 19.1629 432.273 19.1629C427.513 19.1629 424.826 21.2356 423.011 22.6359Z" fill="#333333"/>
<path fill-rule="evenodd" clip-rule="evenodd" d="M121.219 101.954C121.603 106.151 123.728 108.809 125.704 110.818C125.866 110.94 126.95 111.762 127.128 111.9L126.214 111.208C127.817 112.444 130.077 114.222 133.864 114.617V107.345C131.25 106.742 129.214 104.568 128.611 101.954H121.219Z" fill="#333333"/>
<path fill-rule="evenodd" clip-rule="evenodd" d="M433.946 24.5535C434.33 20.3562 436.455 17.6987 438.431 15.6899C438.594 15.5679 439.677 14.7457 439.856 14.6082L438.942 15.2993C440.544 14.0632 442.804 12.286 446.591 11.8902L446.591 19.1629C443.977 19.7661 441.942 21.9399 441.339 24.5535L433.946 24.5535Z" fill="#333333"/>
<path d="M177.045 107.345V19.1629H208.864V26.4356H184.318V52.7993H197.045V60.072H184.318V100.072H208.864V107.345H177.045Z" fill="#333333"/>
<path d="M237.955 107.345V19.1629H251.665C256.888 19.1629 260.69 20.2652 263.071 22.4697C265.49 24.6743 266.738 28.3301 266.815 33.4373C266.892 37.1116 266.93 40.3265 266.93 43.0822C266.93 45.8379 266.892 48.4834 266.815 51.0186C266.661 54.105 266.047 56.5116 264.972 58.2385C263.896 59.9654 262.077 62.4455 259.773 63.2538C262.154 63.9887 264.012 66.0646 265.087 67.8283C266.201 69.5919 266.815 72.0169 266.93 75.1033C267.007 78.3366 267.046 81.3311 267.046 84.0868C267.046 86.8425 267.007 89.837 266.93 93.0703C266.738 98.1408 265.452 101.797 263.071 104.038C260.728 106.242 256.926 107.345 251.665 107.345H237.955ZM245.227 100.072H251.591C254.164 100.072 256.12 100.106 257.31 98.8572C258.539 97.608 259.523 95.6266 259.6 92.9811C259.715 89.858 259.773 86.9186 259.773 84.1629C259.773 81.4072 259.715 78.4678 259.6 75.3447C259.523 72.0747 258.52 69.7756 257.253 68.3794C256.024 66.9464 254.356 66.8902 251.591 66.8902H245.227V100.072ZM245.227 59.6175H251.591C254.164 59.6175 256.024 58.955 257.253 57.522C258.481 56.089 259.507 53.8044 259.546 50.8283C259.699 47.6684 259.776 44.6923 259.776 41.8998C259.776 39.1074 259.699 36.1497 259.546 33.0265C259.507 30.4913 258.481 28.7159 257.253 27.5402C256.024 26.3644 254.087 26.4356 251.591 26.4356H245.227V59.6175Z" fill="#333333"/>
<path d="M310.227 107.345V19.1629H324.318C329.351 19.1629 332.892 20.3019 335.117 22.5799C337.378 24.858 338.791 28.4909 338.864 33.7084C338.973 40.6894 338.8 47.4546 338.836 53.7743C338.873 60.094 338.873 66.4137 338.836 72.7334C338.8 79.0163 338.973 85.3637 338.864 92.3447C338.791 97.5989 337.378 101.65 335.117 103.928C332.856 106.206 329.191 107.345 324.122 107.345H310.227ZM317.5 100.072H324.318C326.834 100.072 328.461 100.143 329.592 98.9675C330.722 97.755 331.554 95.7891 331.591 93.2538C331.7 88.2201 331.554 83.2508 331.591 78.2538C331.627 73.2201 331.616 68.2508 331.616 63.2538C331.616 58.2201 331.627 53.2508 331.591 48.2538C331.554 43.2201 331.7 38.2875 331.591 33.2538C331.554 30.7186 330.722 28.7159 329.592 27.5402C328.461 26.3644 326.762 26.4356 324.318 26.4356H317.5V100.072Z" fill="#333333"/>
<path d="M382.046 107.345V19.1629H394.752C399.57 19.1629 404.4 20.4924 406.561 22.697C408.819 24.6174 410.422 28.6012 410.635 33.7084C410.741 36.9784 410.599 39.8966 410.635 42.7993C410.67 45.7019 410.67 48.68 410.635 51.4356C410.635 54.6175 410.741 56.8985 410.635 59.6175C410.528 63.1815 409.727 65.9811 408.315 68.1658C407.217 70.2601 404.542 71.6902 402.239 72.572L410.635 107.345H403.374L395.659 73.7084H389.306V107.345H382.046ZM389.306 66.8902H395.206C397.615 66.8902 400.185 66.6961 401.247 65.5203C402.346 64.3445 402.814 62.38 402.92 59.8447C403.026 56.9421 403.112 54.1845 403.147 51.2084C403.182 48.1955 403.182 45.0936 403.147 42.1175C403.112 39.1413 403.038 36.3029 402.92 33.4811C402.814 30.9459 402.622 29.2023 401.559 28.0265C400.496 26.8508 397.615 26.4356 395.206 26.4356H389.306V66.8902Z" fill="#333333"/>
<path d="M32.4611 107.345C27.6095 107.345 24.1212 106.243 21.9964 104.039C19.907 101.798 18.5436 98.3124 18.4373 93.2538C18.4459 90.2993 18.4459 87.1175 18.4459 84.1629C18.4618 82.0095 18.4459 80.072 18.4459 77.7993C18.4224 74.5052 18.4381 71.4656 18.4459 68.2538C18.4499 66.6391 18.4459 64.8979 18.4459 63.2538C18.4459 58.3398 18.4105 53.4313 18.4459 48.4811C18.4612 46.3277 18.4737 44.0754 18.4459 41.8902C18.4094 39.0153 18.3856 36.1483 18.4459 33.2538C18.5168 28.5566 19.8716 25.0887 21.9964 22.74C24.1566 20.3553 27.9105 19.1629 32.6559 19.1629C37.5075 19.1629 40.7125 20.2649 42.8727 22.469C45.0329 24.637 47.2875 28.1591 47.4646 33.2538C47.4646 34.1629 47.4646 35.072 47.4646 36.4356C47.4605 37.1198 47.4646 37.9759 47.4646 38.7084C47.4646 39.1761 47.4622 39.6282 47.4646 40.072H40.21C40.2074 39.6415 40.21 39.1925 40.21 38.7084C40.21 37.9927 40.2059 37.0664 40.21 36.4356C40.2176 35.2511 40.21 34.3902 40.21 33.2538C40.1745 30.6884 39.396 29.3017 38.2981 28.2538C37.2357 27.1698 35.0994 26.4356 32.6559 26.4356C30.3894 26.4356 28.0406 27.1698 27.0136 28.2538C25.9866 29.3017 25.7715 30.6884 25.7006 33.2538V48.0265C25.677 51.4249 25.6928 54.8723 25.7006 58.2538C25.7046 59.9417 25.7006 61.5696 25.7006 63.2538C25.7006 64.9221 25.7046 66.574 25.7006 68.2538C25.6928 71.6312 25.7006 74.8447 25.7006 78.2538C25.7006 81.6629 25.7161 84.6186 25.7006 87.7993C25.7129 89.4541 25.7006 91.3724 25.7006 93.2538C25.7715 95.747 25.9866 97.1337 27.0136 98.2538C28.076 99.3378 30.354 100.072 32.6559 100.072C35.2057 100.072 37.1649 99.3378 38.2981 98.2538C39.4314 97.1337 40.1745 95.747 40.21 93.2538C40.2327 91.9791 40.2175 91.1243 40.21 90.072C40.2057 89.4837 40.21 88.8039 40.21 88.0266C40.21 87.5005 40.2073 86.9694 40.21 86.4356H47.4646C47.4646 88.7084 47.5442 90.9811 47.4646 93.2538C47.2875 98.3124 45.4225 101.798 43.1914 104.039C40.9958 106.243 37.419 107.345 32.4611 107.345Z" fill="#333333"/>
</svg>
