<svg width="465" height="125" viewBox="0 0 465 125" fill="none" xmlns="http://www.w3.org/2000/svg">
<rect x="350.755" y="72.7272" width="18.6364" height="7.27273" fill="white"/>
<rect x="278.937" y="72.7272" width="18.6364" height="7.27273" fill="white"/>
<rect x="58.937" y="72.7272" width="18.6364" height="7.27273" fill="white"/>
<path d="M370.264 22.0454C368.446 20.6818 365.719 18.1818 360.491 18.1818C355.264 18.1818 352.764 20.4545 350.719 22.0454C348.537 24.2636 346.136 27.2727 346.136 32.2727V106.364H353.409V81.3636C353.373 72.9636 353.372 64.0909 353.409 55.909C353.425 52.1716 353.458 48.44 353.446 45C353.43 40.7418 353.406 36.7983 353.446 32.2727C353.446 32.1701 353.452 32.0748 353.464 31.9863C353.727 28.335 356.773 25.4545 360.491 25.4545C364.257 25.4545 367.306 28.3281 367.5 32.0454C367.506 32.0905 367.5 32.22 367.5 32.2727C367.54 36.7982 367.516 40.742 367.5 45C367.487 48.4401 367.484 52.1715 367.5 55.909C367.536 64.309 367.536 72.9636 367.5 81.3636C367.451 87.0048 367.484 92.6328 367.5 98.1818C367.508 100.931 367.5 103.653 367.5 106.364H374.773C374.773 102.302 374.775 98.2156 374.773 94.0909C374.769 85.7507 374.761 77.3207 374.773 69.0909L374.773 32.2727C374.773 27.2727 372.446 24.2636 370.264 22.0454Z" fill="white"/>
<rect x="90.6818" y="18.1818" width="7.27273" height="88.1818" fill="white"/>
<path d="M298.446 22.0454C296.628 20.6818 293.9 18.1818 288.673 18.1818C283.446 18.1818 280.946 20.4545 278.9 22.0454C276.719 24.2636 274.318 27.2727 274.318 32.2727V106.364H281.591V81.3636C281.555 72.9636 281.554 64.0909 281.591 55.909C281.607 52.1716 281.64 48.44 281.628 45C281.612 40.7418 281.587 36.7983 281.628 32.2727C281.628 32.1701 281.634 32.0748 281.646 31.9863C281.909 28.335 284.955 25.4545 288.673 25.4545C292.439 25.4545 295.488 28.3281 295.682 32.0454C295.688 32.0905 295.681 32.22 295.682 32.2727C295.722 36.7982 295.698 40.742 295.682 45C295.669 48.4401 295.666 52.1715 295.682 55.909C295.718 64.309 295.718 72.9636 295.682 81.3636C295.633 87.0048 295.666 92.6328 295.682 98.1818C295.69 100.931 295.682 103.653 295.682 106.364H302.955C302.955 102.302 302.957 98.2156 302.955 94.0909C302.951 85.7507 302.942 77.3207 302.955 69.0909L302.955 32.2727C302.955 27.2727 300.628 24.2636 298.446 22.0454Z" fill="white"/>
<path d="M78.4457 22.0454C76.6275 20.6818 73.9003 18.1818 68.673 18.1818C63.4458 18.1818 60.9457 20.4545 58.9003 22.0454C56.7185 24.2636 54.3181 27.2727 54.3181 32.2727V106.364H61.5908V81.3636C61.5545 72.9636 61.5541 64.0909 61.5908 55.909C61.6071 52.1716 61.6402 48.44 61.6276 45C61.6119 40.7418 61.5873 36.7983 61.6276 32.2727C61.6276 32.1701 61.6339 32.0748 61.646 31.9863C61.9091 28.335 64.9547 25.4545 68.673 25.4545C72.4387 25.4545 75.4874 28.3281 75.6818 32.0454C75.6877 32.0905 75.6813 32.22 75.6818 32.2727C75.722 36.7982 75.6974 40.742 75.6818 45C75.6691 48.4401 75.6655 52.1715 75.6818 55.909C75.7181 64.309 75.7181 72.9636 75.6818 81.3636C75.6331 87.0048 75.6655 92.6328 75.6818 98.1818C75.6898 100.931 75.6818 103.653 75.6818 106.364H82.9545C82.9545 102.302 82.9565 98.2156 82.9545 94.0909C82.9504 85.7507 82.9423 77.3207 82.9545 69.0909L82.9545 32.2727C82.9545 27.2727 80.6275 24.2636 78.4457 22.0454Z" fill="white"/>
<path d="M145.682 102.5C147.5 103.864 150.227 106.364 155.454 106.364C160.682 106.364 163.182 104.091 165.227 102.5C167.409 100.282 169.773 97.2727 169.773 92.2727L169.773 18.1817H162.5V43.1818C162.536 51.5818 162.536 60.2363 162.5 68.6363C162.484 72.3737 162.497 75.857 162.509 79.297C162.525 83.5551 162.54 87.747 162.5 92.2727C162.5 92.3753 162.494 92.4705 162.482 92.5591C162.218 96.2104 159.173 99.0909 155.454 99.0909C151.689 99.0909 148.613 96.1366 148.419 92.4193C148.413 92.3742 148.41 92.3254 148.409 92.2727C148.369 87.7472 148.384 83.5554 148.4 79.2975C148.413 75.8573 148.425 72.3739 148.409 68.6363C148.373 60.2363 148.373 51.5818 148.409 43.1818C148.458 37.5405 148.441 31.9236 148.425 26.3746C148.417 23.6253 148.409 20.8925 148.409 18.1817H141.136C141.136 22.2429 141.138 26.3508 141.14 30.4755C141.144 38.8157 141.149 47.2247 141.136 55.4545V92.2727C141.136 97.2727 143.5 100.282 145.682 102.5Z" fill="white"/>
<path d="M128.807 21.6547C128.986 21.7923 129.156 21.9234 129.318 22.0454C131.5 24.2636 133.864 27.2727 133.864 32.2727V69.0909C133.861 70.7509 133.859 72.4183 133.858 74.0909H126.613C126.624 68.0239 126.617 61.9017 126.591 55.909C126.575 52.1715 126.587 48.6881 126.6 45.2479C126.616 40.9899 126.631 36.7982 126.591 32.2727C126.591 32.22 126.587 32.1712 126.581 32.1261C126.387 28.4088 123.311 25.4545 119.546 25.4545C115.827 25.4545 112.782 28.335 112.519 31.9863C112.506 32.0748 112.5 32.1701 112.5 32.2727C112.46 36.7983 112.475 40.9902 112.491 45.2484C112.503 48.6883 112.516 52.1717 112.5 55.909C112.474 61.9017 112.467 68.0239 112.478 74.0909H105.227V32.2727C105.227 27.2727 107.591 24.2636 109.773 22.0454C109.912 21.937 110.054 21.8255 110.198 21.7117C112.171 20.1554 114.674 18.1818 119.546 18.1818C124.305 18.1818 126.992 20.2545 128.807 21.6547Z" fill="white"/>
<path d="M110.284 102.891C110.105 102.753 109.935 102.622 109.773 102.5C107.591 100.282 105.227 97.2727 105.227 92.2727L105.227 55.4545C105.23 53.7944 105.232 52.1271 105.233 50.4545H112.478C112.467 56.5214 112.474 62.6436 112.5 68.6363C112.516 72.3739 112.503 75.8573 112.491 79.2975C112.475 83.5554 112.46 87.7472 112.5 92.2727C112.5 92.3254 112.504 92.3742 112.51 92.4193C112.704 96.1366 115.78 99.0909 119.545 99.0909C123.264 99.0909 126.309 96.2104 126.572 92.5591C126.585 92.4705 126.591 92.3753 126.591 92.2727C126.631 87.747 126.616 83.5551 126.6 79.297C126.587 75.857 126.575 72.3737 126.591 68.6363C126.617 62.6437 126.624 56.5214 126.613 50.4545H133.864L133.864 92.2727C133.864 97.2727 131.5 100.282 129.318 102.5C129.179 102.608 129.037 102.72 128.893 102.834C126.919 104.39 124.417 106.364 119.545 106.364C114.786 106.364 112.099 104.291 110.284 102.891Z" fill="white"/>
<path d="M441.535 102.891C441.713 102.753 441.883 102.622 442.046 102.5C444.227 100.282 446.591 97.2727 446.591 92.2727L446.591 55.4545C446.589 53.7944 446.587 52.1271 446.585 50.4545L439.341 50.4545C439.352 56.5214 439.344 62.6436 439.318 68.6363C439.302 72.3739 439.315 75.8573 439.327 79.2974C439.343 83.5554 439.358 87.7472 439.318 92.2727C439.318 92.3254 439.315 92.3742 439.309 92.4193C439.114 96.1366 436.038 99.0909 432.273 99.0909C428.554 99.0909 425.509 96.2104 425.246 92.5591C425.234 92.4705 425.227 92.3753 425.227 92.2727C425.187 87.747 425.203 83.5551 425.218 79.297C425.231 75.857 425.244 72.3737 425.227 68.6363C425.201 62.6436 425.194 56.5214 425.205 50.4545L417.955 50.4545L417.955 92.2727C417.955 97.2727 420.318 100.282 422.5 102.5C422.639 102.608 422.781 102.72 422.925 102.834C424.899 104.39 427.402 106.364 432.273 106.364C437.032 106.364 439.719 104.291 441.535 102.891Z" fill="white"/>
<path d="M423.011 21.6547C422.833 21.7923 422.663 21.9234 422.5 22.0454C420.318 24.2636 417.955 27.2727 417.955 32.2727L417.955 69.0909C417.957 70.7509 417.959 72.4183 417.96 74.0909L425.205 74.0909C425.194 68.0239 425.201 61.9017 425.227 55.909C425.244 52.1715 425.231 48.6881 425.218 45.2479C425.202 40.9899 425.187 36.7982 425.227 32.2727C425.228 32.22 425.231 32.1712 425.237 32.1261C425.431 28.4088 428.507 25.4545 432.273 25.4545C435.991 25.4545 439.037 28.335 439.3 31.9862C439.312 32.0748 439.318 32.1701 439.318 32.2727C439.358 36.7983 439.343 40.9902 439.327 45.2484C439.315 48.6883 439.302 52.1717 439.318 55.909C439.344 61.9017 439.352 68.0239 439.341 74.0908L446.591 74.0908L446.591 32.2727C446.591 27.2727 444.227 24.2636 442.045 22.0454C441.906 21.937 441.765 21.8255 441.62 21.7117C439.647 20.1554 437.144 18.1817 432.273 18.1817C427.513 18.1817 424.826 20.2545 423.011 21.6547Z" fill="white"/>
<path fill-rule="evenodd" clip-rule="evenodd" d="M121.219 100.973C121.603 105.17 123.728 107.828 125.704 109.837C125.866 109.959 126.95 110.781 127.128 110.918L126.214 110.227C127.817 111.463 130.077 113.241 133.864 113.636V106.364C131.25 105.76 129.214 103.587 128.611 100.973H121.219Z" fill="white"/>
<path fill-rule="evenodd" clip-rule="evenodd" d="M433.946 23.5724C434.33 19.375 436.455 16.7176 438.431 14.7088C438.594 14.5868 439.677 13.7646 439.856 13.627L438.942 14.3181C440.544 13.082 442.804 11.3048 446.591 10.909L446.591 18.1818C443.977 18.785 441.942 20.9588 441.339 23.5724L433.946 23.5724Z" fill="white"/>
<path d="M177.045 106.364V18.1818H208.864V25.4545H184.318V51.8181H197.045V59.0909H184.318V99.0909H208.864V106.364H177.045Z" fill="white"/>
<path d="M237.955 106.364V18.1818H251.665C256.888 18.1818 260.69 19.284 263.071 21.4886C265.49 23.6931 266.738 27.349 266.815 32.4562C266.892 36.1304 266.93 39.3454 266.93 42.1011C266.93 44.8568 266.892 47.5022 266.815 50.0374C266.661 53.1238 266.047 55.5304 264.972 57.2573C263.896 58.9842 262.077 61.4643 259.773 62.2727C262.154 63.0075 264.012 65.0835 265.087 66.8471C266.201 68.6107 266.815 71.0357 266.93 74.1221C267.007 77.3554 267.046 80.35 267.046 83.1056C267.046 85.8613 267.007 88.8558 266.93 92.0892C266.738 97.1596 265.452 100.815 263.071 103.057C260.728 105.261 256.926 106.364 251.665 106.364H237.955ZM245.227 99.0909H251.591C254.164 99.0909 256.12 99.1253 257.31 97.8761C258.539 96.6269 259.523 94.6454 259.6 92C259.715 88.8769 259.773 85.9375 259.773 83.1818C259.773 80.4261 259.715 77.4867 259.6 74.3636C259.523 71.0935 258.52 68.7945 257.253 67.3983C256.024 65.9653 254.356 65.909 251.591 65.909H245.227V99.0909ZM245.227 58.6363H251.591C254.164 58.6363 256.024 57.9738 257.253 56.5409C258.481 55.1079 259.507 52.8233 259.546 49.8471C259.699 46.6873 259.776 43.7111 259.776 40.9187C259.776 38.1263 259.699 35.1685 259.546 32.0454C259.507 29.5102 258.481 27.7348 257.253 26.559C256.024 25.3833 254.087 25.4545 251.591 25.4545H245.227V58.6363Z" fill="white"/>
<path d="M310.227 106.364V18.1818H324.318C329.351 18.1818 332.892 19.3208 335.117 21.5988C337.378 23.8768 338.791 27.5098 338.864 32.7272C338.973 39.7083 338.8 46.4734 338.836 52.7931C338.873 59.1128 338.873 65.4325 338.836 71.7522C338.8 78.0352 338.973 84.3825 338.864 91.3636C338.791 96.6178 337.378 100.669 335.117 102.947C332.856 105.225 329.191 106.364 324.122 106.364H310.227ZM317.5 99.0909H324.318C326.834 99.0909 328.461 99.1621 329.592 97.9863C330.722 96.7738 331.554 94.8079 331.591 92.2727C331.7 87.239 331.554 82.2697 331.591 77.2727C331.627 72.239 331.616 67.2697 331.616 62.2727C331.616 57.239 331.627 52.2696 331.591 47.2727C331.554 42.239 331.7 37.3064 331.591 32.2727C331.554 29.7375 330.722 27.7348 329.592 26.559C328.461 25.3833 326.762 25.4545 324.318 25.4545H317.5V99.0909Z" fill="white"/>
<path d="M382.046 106.364V18.1818H394.752C399.57 18.1818 404.4 19.5113 406.561 21.7159C408.819 23.6363 410.422 27.62 410.635 32.7272C410.741 35.9973 410.599 38.9155 410.635 41.8181C410.67 44.7208 410.67 47.6988 410.635 50.4545C410.635 53.6363 410.741 55.9174 410.635 58.6363C410.528 62.2003 409.727 65 408.315 67.1846C407.217 69.2789 404.542 70.709 402.239 71.5909L410.635 106.364H403.374L395.659 72.7272H389.306V106.364H382.046ZM389.306 65.909H395.206C397.615 65.909 400.185 65.7149 401.247 64.5392C402.346 63.3634 402.814 61.3988 402.92 58.8636C403.026 55.9609 403.112 53.2034 403.147 50.2272C403.182 47.2143 403.182 44.1124 403.147 41.1363C403.112 38.1602 403.038 35.3217 402.92 32.4999C402.814 29.9647 402.622 28.2212 401.559 27.0454C400.496 25.8696 397.615 25.4545 395.206 25.4545H389.306V65.909Z" fill="white"/>
<path d="M32.4611 106.364C27.6095 106.364 24.1212 105.262 21.9964 103.057C19.907 100.817 18.5436 97.3313 18.4373 92.2727C18.4459 89.3181 18.4459 86.1363 18.4459 83.1818C18.4618 81.0284 18.4459 79.0909 18.4459 76.8181C18.4224 73.5241 18.4381 70.4844 18.4459 67.2727C18.4499 65.6579 18.4459 63.9167 18.4459 62.2727C18.4459 57.3586 18.4105 52.4501 18.4459 47.5C18.4612 45.3466 18.4737 43.0943 18.4459 40.909C18.4094 38.0342 18.3856 35.1672 18.4459 32.2727C18.5168 27.5754 19.8716 24.1075 21.9964 21.7589C24.1566 19.3741 27.9105 18.1818 32.6559 18.1818C37.5075 18.1818 40.7125 19.2838 42.8727 21.4879C45.0329 23.6559 47.2875 27.178 47.4646 32.2727C47.4646 33.1818 47.4646 34.0909 47.4646 35.4545C47.4605 36.1386 47.4646 36.9948 47.4646 37.7272C47.4646 38.195 47.4622 38.647 47.4646 39.0909H40.21C40.2074 38.6603 40.21 38.2114 40.21 37.7272C40.21 37.0116 40.2059 36.0853 40.21 35.4545C40.2176 34.27 40.21 33.409 40.21 32.2727C40.1745 29.7073 39.396 28.3205 38.2981 27.2727C37.2357 26.1887 35.0994 25.4545 32.6559 25.4545C30.3894 25.4545 28.0406 26.1887 27.0136 27.2727C25.9866 28.3205 25.7715 29.7073 25.7006 32.2727V47.0454C25.677 50.4438 25.6928 53.8912 25.7006 57.2727C25.7046 58.9605 25.7006 60.5885 25.7006 62.2727C25.7006 63.9409 25.7046 65.5928 25.7006 67.2727C25.6928 70.6501 25.7006 73.8636 25.7006 77.2727C25.7006 80.6818 25.7161 83.6375 25.7006 86.8181C25.7129 88.4729 25.7006 90.3913 25.7006 92.2727C25.7715 94.7658 25.9866 96.1526 27.0136 97.2727C28.076 98.3567 30.354 99.0909 32.6559 99.0909C35.2057 99.0909 37.1649 98.3567 38.2981 97.2727C39.4314 96.1526 40.1745 94.7658 40.21 92.2727C40.2327 90.998 40.2175 90.1432 40.21 89.0909C40.2057 88.5026 40.21 87.8228 40.21 87.0454C40.21 86.5194 40.2073 85.9883 40.21 85.4545H47.4646C47.4646 87.7272 47.5442 90 47.4646 92.2727C47.2875 97.3313 45.4225 100.817 43.1914 103.057C40.9958 105.262 37.419 106.364 32.4611 106.364Z" fill="white"/>
</svg>
