<svg width="589" height="500" viewBox="0 0 589 500" fill="none" xmlns="http://www.w3.org/2000/svg">
<rect x="288.162" y="386" width="41" height="16" fill="white"/>
<rect x="129.162" y="386" width="41" height="16" fill="white"/>
<rect x="129.162" y="160" width="41" height="16" fill="white"/>
<rect x="199" y="40" width="16" height="194" fill="white"/>
<path d="M331.081 274.5C327.081 271.5 321.081 266 309.581 266C298.081 266 292.581 271 288.081 274.5C283.281 279.38 278 286 278 297V460H294V405C293.92 386.52 293.919 367 294 349C294.036 340.778 294.109 332.568 294.081 325C294.046 315.632 293.992 306.956 294.081 297C294.081 296.774 294.095 296.565 294.121 296.37C294.7 288.337 301.4 282 309.581 282C317.865 282 324.572 288.322 325 296.5C325.013 296.599 324.999 296.884 325 297C325.088 306.956 325.034 315.632 325 325C324.972 332.568 324.964 340.777 325 349C325.08 367.48 325.08 386.52 325 405C324.893 417.411 324.964 429.792 325 442C325.018 448.049 325 454.036 325 460H341C341 451.066 341.004 442.074 341 433C340.991 414.652 340.973 396.106 341 378L341 297C341 286 335.881 279.38 331.081 274.5Z" fill="white"/>
<path d="M172.081 274.5C168.081 271.5 162.081 266 150.581 266C139.081 266 133.581 271 129.081 274.5C124.281 279.38 119 286 119 297V460H135V405C134.92 386.52 134.919 367 135 349C135.036 340.778 135.109 332.568 135.081 325C135.046 315.632 134.992 306.956 135.081 297C135.081 296.774 135.095 296.565 135.121 296.37C135.7 288.337 142.4 282 150.581 282C158.865 282 165.572 288.322 166 296.5C166.013 296.599 165.999 296.884 166 297C166.088 306.956 166.034 315.632 166 325C165.972 332.568 165.964 340.777 166 349C166.08 367.48 166.08 386.52 166 405C165.893 417.411 165.964 429.792 166 442C166.018 448.049 166 454.036 166 460H182C182 451.066 182.004 442.074 182 433C181.991 414.652 181.973 396.106 182 378L182 297C182 286 176.881 279.38 172.081 274.5Z" fill="white"/>
<path d="M172.081 48.5C168.081 45.5 162.081 40 150.581 40C139.081 40 133.581 45 129.081 48.5C124.281 53.38 119 60 119 71V234H135V179C134.92 160.52 134.919 141 135 123C135.036 114.778 135.109 106.568 135.081 99C135.046 89.6321 134.992 80.9565 135.081 71C135.081 70.7743 135.095 70.5647 135.121 70.3699C135.7 62.3371 142.4 56 150.581 56C158.865 56 165.572 62.322 166 70.5C166.013 70.5992 165.999 70.8841 166 71C166.088 80.9561 166.034 89.6325 166 99C165.972 106.568 165.964 114.777 166 123C166.08 141.48 166.08 160.52 166 179C165.893 191.411 165.964 203.792 166 216C166.018 222.049 166 228.036 166 234H182C182 225.066 182.004 216.074 182 207C181.991 188.652 181.973 170.106 182 152L182 71C182 60 176.881 53.38 172.081 48.5Z" fill="white"/>
<path d="M320 225.5C324 228.5 330 234 341.5 234C353 234 358.5 229 363 225.5C367.8 220.62 373 214 373 203L373 40H357V95C357.08 113.48 357.08 132.52 357 151C356.964 159.222 356.992 166.885 357.02 174.453C357.055 183.821 357.088 193.044 357 203C357 203.226 356.986 203.435 356.959 203.63C356.381 211.663 349.68 218 341.5 218C333.215 218 326.449 211.501 326.021 203.323C326.008 203.223 326.001 203.116 326 203C325.911 193.044 325.945 183.822 325.98 174.455C326.008 166.886 326.036 159.223 326 151C325.92 132.52 325.92 113.48 326 95C326.107 82.5892 326.071 70.2321 326.035 58.0244C326.018 51.9757 326 45.9637 326 40H310C310 48.9345 310.004 57.9719 310.009 67.0463C310.018 85.3948 310.027 103.894 310 122V203C310 214 315.2 220.62 320 225.5Z" fill="white"/>
<path d="M282.876 47.6406C283.268 47.9432 283.642 48.2316 284 48.5C288.8 53.38 294 60 294 71V152C293.995 155.652 293.991 159.32 293.988 163H278.049C278.073 149.653 278.057 136.184 278 123C277.964 114.777 277.992 107.114 278.02 99.5455C278.055 90.178 278.089 80.9561 278 71C277.999 70.8841 277.992 70.7767 277.979 70.6775C277.551 62.4995 270.785 56 262.5 56C254.32 56 247.619 62.3371 247.041 70.3699C247.014 70.5647 247 70.7743 247 71C246.912 80.9565 246.945 90.1786 246.98 99.5465C247.008 107.114 247.036 114.778 247 123C246.943 136.184 246.927 149.653 246.951 163H231V71C231 60 236.2 53.38 241 48.5C241.307 48.2616 241.618 48.0162 241.935 47.7659C246.277 44.342 251.784 40 262.5 40C272.971 40 278.882 44.5599 282.876 47.6406Z" fill="white"/>
<path d="M242.124 226.359C241.732 226.057 241.358 225.768 241 225.5C236.2 220.62 231 214 231 203L231 122C231.005 118.348 231.009 114.68 231.012 111H246.951C246.927 124.347 246.943 137.816 247 151C247.036 159.223 247.008 166.886 246.98 174.455C246.945 183.822 246.911 193.044 247 203C247.001 203.116 247.008 203.223 247.021 203.322C247.449 211.501 254.215 218 262.5 218C270.68 218 277.381 211.663 277.959 203.63C277.986 203.435 278 203.226 278 203C278.088 193.044 278.055 183.821 278.02 174.453C277.992 166.886 277.964 159.222 278 151C278.057 137.816 278.073 124.347 278.049 111H294L294 203C294 214 288.8 220.62 284 225.5C283.693 225.738 283.382 225.984 283.065 226.234C278.723 229.658 273.217 234 262.5 234C252.029 234 246.118 229.44 242.124 226.359Z" fill="white"/>
<path d="M487.876 452.359C488.268 452.057 488.642 451.768 489 451.5C493.8 446.62 499 440 499 429L499 348C498.995 344.348 498.991 340.68 498.988 337L483.049 337C483.073 350.347 483.057 363.816 483 377C482.964 385.223 482.992 392.886 483.02 400.455C483.055 409.822 483.089 419.044 483 429C482.999 429.116 482.992 429.223 482.979 429.322C482.551 437.501 475.785 444 467.5 444C459.32 444 452.619 437.663 452.041 429.63C452.014 429.435 452 429.226 452 429C451.912 419.044 451.945 409.821 451.98 400.453C452.008 392.886 452.036 385.222 452 377C451.943 363.816 451.927 350.347 451.951 337L436 337L436 429C436 440 441.2 446.62 446 451.5C446.307 451.738 446.618 451.984 446.935 452.234C451.277 455.658 456.784 460 467.5 460C477.971 460 483.882 455.44 487.876 452.359Z" fill="white"/>
<path d="M447.124 273.641C446.732 273.943 446.358 274.232 446 274.5C441.2 279.38 436 286 436 297L436 378C436.005 381.652 436.009 385.32 436.012 389L451.951 389C451.927 375.653 451.943 362.184 452 349C452.036 340.777 452.008 333.114 451.98 325.545C451.945 316.178 451.911 306.956 452 297C452.001 296.884 452.008 296.777 452.021 296.678C452.449 288.499 459.215 282 467.5 282C475.68 282 482.381 288.337 482.959 296.37C482.986 296.565 483 296.774 483 297C483.088 306.956 483.055 316.179 483.02 325.547C482.992 333.114 482.964 340.778 483 349C483.057 362.184 483.073 375.653 483.049 389L499 389L499 297C499 286 493.8 279.38 489 274.5C488.693 274.262 488.382 274.016 488.065 273.766C483.723 270.342 478.216 266 467.5 266C457.029 266 451.118 270.56 447.124 273.641Z" fill="white"/>
<path fill-rule="evenodd" clip-rule="evenodd" d="M266.182 222.141C267.026 231.375 271.701 237.221 276.048 241.641C276.406 241.909 278.79 243.718 279.182 244.02L277.172 242.5C280.697 245.219 285.669 249.129 294 250V234C288.25 232.673 283.772 227.891 282.445 222.141H266.182Z" fill="white"/>
<path fill-rule="evenodd" clip-rule="evenodd" d="M471.182 277.859C472.026 268.625 476.701 262.779 481.048 258.359C481.406 258.091 483.79 256.282 484.182 255.98L482.172 257.5C485.697 254.781 490.669 250.871 499 250L499 266C493.25 267.327 488.772 272.109 487.445 277.859L471.182 277.859Z" fill="white"/>
<path d="M389 234V40H499V56H405V114H453V130H405V218H499V234H389Z" fill="white"/>
<path d="M40 460V266H70.1624C81.6528 266 90.0172 268.425 95.2555 273.275C100.578 278.125 103.324 286.168 103.493 297.404C103.662 305.487 103.747 312.56 103.747 318.623C103.747 324.685 103.662 330.505 103.493 336.082C103.155 342.872 101.803 348.167 99.4376 351.966C97.072 355.765 93.0693 361.222 88 363C93.2383 364.617 97.3254 369.184 99.6911 373.064C102.141 376.944 103.493 382.279 103.747 389.069C103.916 396.182 104 402.77 104 408.832C104 414.895 103.916 421.483 103.747 428.596C103.324 439.751 100.494 447.794 95.2555 452.725C90.1017 457.575 81.7373 460 70.1624 460H40ZM56 444H70C75.6607 444 79.963 444.076 82.5822 441.327C85.2858 438.579 87.4508 434.22 87.6198 428.4C87.8733 421.529 88 415.062 88 409C88 402.937 87.8733 396.471 87.6198 389.6C87.4508 382.406 85.2436 377.348 82.4554 374.276C79.7518 371.124 76.0832 371 70 371H56V444ZM56 355H70C75.6607 355 79.7518 353.542 82.4554 350.39C85.1591 347.237 87.4155 342.211 87.5 335.664C87.838 328.712 88.0069 322.165 88.0069 316.021C88.0069 309.878 87.838 303.371 87.5 296.5C87.4155 290.923 85.1591 287.017 82.4554 284.43C79.7518 281.843 75.4917 282 70 282H56V355Z" fill="white"/>
<path d="M199 460V266H230C241.072 266 248.862 268.506 253.756 273.517C258.731 278.529 261.84 286.522 262 298C262.241 313.358 261.86 328.242 261.94 342.145C262.02 356.048 262.02 369.952 261.94 383.855C261.86 397.677 262.241 411.642 262 427C261.84 438.559 258.731 447.471 253.756 452.482C248.782 457.494 240.719 460 229.567 460H199ZM215 444H230C235.536 444 239.115 444.157 241.602 441.57C244.089 438.902 245.92 434.578 246 429C246.241 417.926 245.92 406.993 246 396C246.08 384.926 246.054 373.993 246.054 363C246.054 351.926 246.08 340.993 246 330C245.92 318.926 246.241 308.074 246 297C245.92 291.423 244.089 287.017 241.602 284.43C239.115 281.843 235.375 282 230 282H215V444Z" fill="white"/>
<path d="M357 460V266H384.954C395.553 266 406.181 268.925 410.935 273.775C415.903 278 419.428 286.764 419.896 298C420.13 305.194 419.818 311.614 419.896 318C419.974 324.386 419.974 330.937 419.896 337C419.896 344 420.13 349.018 419.896 355C419.662 362.841 417.899 369 414.793 373.806C412.377 378.414 406.493 381.56 401.427 383.5L419.896 460H403.922L386.951 386H372.974V460H357ZM372.974 371H385.952C391.252 371 396.906 370.573 399.244 367.986C401.66 365.4 402.69 361.078 402.924 355.5C403.158 349.114 403.345 343.048 403.423 336.5C403.501 329.872 403.501 323.047 403.423 316.5C403.345 309.953 403.184 303.708 402.924 297.5C402.69 291.923 402.267 288.087 399.929 285.5C397.591 282.913 391.252 282 385.952 282H372.974V371Z" fill="white"/>
<path d="M70.9145 234C60.2409 234 52.5668 231.575 47.8922 226.726C43.2955 221.798 40.296 214.129 40.0622 203C40.0811 196.5 40.0811 189.5 40.0811 183C40.1161 178.263 40.0811 174 40.0811 169C40.0293 161.753 40.0639 155.066 40.0811 148C40.0898 144.448 40.0811 140.617 40.0811 137C40.0811 126.189 40.0032 115.39 40.0811 104.5C40.1148 99.7626 40.1422 94.8076 40.0811 90C40.0007 83.6753 39.9483 77.3679 40.0811 71C40.2369 60.6661 43.2176 53.0367 47.8922 47.8697C52.6447 42.6232 60.9031 40 71.343 40C82.0166 40 89.0675 42.4245 93.82 47.2735C98.5725 52.043 103.533 59.7916 103.922 71C103.922 73 103.922 75 103.922 78C103.913 79.5051 103.922 81.3886 103.922 83C103.922 84.0291 103.917 85.0236 103.922 86H87.962C87.9562 85.0528 87.962 84.0652 87.962 83C87.962 81.4255 87.953 79.3878 87.962 78C87.9789 75.394 87.962 73.5 87.962 71C87.8841 65.3561 86.1712 62.3053 83.756 60C81.4187 57.6152 76.7188 56 71.343 56C66.3568 56 61.1894 57.6152 58.93 60C56.6706 62.3053 56.1973 65.3561 56.0415 71V103.5C55.9895 110.976 56.0241 118.561 56.0415 126C56.0501 129.713 56.0415 133.295 56.0415 137C56.0415 140.67 56.0501 144.304 56.0415 148C56.0241 155.43 56.0415 162.5 56.0415 170C56.0415 177.5 56.0755 184.003 56.0415 191C56.0685 194.641 56.0415 198.861 56.0415 203C56.1973 208.485 56.6706 211.536 58.93 214C61.2673 216.385 66.2789 218 71.343 218C76.9525 218 81.2629 216.385 83.756 214C86.2491 211.536 87.8841 208.485 87.962 203C88.0119 200.196 87.9785 198.315 87.962 196C87.9527 194.706 87.962 193.21 87.962 191.5C87.962 190.343 87.9561 189.174 87.962 188H103.922C103.922 193 104.097 198 103.922 203C103.533 214.129 99.4295 221.798 94.5212 226.726C89.6908 231.575 81.8219 234 70.9145 234Z" fill="white"/>
</svg>
