<svg width="24" height="25" viewBox="0 0 24 25" fill="none" xmlns="http://www.w3.org/2000/svg">
<mask id="mask0_417_254" style="mask-type:alpha" maskUnits="userSpaceOnUse" x="0" y="0" width="24" height="25">
<rect y="0.75" width="24" height="24" fill="#D9D9D9"/>
</mask>
<g mask="url(#mask0_417_254)">
<path d="M12 19.5C11.7833 19.5 11.6043 19.4293 11.463 19.288C11.321 19.146 11.25 18.9667 11.25 18.75V13.5H6C5.78333 13.5 5.60433 13.429 5.463 13.287C5.321 13.1457 5.25 12.9667 5.25 12.75C5.25 12.5333 5.321 12.354 5.463 12.212C5.60433 12.0707 5.78333 12 6 12H11.25V6.75C11.25 6.53333 11.321 6.35433 11.463 6.213C11.6043 6.071 11.7833 6 12 6C12.2167 6 12.396 6.071 12.538 6.213C12.6793 6.35433 12.75 6.53333 12.75 6.75V12H18C18.2167 12 18.396 12.0707 18.538 12.212C18.6793 12.354 18.75 12.5333 18.75 12.75C18.75 12.9667 18.6793 13.1457 18.538 13.287C18.396 13.429 18.2167 13.5 18 13.5H12.75V18.75C12.75 18.9667 12.6793 19.146 12.538 19.288C12.396 19.4293 12.2167 19.5 12 19.5Z" fill="#606060"/>
</g>
</svg>
