<svg width="24" height="25" viewBox="0 0 24 25" fill="none" xmlns="http://www.w3.org/2000/svg">
<mask id="mask0_232_259" style="mask-type:alpha" maskUnits="userSpaceOnUse" x="0" y="0" width="24" height="25">
<rect y="0.75" width="24" height="24" fill="#D9D9D9"/>
</mask>
<g mask="url(#mask0_232_259)">
<path d="M12.2752 20.05C12.4585 19.8667 12.5545 19.6333 12.5632 19.35C12.5712 19.0667 12.4835 18.8333 12.3002 18.65L7.4002 13.75H18.5752C18.8585 13.75 19.0962 13.654 19.2882 13.462C19.4795 13.2707 19.5752 13.0333 19.5752 12.75C19.5752 12.4667 19.4795 12.229 19.2882 12.037C19.0962 11.8457 18.8585 11.75 18.5752 11.75H7.4002L12.3002 6.84999C12.4835 6.66665 12.5712 6.43332 12.5632 6.14999C12.5545 5.86665 12.4585 5.63332 12.2752 5.44999C12.0919 5.26665 11.8585 5.17499 11.5752 5.17499C11.2919 5.17499 11.0585 5.26665 10.8752 5.44999L4.2752 12.05C4.1752 12.1333 4.10419 12.2373 4.06219 12.362C4.02086 12.4873 4.00019 12.6167 4.00019 12.75C4.00019 12.8833 4.02086 13.0083 4.06219 13.125C4.10419 13.2417 4.1752 13.35 4.2752 13.45L10.8752 20.05C11.0585 20.2333 11.2919 20.325 11.5752 20.325C11.8585 20.325 12.0919 20.2333 12.2752 20.05Z" fill="#606060"/>
</g>
</svg>
