<svg width="24" height="24" viewBox="0 0 24 24" fill="none" xmlns="http://www.w3.org/2000/svg">
<mask id="mask0_1279_23133" style="mask-type:alpha" maskUnits="userSpaceOnUse" x="0" y="0" width="24" height="24">
<rect width="24" height="24" fill="#D9D9D9"/>
</mask>
<g mask="url(#mask0_1279_23133)">
<path d="M18.875 12.7C18.6917 12.8833 18.4583 12.9793 18.175 12.988C17.8917 12.996 17.6583 12.9083 17.475 12.725L12.575 7.82502L12.575 19C12.575 19.2833 12.479 19.521 12.287 19.713C12.0957 19.9043 11.8583 20 11.575 20C11.2917 20 11.054 19.9043 10.862 19.713C10.6707 19.521 10.575 19.2833 10.575 19L10.575 7.82502L5.675 12.725C5.49167 12.9083 5.25833 12.996 4.975 12.988C4.69167 12.9793 4.45833 12.8833 4.275 12.7C4.09167 12.5167 4 12.2833 4 12C4 11.7167 4.09167 11.4833 4.275 11.3L10.875 4.70002C10.9583 4.60002 11.0623 4.52901 11.187 4.48701C11.3123 4.44568 11.4417 4.42501 11.575 4.42501C11.7083 4.42501 11.8333 4.44568 11.95 4.48701C12.0667 4.52901 12.175 4.60002 12.275 4.70002L18.875 11.3C19.0583 11.4833 19.15 11.7167 19.15 12C19.15 12.2833 19.0583 12.5167 18.875 12.7Z" fill="#FCFCFC"/>
</g>
</svg>
