<svg width="24" height="24" viewBox="0 0 24 24" fill="none" xmlns="http://www.w3.org/2000/svg">
<mask id="mask0_1279_23132" style="mask-type:alpha" maskUnits="userSpaceOnUse" x="0" y="0" width="24" height="24">
<rect width="24" height="24" fill="#D9D9D9"/>
</mask>
<g mask="url(#mask0_1279_23132)">
<path d="M12.2752 19.3C12.4585 19.1167 12.5545 18.8833 12.5632 18.6C12.5712 18.3167 12.4835 18.0833 12.3002 17.9L7.4002 13H18.5752C18.8585 13 19.0962 12.904 19.2882 12.712C19.4795 12.5207 19.5752 12.2833 19.5752 12C19.5752 11.7167 19.4795 11.479 19.2882 11.287C19.0962 11.0957 18.8585 11 18.5752 11H7.4002L12.3002 6.1C12.4835 5.91667 12.5712 5.68334 12.5632 5.4C12.5545 5.11667 12.4585 4.88334 12.2752 4.7C12.0919 4.51667 11.8585 4.425 11.5752 4.425C11.2919 4.425 11.0585 4.51667 10.8752 4.7L4.2752 11.3C4.1752 11.3833 4.10419 11.4873 4.06219 11.612C4.02086 11.7373 4.00019 11.8667 4.00019 12C4.00019 12.1333 4.02086 12.2583 4.06219 12.375C4.10419 12.4917 4.1752 12.6 4.2752 12.7L10.8752 19.3C11.0585 19.4833 11.2919 19.575 11.5752 19.575C11.8585 19.575 12.0919 19.4833 12.2752 19.3Z" fill="#FCFCFC"/>
</g>
</svg>
