<svg width="24" height="25" viewBox="0 0 24 25" fill="none" xmlns="http://www.w3.org/2000/svg">
<mask id="mask0_223_243" style="mask-type:alpha" maskUnits="userSpaceOnUse" x="0" y="0" width="24" height="25">
<rect y="0.75" width="24" height="24" fill="#D9D9D9"/>
</mask>
<g mask="url(#mask0_223_243)">
<path d="M11.3 20.05C11.1167 19.8667 11.0207 19.6333 11.012 19.35C11.004 19.0667 11.0917 18.8333 11.275 18.65L16.175 13.75H5C4.71667 13.75 4.479 13.654 4.287 13.462C4.09567 13.2707 4 13.0333 4 12.75C4 12.4667 4.09567 12.229 4.287 12.037C4.479 11.8457 4.71667 11.75 5 11.75H16.175L11.275 6.84999C11.0917 6.66665 11.004 6.43332 11.012 6.14999C11.0207 5.86665 11.1167 5.63332 11.3 5.44999C11.4833 5.26665 11.7167 5.17499 12 5.17499C12.2833 5.17499 12.5167 5.26665 12.7 5.44999L19.3 12.05C19.4 12.1333 19.471 12.2373 19.513 12.362C19.5543 12.4873 19.575 12.6167 19.575 12.75C19.575 12.8833 19.5543 13.0083 19.513 13.125C19.471 13.2417 19.4 13.35 19.3 13.45L12.7 20.05C12.5167 20.2333 12.2833 20.325 12 20.325C11.7167 20.325 11.4833 20.2333 11.3 20.05Z" fill="#606060"/>
</g>
</svg>
