<svg width="24" height="25" viewBox="0 0 24 25" fill="none" xmlns="http://www.w3.org/2000/svg">
<mask id="mask0_232_258" style="mask-type:alpha" maskUnits="userSpaceOnUse" x="0" y="0" width="24" height="25">
<rect y="0.75" width="24" height="24" fill="#D9D9D9"/>
</mask>
<g mask="url(#mask0_232_258)">
<path d="M18.875 13.45C18.6917 13.6333 18.4583 13.7293 18.175 13.738C17.8917 13.746 17.6583 13.6583 17.475 13.475L12.575 8.575L12.575 19.75C12.575 20.0333 12.479 20.271 12.287 20.463C12.0957 20.6543 11.8583 20.75 11.575 20.75C11.2917 20.75 11.054 20.6543 10.862 20.463C10.6707 20.271 10.575 20.0333 10.575 19.75L10.575 8.575L5.675 13.475C5.49167 13.6583 5.25833 13.746 4.975 13.738C4.69167 13.7293 4.45833 13.6333 4.275 13.45C4.09167 13.2667 4 13.0333 4 12.75C4 12.4667 4.09167 12.2333 4.275 12.05L10.875 5.45C10.9583 5.35 11.0623 5.279 11.187 5.237C11.3123 5.19567 11.4417 5.175 11.575 5.175C11.7083 5.175 11.8333 5.19567 11.95 5.237C12.0667 5.279 12.175 5.35 12.275 5.45L18.875 12.05C19.0583 12.2333 19.15 12.4667 19.15 12.75C19.15 13.0333 19.0583 13.2667 18.875 13.45Z" fill="#606060"/>
</g>
</svg>
