<svg width="24" height="25" viewBox="0 0 24 25" fill="none" xmlns="http://www.w3.org/2000/svg">
<mask id="mask0_232_257" style="mask-type:alpha" maskUnits="userSpaceOnUse" x="0" y="0" width="24" height="25">
<rect y="0.75" width="24" height="24" fill="#D9D9D9"/>
</mask>
<g mask="url(#mask0_232_257)">
<path d="M4.48731 12.2625C4.67064 12.0791 4.90397 11.9831 5.1873 11.9745C5.47064 11.9665 5.70397 12.0541 5.8873 12.2375L10.7873 17.1375L10.7873 5.96246C10.7873 5.67913 10.8833 5.44146 11.0753 5.24946C11.2666 5.05813 11.504 4.96246 11.7873 4.96246C12.0706 4.96246 12.3083 5.05813 12.5003 5.24946C12.6916 5.44146 12.7873 5.67913 12.7873 5.96246L12.7873 17.1375L17.6873 12.2375C17.8706 12.0541 18.104 11.9665 18.3873 11.9745C18.6706 11.9831 18.904 12.0791 19.0873 12.2625C19.2706 12.4458 19.3623 12.6791 19.3623 12.9625C19.3623 13.2458 19.2706 13.4791 19.0873 13.6625L12.4873 20.2625C12.404 20.3625 12.3 20.4335 12.1753 20.4755C12.05 20.5168 11.9206 20.5375 11.7873 20.5375C11.654 20.5375 11.529 20.5168 11.4123 20.4755C11.2956 20.4335 11.1873 20.3625 11.0873 20.2625L4.48731 13.6625C4.30397 13.4791 4.2123 13.2458 4.2123 12.9625C4.2123 12.6791 4.30397 12.4458 4.48731 12.2625Z" fill="#606060"/>
</g>
</svg>
