<svg width="24" height="24" viewBox="0 0 24 24" fill="none" xmlns="http://www.w3.org/2000/svg">
<mask id="mask0_1279_23134" style="mask-type:alpha" maskUnits="userSpaceOnUse" x="0" y="0" width="24" height="24">
<rect width="24" height="24" fill="#D9D9D9"/>
</mask>
<g mask="url(#mask0_1279_23134)">
<path d="M4.48731 11.5125C4.67064 11.3292 4.90397 11.2332 5.1873 11.2245C5.47064 11.2165 5.70397 11.3042 5.8873 11.4875L10.7873 16.3875L10.7873 5.21249C10.7873 4.92916 10.8833 4.69149 11.0753 4.49949C11.2666 4.30816 11.504 4.21249 11.7873 4.21249C12.0706 4.21249 12.3083 4.30816 12.5003 4.49949C12.6916 4.69149 12.7873 4.92916 12.7873 5.21249L12.7873 16.3875L17.6873 11.4875C17.8706 11.3042 18.104 11.2165 18.3873 11.2245C18.6706 11.2332 18.904 11.3292 19.0873 11.5125C19.2706 11.6958 19.3623 11.9292 19.3623 12.2125C19.3623 12.4958 19.2706 12.7292 19.0873 12.9125L12.4873 19.5125C12.404 19.6125 12.3 19.6835 12.1753 19.7255C12.05 19.7668 11.9206 19.7875 11.7873 19.7875C11.654 19.7875 11.529 19.7668 11.4123 19.7255C11.2956 19.6835 11.1873 19.6125 11.0873 19.5125L4.48731 12.9125C4.30397 12.7292 4.2123 12.4958 4.2123 12.2125C4.2123 11.9292 4.30397 11.6958 4.48731 11.5125Z" fill="#FCFCFC"/>
</g>
</svg>
