<svg width="24" height="24" viewBox="0 0 24 24" fill="none" xmlns="http://www.w3.org/2000/svg">
<mask id="mask0_1279_23058" style="mask-type:alpha" maskUnits="userSpaceOnUse" x="0" y="0" width="24" height="24">
<rect width="24" height="24" fill="#D9D9D9"/>
</mask>
<g mask="url(#mask0_1279_23058)">
<path d="M15.1419 19.5L13.2653 21.3576C12.9184 21.7025 12.4962 21.8749 11.9985 21.8749C11.5007 21.8749 11.0794 21.7025 10.7346 21.3576L8.85795 19.5H6.30768C5.81056 19.5 5.385 19.323 5.031 18.9689C4.67698 18.6149 4.49998 18.1894 4.49998 17.6923V15.142L2.6423 13.2654C2.29743 12.9185 2.125 12.4962 2.125 11.9985C2.125 11.5008 2.29743 11.0795 2.6423 10.7346L4.49998 8.858V6.30772C4.49998 5.8106 4.67698 5.38505 5.031 5.03105C5.385 4.67703 5.81056 4.50002 6.30768 4.50002H8.85795L10.7346 2.64234C11.0815 2.29748 11.5037 2.12505 12.0014 2.12505C12.4992 2.12505 12.9205 2.29748 13.2653 2.64234L15.1419 4.50002H17.6922C18.1893 4.50002 18.6149 4.67703 18.9689 5.03105C19.3229 5.38505 19.4999 5.8106 19.4999 6.30772V8.858L21.3576 10.7346C21.7025 11.0815 21.8749 11.5038 21.8749 12.0015C21.8749 12.4992 21.7025 12.9205 21.3576 13.2654L19.4999 15.142V17.6923C19.4999 18.1894 19.3229 18.6149 18.9689 18.9689C18.6149 19.323 18.1893 19.5 17.6922 19.5H15.1419ZM11.9999 20.5L14.4999 18H17.9999V14.5L20.5 12L17.9999 9.5V6H14.4999L11.9999 3.5L9.49995 6H5.99995V9.5L3.49995 12L5.99995 14.5V18H9.49995L11.9999 20.5ZM11.9999 14.2634L13.775 15.3461C13.9391 15.45 14.1047 15.4442 14.272 15.3288C14.4393 15.2134 14.5012 15.057 14.4576 14.8596L13.9865 12.8288L15.5691 11.4623C15.7243 11.3233 15.7701 11.1609 15.7066 10.975C15.6432 10.7891 15.5076 10.6878 15.2999 10.6711L13.2288 10.4961L12.4115 8.5904C12.3354 8.40963 12.1984 8.31925 12.0006 8.31925C11.8027 8.31925 11.6653 8.40963 11.5884 8.5904L10.7711 10.4961L8.69998 10.6711C8.49228 10.6878 8.3567 10.7891 8.29325 10.975C8.22978 11.1609 8.27563 11.3233 8.4308 11.4623L10.0134 12.8288L9.54227 14.8596C9.49869 15.057 9.56055 15.2134 9.72785 15.3288C9.89515 15.4442 10.0608 15.45 10.2249 15.3461L11.9999 14.2634Z" fill="#FCFCFC"/>
</g>
</svg>
