<svg width="24" height="24" viewBox="0 0 24 24" fill="none" xmlns="http://www.w3.org/2000/svg">
<mask id="mask0_1308_23050" style="mask-type:alpha" maskUnits="userSpaceOnUse" x="0" y="0" width="24" height="24">
<rect width="24" height="24" fill="#D9D9D9"/>
</mask>
<g mask="url(#mask0_1308_23050)">
<path d="M10.9516 17.75C9.87597 17.75 8.87597 17.5506 7.95162 17.1519C7.02725 16.7532 6.21828 16.2083 5.52469 15.5173C5.36956 15.3724 5.29552 15.1981 5.30257 14.9942C5.30962 14.7904 5.39584 14.616 5.56122 14.4712C5.7266 14.3327 5.9157 14.2708 6.12852 14.2856C6.34134 14.3003 6.53044 14.3801 6.69582 14.525C7.2612 15.0673 7.90287 15.4904 8.62082 15.7943C9.33877 16.0981 10.1157 16.25 10.9516 16.25C12.6824 16.25 14.1567 15.6411 15.3747 14.4231C16.5927 13.2051 17.2016 11.7308 17.2016 10C17.2016 8.26924 16.5927 6.79487 15.3747 5.57691C14.1567 4.35896 12.6824 3.74998 10.9516 3.74998C9.4593 3.74998 8.14872 4.21473 7.01987 5.14423C5.89102 6.07373 5.17403 7.24105 4.86889 8.64618C4.80479 8.87181 4.69647 9.07053 4.54392 9.24233C4.39135 9.41411 4.20225 9.50001 3.97662 9.50001C3.75739 9.50001 3.58271 9.40674 3.45259 9.22021C3.32246 9.03367 3.28432 8.82759 3.33817 8.60196C3.67022 6.78144 4.54265 5.26766 5.95547 4.06061C7.36829 2.85356 9.03367 2.25003 10.9516 2.25003C13.1144 2.25003 14.9468 3.00099 16.4487 4.50291C17.9506 6.00482 18.7016 7.83719 18.7016 10C18.7016 10.959 18.5468 11.8414 18.2372 12.6471C17.9276 13.4529 17.4901 14.2103 16.9247 14.9192L21.367 19.3616C21.5119 19.5064 21.5827 19.6821 21.5795 19.8885C21.5763 20.0949 21.5055 20.2705 21.367 20.4154C21.2221 20.5603 21.0449 20.6327 20.8353 20.6327C20.6257 20.6327 20.4484 20.5603 20.3036 20.4154L15.8612 15.9731C15.1523 16.5384 14.3965 16.9759 13.5939 17.2856C12.7914 17.5952 11.9106 17.75 10.9516 17.75ZM10.617 11.8693L11.6958 8.55193C11.7394 8.43783 11.809 8.34296 11.9045 8.26733C12 8.19168 12.11 8.15386 12.2343 8.15386H12.7478C12.8619 8.15386 12.9625 8.18078 13.0497 8.23463C13.1369 8.28848 13.2074 8.36732 13.2612 8.47116L14.6054 11.1539H14.7978C14.9696 11.1539 15.1119 11.2103 15.2247 11.3231C15.3375 11.4359 15.3939 11.5782 15.3939 11.75C15.3939 11.9218 15.3375 12.0641 15.2247 12.1769C15.1119 12.2897 14.9696 12.3462 14.7978 12.3462H14.2516C14.1439 12.3462 14.0404 12.3167 13.941 12.2577C13.8417 12.1987 13.7651 12.1154 13.7112 12.0077L12.5728 9.74613L11.367 13.4385C11.3234 13.5628 11.2513 13.6619 11.1506 13.7356C11.05 13.8093 10.9375 13.8462 10.8131 13.8462H10.4305C10.2997 13.8462 10.1814 13.8067 10.0757 13.7279C9.9699 13.649 9.89522 13.5474 9.85162 13.4231L8.31122 8.30958L7.03237 11.9519C6.98879 12.0763 6.91892 12.1731 6.82277 12.2423C6.72662 12.3115 6.61124 12.3462 6.47662 12.3462H2.70162C2.52982 12.3462 2.38751 12.2897 2.27469 12.1769C2.16188 12.0641 2.10547 11.9218 2.10547 11.75C2.10547 11.5782 2.16189 11.4359 2.27472 11.3231C2.38752 11.2103 2.52982 11.1539 2.70162 11.1539H6.05739L7.56124 6.81156C7.60483 6.68719 7.6795 6.58815 7.78527 6.51443C7.89104 6.44072 8.0093 6.40386 8.14007 6.40386H8.53814C8.67918 6.40386 8.80001 6.44585 8.90064 6.52983C9.00128 6.6138 9.07339 6.72117 9.11699 6.85193L10.617 11.8693Z" fill="#606060"/>
</g>
</svg>
