<svg width="24" height="25" viewBox="0 0 24 25" fill="none" xmlns="http://www.w3.org/2000/svg">
<mask id="mask0_404_289" style="mask-type:alpha" maskUnits="userSpaceOnUse" x="0" y="0" width="24" height="25">
<rect y="0.5" width="24" height="24" fill="#D9D9D9"/>
</mask>
<g mask="url(#mask0_404_289)">
<path d="M8.5 7V5.3C8.5 4.8 8.675 4.375 9.025 4.025C9.375 3.675 9.8 3.5 10.3 3.5H13.7C14.2 3.5 14.625 3.675 14.975 4.025C15.325 4.375 15.5 4.8 15.5 5.3V7H19.7C20.2 7 20.625 7.175 20.975 7.525C21.325 7.875 21.5 8.3 21.5 8.8V19.2C21.5 19.7 21.325 20.125 20.975 20.475C20.625 20.825 20.2 21 19.7 21H4.3C3.8 21 3.375 20.825 3.025 20.475C2.675 20.125 2.5 19.7 2.5 19.2V8.8C2.5 8.3 2.675 7.875 3.025 7.525C3.375 7.175 3.8 7 4.3 7H8.5ZM10 7H14V5.3C14 5.23333 13.9667 5.16667 13.9 5.1C13.8333 5.03333 13.7667 5 13.7 5H10.3C10.2333 5 10.1667 5.03333 10.1 5.1C10.0333 5.16667 10 5.23333 10 5.3V7ZM20 15.25H14.5V16.1C14.5 16.35 14.4127 16.5627 14.238 16.738C14.0627 16.9127 13.85 17 13.6 17H10.4C10.15 17 9.93733 16.9127 9.762 16.738C9.58733 16.5627 9.5 16.35 9.5 16.1V15.25H4V19.2C4 19.2667 4.03333 19.3333 4.1 19.4C4.16667 19.4667 4.23333 19.5 4.3 19.5H19.7C19.7667 19.5 19.8333 19.4667 19.9 19.4C19.9667 19.3333 20 19.2667 20 19.2V15.25ZM11 15.5H13V13.5H11V15.5ZM4 13.75H9.5V12.9C9.5 12.65 9.58733 12.4373 9.762 12.262C9.93733 12.0873 10.15 12 10.4 12H13.6C13.85 12 14.0627 12.0873 14.238 12.262C14.4127 12.4373 14.5 12.65 14.5 12.9V13.75H20V8.8C20 8.73333 19.9667 8.66667 19.9 8.6C19.8333 8.53333 19.7667 8.5 19.7 8.5H4.3C4.23333 8.5 4.16667 8.53333 4.1 8.6C4.03333 8.66667 4 8.73333 4 8.8V13.75Z" fill="#606060"/>
</g>
</svg>
