<svg width="25" height="25" viewBox="0 0 25 25" fill="none" xmlns="http://www.w3.org/2000/svg">
<mask id="mask0_410_262" style="mask-type:alpha" maskUnits="userSpaceOnUse" x="0" y="0" width="25" height="25">
<rect x="0.400391" y="0.5" width="24" height="24" fill="#D9D9D9"/>
</mask>
<g mask="url(#mask0_410_262)">
<path d="M5.70039 22C5.20039 22 4.77539 21.825 4.42539 21.475C4.07539 21.125 3.90039 20.7 3.90039 20.2V6.8C3.90039 6.3 4.07539 5.875 4.42539 5.525C4.77539 5.175 5.20039 5 5.70039 5H7.10039V3.625C7.10039 3.40833 7.17106 3.229 7.31239 3.087C7.45439 2.94567 7.63372 2.875 7.85039 2.875C8.08372 2.875 8.27106 2.95 8.41239 3.1C8.55439 3.25 8.62539 3.43333 8.62539 3.65V5H16.2004V3.6C16.2004 3.4 16.2754 3.229 16.4254 3.087C16.5754 2.94567 16.7504 2.875 16.9504 2.875C17.1671 2.875 17.3461 2.95 17.4874 3.1C17.6294 3.25 17.7004 3.425 17.7004 3.625V5H19.1004C19.6004 5 20.0254 5.175 20.3754 5.525C20.7254 5.875 20.9004 6.3 20.9004 6.8V20.2C20.9004 20.7 20.7254 21.125 20.3754 21.475C20.0254 21.825 19.6004 22 19.1004 22H5.70039ZM5.70039 20.5H19.1004C19.1837 20.5 19.2547 20.471 19.3134 20.413C19.3714 20.3543 19.4004 20.2833 19.4004 20.2V10.8H5.40039V20.2C5.40039 20.2833 5.42972 20.3543 5.48839 20.413C5.54639 20.471 5.61706 20.5 5.70039 20.5ZM5.40039 9.3H19.4004V6.8C19.4004 6.71667 19.3714 6.646 19.3134 6.588C19.2547 6.52933 19.1837 6.5 19.1004 6.5H5.70039C5.61706 6.5 5.54639 6.52933 5.48839 6.588C5.42972 6.646 5.40039 6.71667 5.40039 6.8V9.3Z" fill="#606060"/>
</g>
</svg>
