<svg width="24" height="25" viewBox="0 0 24 25" fill="none" xmlns="http://www.w3.org/2000/svg">
<mask id="mask0_1144_3321" style="mask-type:alpha" maskUnits="userSpaceOnUse" x="0" y="0" width="24" height="25">
<rect y="0.5" width="24" height="24" fill="#D9D9D9"/>
</mask>
<g mask="url(#mask0_1144_3321)">
<path d="M11.5557 17.9807C10.1288 17.8589 8.92948 17.2775 7.9577 16.2365C6.9859 15.1955 6.5 13.95 6.5 12.5C6.5 10.9722 7.03473 9.67364 8.10418 8.60421C9.17361 7.53476 10.4722 7.00003 12 7.00003C13.45 7.00003 14.6955 7.48432 15.7365 8.45291C16.7775 9.42149 17.3589 10.6192 17.4807 12.0462L15.8904 11.575C15.6742 10.675 15.2087 9.93751 14.4938 9.36251C13.7789 8.78751 12.9476 8.50001 12 8.50001C10.9 8.50001 9.95831 8.89167 9.17498 9.67501C8.39164 10.4583 7.99998 11.4 7.99998 12.5C7.99998 13.45 8.28908 14.2833 8.86728 15C9.44549 15.7167 10.1814 16.1833 11.075 16.4L11.5557 17.9807ZM12 22C10.6858 22 9.45082 21.7506 8.295 21.252C7.13917 20.7533 6.13375 20.0766 5.27875 19.2217C4.42375 18.3669 3.74688 17.3616 3.24812 16.206C2.74937 15.0504 2.5 13.8156 2.5 12.5017C2.5 11.1877 2.74933 9.95271 3.248 8.79658C3.74667 7.64043 4.42342 6.63475 5.27825 5.77953C6.1331 4.9243 7.13834 4.24724 8.29398 3.74836C9.44959 3.24947 10.6844 3.00003 11.9983 3.00003C13.3122 3.00003 14.5473 3.24941 15.7034 3.74816C16.8596 4.24691 17.8652 4.92378 18.7205 5.77878C19.5757 6.63378 20.2527 7.6392 20.7516 8.79503C21.2505 9.95085 21.5 11.1858 21.5 12.5V12.8731C21.5 12.9974 21.4865 13.1218 21.4596 13.2462L20 12.8V12.5C20 10.2667 19.225 8.37501 17.675 6.82501C16.125 5.27501 14.2333 4.50001 12 4.50001C9.76664 4.50001 7.87498 5.27501 6.32498 6.82501C4.77498 8.37501 3.99998 10.2667 3.99998 12.5C3.99998 14.7333 4.77498 16.625 6.32498 18.175C7.87498 19.725 9.76664 20.5 12 20.5H12.3L12.7557 21.9596C12.6298 21.9865 12.5038 22 12.3779 22H12ZM19.8192 21.823L15.6057 17.5999L14.9807 19.4999C14.9022 19.714 14.7531 19.8169 14.5334 19.8086C14.3137 19.8002 14.1685 19.689 14.098 19.4749L12.2558 13.3327C12.2019 13.1622 12.242 13.0099 12.3759 12.876C12.5099 12.742 12.6622 12.7019 12.8327 12.7558L18.9749 14.5981C19.189 14.6686 19.3002 14.8137 19.3085 15.0334C19.3169 15.2532 19.214 15.4023 18.9999 15.4807L17.0999 16.1057L21.323 20.3192C21.4166 20.4105 21.4634 20.5169 21.4634 20.6386C21.4634 20.7603 21.4166 20.8679 21.323 20.9615L20.4615 21.823C20.3702 21.9166 20.2638 21.9634 20.1421 21.9634C20.0204 21.9634 19.9128 21.9166 19.8192 21.823Z" fill="#606060"/>
</g>
</svg>
