<svg width="24" height="24" viewBox="0 0 24 24" fill="none" xmlns="http://www.w3.org/2000/svg">
<mask id="mask0_1279_23047" style="mask-type:alpha" maskUnits="userSpaceOnUse" x="0" y="0" width="24" height="24">
<rect width="24" height="24" fill="#D9D9D9"/>
</mask>
<g mask="url(#mask0_1279_23047)">
<path d="M11.5557 17.4807C10.1288 17.3589 8.92948 16.7775 7.9577 15.7365C6.9859 14.6955 6.5 13.45 6.5 12C6.5 10.4722 7.03472 9.17364 8.10418 8.10421C9.17361 7.03476 10.4722 6.50003 12 6.50003C13.45 6.50003 14.6955 6.98432 15.7365 7.95291C16.7775 8.92149 17.3589 10.1192 17.4807 11.5462L15.8904 11.075C15.6742 10.175 15.2087 9.43751 14.4938 8.86251C13.7789 8.28751 12.9476 8.00001 12 8.00001C10.9 8.00001 9.95831 8.39167 9.17498 9.17501C8.39164 9.95834 7.99998 10.9 7.99998 12C7.99998 12.95 8.28908 13.7833 8.86728 14.5C9.44549 15.2167 10.1814 15.6833 11.075 15.9L11.5557 17.4807ZM12 21.5C10.6858 21.5 9.45082 21.2506 8.295 20.752C7.13917 20.2533 6.13375 19.5766 5.27875 18.7217C4.42375 17.8669 3.74688 16.8616 3.24812 15.706C2.74937 14.5504 2.5 13.3156 2.5 12.0017C2.5 10.6877 2.74933 9.45271 3.248 8.29658C3.74667 7.14043 4.42342 6.13475 5.27825 5.27953C6.1331 4.4243 7.13834 3.74724 8.29398 3.24836C9.44959 2.74947 10.6844 2.50003 11.9983 2.50003C13.3122 2.50003 14.5473 2.74941 15.7034 3.24816C16.8596 3.74691 17.8652 4.42378 18.7205 5.27878C19.5757 6.13378 20.2527 7.1392 20.7516 8.29503C21.2505 9.45085 21.5 10.6858 21.5 12V12.3731C21.5 12.4974 21.4865 12.6218 21.4596 12.7462L20 12.3V12C20 9.76667 19.225 7.87501 17.675 6.32501C16.125 4.77501 14.2333 4.00001 12 4.00001C9.76664 4.00001 7.87498 4.77501 6.32498 6.32501C4.77498 7.87501 3.99998 9.76667 3.99998 12C3.99998 14.2333 4.77498 16.125 6.32498 17.675C7.87498 19.225 9.76664 20 12 20H12.3L12.7557 21.4596C12.6298 21.4865 12.5038 21.5 12.3779 21.5H12ZM19.8192 21.323L15.6057 17.0999L14.9807 18.9999C14.9022 19.214 14.7531 19.3169 14.5334 19.3086C14.3137 19.3002 14.1685 19.189 14.098 18.9749L12.2558 12.8327C12.2019 12.6622 12.242 12.5099 12.3759 12.376C12.5099 12.242 12.6622 12.2019 12.8327 12.2558L18.9749 14.0981C19.189 14.1686 19.3002 14.3137 19.3085 14.5334C19.3169 14.7532 19.214 14.9023 18.9999 14.9807L17.0999 15.6057L21.323 19.8192C21.4166 19.9105 21.4634 20.0169 21.4634 20.1386C21.4634 20.2603 21.4166 20.3679 21.323 20.4615L20.4615 21.323C20.3702 21.4166 20.2638 21.4634 20.1421 21.4634C20.0204 21.4634 19.9128 21.4166 19.8192 21.323Z" fill="#FCFCFC"/>
</g>
</svg>
