<svg width="24" height="25" viewBox="0 0 24 25" fill="none" xmlns="http://www.w3.org/2000/svg">
<path d="M12 13.9534L6.03802 19.9154C5.81496 20.1385 5.53105 20.25 5.18631 20.25C4.84157 20.25 4.55767 20.1385 4.3346 19.9154C4.11153 19.6923 4 19.4084 4 19.0637C4 18.7189 4.11153 18.435 4.3346 18.212L10.2966 12.25L4.3346 6.28802C4.11153 6.06496 4 5.78105 4 5.43631C4 5.09157 4.11153 4.80767 4.3346 4.5846C4.55767 4.36153 4.84157 4.25 5.18631 4.25C5.53105 4.25 5.81496 4.36153 6.03802 4.5846L12 10.5466L17.962 4.5846C18.185 4.36153 18.4689 4.25 18.8137 4.25C19.1584 4.25 19.4423 4.36153 19.6654 4.5846C19.8885 4.80767 20 5.09157 20 5.43631C20 5.78105 19.8885 6.06496 19.6654 6.28802L13.7034 12.25L19.6654 18.212C19.8885 18.435 20 18.7189 20 19.0637C20 19.4084 19.8885 19.6923 19.6654 19.9154C19.4423 20.1385 19.1584 20.25 18.8137 20.25C18.4689 20.25 18.185 20.1385 17.962 19.9154L12 13.9534Z" fill="#606060"/>
</svg>
