<svg width="32" height="33" viewBox="0 0 32 33" fill="none" xmlns="http://www.w3.org/2000/svg">
<mask id="mask0_1184_3881" style="mask-type:alpha" maskUnits="userSpaceOnUse" x="0" y="0" width="32" height="33">
<rect y="0.5" width="32" height="32" fill="#D9D9D9"/>
</mask>
<g mask="url(#mask0_1184_3881)">
<path d="M6.74422 27.8333C6.07071 27.8333 5.50063 27.6 5.03398 27.1333C4.56732 26.6666 4.33398 26.0965 4.33398 25.423V5.49997C4.33398 5.21666 4.42985 4.97917 4.62158 4.7875C4.81334 4.59583 5.05094 4.5 5.33438 4.5C5.61785 4.5 5.85531 4.59583 6.04675 4.7875C6.2382 4.97917 6.33392 5.21666 6.33392 5.49997V25.423C6.33392 25.5256 6.37666 25.6196 6.46215 25.7051C6.54762 25.7906 6.64164 25.8333 6.74422 25.8333H26.6673C26.9506 25.8333 27.1881 25.9292 27.3798 26.121C27.5714 26.3127 27.6673 26.5503 27.6673 26.8338C27.6673 27.1172 27.5714 27.3547 27.3798 27.5461C27.1881 27.7376 26.9506 27.8333 26.6673 27.8333H6.74422ZM10.0776 23.4999C9.75067 23.4999 9.47664 23.3894 9.25548 23.1682C9.03433 22.947 8.92375 22.673 8.92375 22.3461V13.782C8.92375 13.4551 9.03433 13.1811 9.25548 12.9599C9.47664 12.7388 9.75067 12.6282 10.0776 12.6282H11.7186C12.06 12.6282 12.3462 12.744 12.5772 12.9757C12.8082 13.2073 12.9237 13.4943 12.9237 13.8368V22.2966C12.9237 22.639 12.8082 22.9252 12.5772 23.1551C12.3462 23.385 12.06 23.4999 11.7186 23.4999H10.0776ZM16.4109 23.4999C16.084 23.4999 15.8099 23.3894 15.5888 23.1682C15.3677 22.947 15.2571 22.673 15.2571 22.3461V7.16667C15.2571 6.82522 15.3726 6.53901 15.6036 6.30803C15.8345 6.07703 16.1207 5.96153 16.4622 5.96153H18.1032C18.4301 5.96153 18.7041 6.07211 18.9253 6.29327C19.1464 6.51442 19.257 6.78846 19.257 7.11537V22.2948C19.257 22.6363 19.1415 22.9225 18.9105 23.1535C18.6795 23.3844 18.3933 23.4999 18.0519 23.4999H16.4109ZM22.7442 23.4999C22.4173 23.4999 22.1433 23.3894 21.9221 23.1682C21.701 22.947 21.5904 22.673 21.5904 22.3461V19.1667C21.5904 18.8252 21.7059 18.539 21.9369 18.308C22.1678 18.077 22.454 17.9615 22.7955 17.9615H24.4365C24.7634 17.9615 25.0374 18.0721 25.2586 18.2933C25.4797 18.5144 25.5903 18.7885 25.5903 19.1154V22.2948C25.5903 22.6363 25.4748 22.9225 25.2438 23.1535C25.0128 23.3844 24.7266 23.4999 24.3852 23.4999H22.7442Z" fill="#606060"/>
</g>
</svg>
