<svg width="24" height="25" viewBox="0 0 24 25" fill="none" xmlns="http://www.w3.org/2000/svg">
<mask id="mask0_1224_98822" style="mask-type:alpha" maskUnits="userSpaceOnUse" x="0" y="0" width="24" height="25">
<rect y="0.5" width="24" height="24" fill="#D9D9D9"/>
</mask>
<g mask="url(#mask0_1224_98822)">
<path d="M10.5 19.5V17.5H4.3077C3.80257 17.5 3.375 17.325 3.025 16.975C2.675 16.625 2.5 16.1974 2.5 15.6923V5.80773C2.5 5.3026 2.675 4.87503 3.025 4.52503C3.375 4.17503 3.80257 4.00003 4.3077 4.00003H19.6923C20.1974 4.00003 20.625 4.17503 20.975 4.52503C21.325 4.87503 21.5 5.3026 21.5 5.80773V15.6923C21.5 16.1974 21.325 16.625 20.975 16.975C20.625 17.325 20.1974 17.5 19.6923 17.5H13.5V19.5H14.75C14.9628 19.5 15.141 19.5718 15.2846 19.7154C15.4282 19.859 15.5 20.0372 15.5 20.25C15.5 20.4628 15.4282 20.641 15.2846 20.7846C15.141 20.9282 14.9628 21 14.75 21H9.25C9.03718 21 8.85898 20.9282 8.7154 20.7846C8.5718 20.641 8.5 20.4628 8.5 20.25C8.5 20.0372 8.5718 19.859 8.7154 19.7154C8.85898 19.5718 9.03718 19.5 9.25 19.5H10.5ZM4.3077 16H19.6923C19.7692 16 19.8397 15.968 19.9038 15.9039C19.9679 15.8398 20 15.7693 20 15.6923V5.80773C20 5.7308 19.9679 5.66027 19.9038 5.59616C19.8397 5.53206 19.7692 5.50001 19.6923 5.50001H4.3077C4.23077 5.50001 4.16024 5.53206 4.09613 5.59616C4.03202 5.66027 3.99998 5.7308 3.99998 5.80773V15.6923C3.99998 15.7693 4.03202 15.8398 4.09613 15.9039C4.16024 15.968 4.23077 16 4.3077 16Z" fill="#606060"/>
</g>
</svg>
