<svg width="24" height="24" viewBox="0 0 24 24" fill="none" xmlns="http://www.w3.org/2000/svg">
<mask id="mask0_1279_23138" style="mask-type:alpha" maskUnits="userSpaceOnUse" x="0" y="0" width="24" height="24">
<rect width="24" height="24" fill="#D9D9D9"/>
</mask>
<g mask="url(#mask0_1279_23138)">
<path d="M12.0004 14.65C11.8837 14.65 11.7714 14.6333 11.6634 14.6C11.5547 14.5667 11.4587 14.5 11.3754 14.4L6.85039 9.90001C6.71706 9.75001 6.65039 9.57501 6.65039 9.37501C6.65039 9.17501 6.72539 9.00001 6.87539 8.85001C7.02539 8.71667 7.20039 8.65001 7.40039 8.65001C7.60039 8.65001 7.77539 8.71667 7.92539 8.85001L12.0004 12.925L16.1004 8.85001C16.2337 8.70001 16.4004 8.62901 16.6004 8.63701C16.8004 8.64567 16.9754 8.71667 17.1254 8.85001C17.2754 9.00001 17.3504 9.17901 17.3504 9.38701C17.3504 9.59567 17.2754 9.76667 17.1254 9.90001L12.6254 14.4C12.5421 14.5 12.4464 14.5667 12.3384 14.6C12.2297 14.6333 12.1171 14.65 12.0004 14.65Z" fill="#FCFCFC"/>
</g>
</svg>
