<svg width="24" height="25" viewBox="0 0 24 25" fill="none" xmlns="http://www.w3.org/2000/svg">
<mask id="mask0_444_619" style="mask-type:alpha" maskUnits="userSpaceOnUse" x="0" y="0" width="24" height="25">
<rect y="0.75" width="24" height="24" fill="#D9D9D9"/>
</mask>
<g mask="url(#mask0_444_619)">
<path d="M12.0004 15.4C11.8837 15.4 11.7714 15.3834 11.6634 15.35C11.5547 15.3167 11.4587 15.25 11.3754 15.15L6.85039 10.65C6.71706 10.5 6.65039 10.325 6.65039 10.125C6.65039 9.92502 6.72539 9.75002 6.87539 9.60002C7.02539 9.46669 7.20039 9.40002 7.40039 9.40002C7.60039 9.40002 7.77539 9.46669 7.92539 9.60002L12.0004 13.675L16.1004 9.60002C16.2337 9.45002 16.4004 9.37902 16.6004 9.38702C16.8004 9.39569 16.9754 9.46669 17.1254 9.60002C17.2754 9.75002 17.3504 9.92902 17.3504 10.137C17.3504 10.3457 17.2754 10.5167 17.1254 10.65L12.6254 15.15C12.5421 15.25 12.4464 15.3167 12.3384 15.35C12.2297 15.3834 12.1171 15.4 12.0004 15.4Z" fill="#606060"/>
</g>
</svg>
