<svg width="24" height="24" viewBox="0 0 24 24" fill="none" xmlns="http://www.w3.org/2000/svg">
<mask id="mask0_1279_23137" style="mask-type:alpha" maskUnits="userSpaceOnUse" x="0" y="0" width="24" height="24">
<rect width="24" height="24" fill="#D9D9D9"/>
</mask>
<g mask="url(#mask0_1279_23137)">
<path d="M6.87539 14.5C6.72539 14.3667 6.65039 14.1957 6.65039 13.987C6.65039 13.779 6.72539 13.6 6.87539 13.45L11.3754 8.975C11.4587 8.875 11.5547 8.804 11.6634 8.762C11.7714 8.72066 11.8837 8.7 12.0004 8.7C12.1171 8.7 12.2297 8.72066 12.3384 8.762C12.4464 8.804 12.5421 8.875 12.6254 8.975L17.1504 13.475C17.2837 13.625 17.3504 13.7957 17.3504 13.987C17.3504 14.179 17.2754 14.35 17.1254 14.5C16.9754 14.65 16.8004 14.725 16.6004 14.725C16.4004 14.725 16.2254 14.65 16.0754 14.5L12.0004 10.45L7.90039 14.525C7.76706 14.675 7.60039 14.75 7.40039 14.75C7.20039 14.75 7.02539 14.6667 6.87539 14.5Z" fill="#FCFCFC"/>
</g>
</svg>
