<svg width="24" height="25" viewBox="0 0 24 25" fill="none" xmlns="http://www.w3.org/2000/svg">
<mask id="mask0_444_620" style="mask-type:alpha" maskUnits="userSpaceOnUse" x="0" y="0" width="24" height="25">
<rect y="0.75" width="24" height="24" fill="#D9D9D9"/>
</mask>
<g mask="url(#mask0_444_620)">
<path d="M6.87539 15.25C6.72539 15.1167 6.65039 14.9457 6.65039 14.737C6.65039 14.529 6.72539 14.35 6.87539 14.2L11.3754 9.72501C11.4587 9.62501 11.5547 9.55401 11.6634 9.51201C11.7714 9.47068 11.8837 9.45001 12.0004 9.45001C12.1171 9.45001 12.2297 9.47068 12.3384 9.51201C12.4464 9.55401 12.5421 9.62501 12.6254 9.72501L17.1504 14.225C17.2837 14.375 17.3504 14.5457 17.3504 14.737C17.3504 14.929 17.2754 15.1 17.1254 15.25C16.9754 15.4 16.8004 15.475 16.6004 15.475C16.4004 15.475 16.2254 15.4 16.0754 15.25L12.0004 11.2L7.90039 15.275C7.76706 15.425 7.60039 15.5 7.40039 15.5C7.20039 15.5 7.02539 15.4167 6.87539 15.25Z" fill="#606060"/>
</g>
</svg>
