<svg width="24" height="24" viewBox="0 0 24 24" fill="none" xmlns="http://www.w3.org/2000/svg">
<mask id="mask0_1279_23044" style="mask-type:alpha" maskUnits="userSpaceOnUse" x="0" y="0" width="24" height="24">
<rect width="24" height="24" fill="#D9D9D9"/>
</mask>
<g mask="url(#mask0_1279_23044)">
<path d="M14.9559 8.01729C14.9559 7.19164 14.68 6.52849 14.128 6.02784C13.5761 5.5272 12.8476 5.27689 11.9424 5.27689C11.3694 5.27689 10.8613 5.39387 10.4184 5.62784C9.97544 5.86182 9.59306 6.21407 9.27126 6.68459C9.08153 6.95252 8.82801 7.11084 8.51071 7.15956C8.19341 7.20828 7.91618 7.13072 7.67901 6.92689C7.50336 6.77432 7.40304 6.58298 7.37804 6.35286C7.35304 6.12274 7.40656 5.90449 7.53861 5.69809C8.04631 4.93014 8.6742 4.34616 9.42227 3.94616C10.1703 3.54616 11.0104 3.34616 11.9424 3.34616C13.4309 3.34616 14.6424 3.77244 15.577 4.62501C16.5116 5.47756 16.9789 6.58781 16.9789 7.95576C16.9789 8.68011 16.8238 9.34389 16.5136 9.94709C16.2033 10.5503 15.6745 11.1993 14.927 11.8942C14.227 12.5288 13.7495 13.0439 13.4943 13.4394C13.2392 13.8349 13.0911 14.2795 13.0501 14.7731C13.0091 15.0577 12.8911 15.2949 12.6963 15.4846C12.5014 15.6743 12.2668 15.7692 11.9924 15.7692C11.7181 15.7692 11.4835 15.6753 11.2886 15.4875C11.0937 15.2997 10.9963 15.0686 10.9963 14.7942C10.9963 14.125 11.1492 13.5131 11.455 12.9586C11.7607 12.4042 12.2726 11.8077 12.9906 11.1692C13.7572 10.4961 14.2764 9.93461 14.5482 9.48461C14.82 9.03461 14.9559 8.5455 14.9559 8.01729ZM11.9424 21.5C11.5335 21.5 11.1812 21.3522 10.8857 21.0567C10.5902 20.7612 10.4425 20.409 10.4425 20C10.4425 19.591 10.5902 19.2388 10.8857 18.9433C11.1812 18.6478 11.5335 18.5 11.9424 18.5C12.3514 18.5 12.7036 18.6478 12.9991 18.9433C13.2947 19.2388 13.4424 19.591 13.4424 20C13.4424 20.409 13.2947 20.7612 12.9991 21.0567C12.7036 21.3522 12.3514 21.5 11.9424 21.5Z" fill="#FCFCFC"/>
</g>
</svg>
