<svg width="24" height="24" viewBox="0 0 24 24" fill="none" xmlns="http://www.w3.org/2000/svg">
<mask id="mask0_1501_19292" style="mask-type:alpha" maskUnits="userSpaceOnUse" x="0" y="0" width="24" height="24">
<rect width="24" height="24" fill="#D9D9D9"/>
</mask>
<g mask="url(#mask0_1501_19292)">
<path d="M14.9559 8.0173C14.9559 7.19165 14.68 6.5285 14.128 6.02785C13.5761 5.52722 12.8476 5.2769 11.9424 5.2769C11.3694 5.2769 10.8613 5.39389 10.4184 5.62785C9.97544 5.86184 9.59306 6.21408 9.27126 6.6846C9.08153 6.95253 8.82801 7.11086 8.51071 7.15958C8.19341 7.20829 7.91618 7.13073 7.67901 6.9269C7.50336 6.77433 7.40304 6.58299 7.37804 6.35288C7.35304 6.12276 7.40656 5.9045 7.53861 5.6981C8.04631 4.93015 8.6742 4.34618 9.42227 3.94618C10.1703 3.54618 11.0104 3.34618 11.9424 3.34618C13.4309 3.34618 14.6424 3.77246 15.577 4.62503C16.5116 5.47758 16.9789 6.58783 16.9789 7.95578C16.9789 8.68013 16.8238 9.3439 16.5136 9.9471C16.2033 10.5503 15.6745 11.1994 14.927 11.8942C14.227 12.5288 13.7495 13.0439 13.4943 13.4394C13.2392 13.8349 13.0911 14.2795 13.0501 14.7731C13.0091 15.0577 12.8911 15.2949 12.6963 15.4846C12.5014 15.6744 12.2668 15.7692 11.9924 15.7692C11.7181 15.7692 11.4835 15.6753 11.2886 15.4875C11.0937 15.2997 10.9963 15.0686 10.9963 14.7943C10.9963 14.125 11.1492 13.5132 11.455 12.9587C11.7607 12.4042 12.2726 11.8077 12.9906 11.1692C13.7572 10.4962 14.2764 9.93463 14.5482 9.48463C14.82 9.03463 14.9559 8.54552 14.9559 8.0173ZM11.9424 21.5C11.5335 21.5 11.1812 21.3522 10.8857 21.0567C10.5902 20.7612 10.4425 20.409 10.4425 20C10.4425 19.591 10.5902 19.2388 10.8857 18.9433C11.1812 18.6478 11.5335 18.5 11.9424 18.5C12.3514 18.5 12.7036 18.6478 12.9991 18.9433C13.2947 19.2388 13.4424 19.591 13.4424 20C13.4424 20.409 13.2947 20.7612 12.9991 21.0567C12.7036 21.3522 12.3514 21.5 11.9424 21.5Z" fill="#606060"/>
</g>
</svg>
