<svg width="24" height="24" viewBox="0 0 24 24" fill="none" xmlns="http://www.w3.org/2000/svg">
<mask id="mask0_1279_23050" style="mask-type:alpha" maskUnits="userSpaceOnUse" x="0" y="0" width="24" height="24">
<rect width="24" height="24" fill="#D9D9D9"/>
</mask>
<g mask="url(#mask0_1279_23050)">
<path d="M11.2505 20.75V17.1443C11.2505 16.2237 11.1152 15.5192 10.8447 15.0308C10.5742 14.5423 10.1928 14.0782 9.7005 13.6385L10.7697 12.5693C10.9825 12.7654 11.195 12.9933 11.4072 13.2529C11.6194 13.5125 11.8171 13.7879 12.0005 14.0789C12.2146 13.7174 12.4617 13.3837 12.7418 13.0779C13.022 12.7721 13.3127 12.4834 13.6139 12.2116C14.3498 11.5513 14.9697 10.7577 15.4736 9.83078C15.9774 8.90385 16.2332 7.42114 16.2409 5.38265L14.9428 6.68078C14.8043 6.81923 14.6328 6.89006 14.4283 6.89328C14.2239 6.89648 14.0441 6.82565 13.8889 6.68078C13.7338 6.52565 13.6562 6.34744 13.6562 6.14618C13.6562 5.94489 13.7338 5.7667 13.8889 5.61158L16.3678 3.13273C16.4614 3.03915 16.5601 2.97312 16.6639 2.93465C16.7678 2.89619 16.88 2.87695 17.0005 2.87695C17.121 2.87695 17.2332 2.89619 17.337 2.93465C17.4408 2.97312 17.5396 3.03915 17.6331 3.13273L20.1274 5.62695C20.2658 5.7654 20.3392 5.93687 20.3476 6.14135C20.3559 6.34584 20.2825 6.52565 20.1274 6.68078C19.9825 6.82565 19.8069 6.89808 19.6005 6.89808C19.3941 6.89808 19.2184 6.82565 19.0736 6.68078L17.7408 5.36343C17.7331 7.67624 17.4194 9.39452 16.7995 10.5183C16.1796 11.642 15.4588 12.5782 14.637 13.3269C14.0844 13.8295 13.6319 14.3244 13.2793 14.8116C12.9267 15.2987 12.7504 16.0763 12.7504 17.1443V20.75C12.7504 20.9628 12.6787 21.141 12.5351 21.2846C12.3915 21.4282 12.2133 21.5 12.0005 21.5C11.7877 21.5 11.6095 21.4282 11.4659 21.2846C11.3223 21.141 11.2505 20.9628 11.2505 20.75ZM6.47935 8.14615C6.40627 7.8064 6.35402 7.38525 6.3226 6.88268C6.2912 6.38011 6.27037 5.87369 6.2601 5.36343L4.92737 6.69615C4.78892 6.83462 4.61746 6.90545 4.41297 6.90865C4.20849 6.91185 4.02869 6.8359 3.87357 6.68078C3.72869 6.53591 3.65625 6.36027 3.65625 6.15385C3.65625 5.94745 3.72869 5.77182 3.87357 5.62695L6.3678 3.13273C6.46138 3.03915 6.5601 2.97312 6.66395 2.93465C6.76778 2.89619 6.87996 2.87695 7.00047 2.87695C7.12099 2.87695 7.23317 2.89619 7.337 2.93465C7.44085 2.97312 7.53957 3.03915 7.63315 3.13273L10.1274 5.62695C10.2761 5.77567 10.3495 5.9497 10.3476 6.14905C10.3457 6.3484 10.2671 6.52565 10.112 6.68078C9.95688 6.82565 9.78125 6.89808 9.5851 6.89808C9.38895 6.89808 9.21331 6.82565 9.05818 6.68078L7.76007 5.39805C7.75366 5.85062 7.76872 6.28716 7.80527 6.70768C7.84181 7.12821 7.88636 7.49104 7.93892 7.79615L6.47935 8.14615ZM8.4851 12.4596C8.18382 12.1224 7.89183 11.7285 7.60915 11.2779C7.32645 10.8272 7.09087 10.3276 6.90242 9.77885L8.34662 9.41925C8.48764 9.80515 8.66167 10.1644 8.86872 10.4971C9.07577 10.8298 9.3043 11.1276 9.5543 11.3904L8.4851 12.4596Z" fill="#FCFCFC"/>
</g>
</svg>
