<svg width="32" height="33" viewBox="0 0 32 33" fill="none" xmlns="http://www.w3.org/2000/svg">
<mask id="mask0_1184_3425" style="mask-type:alpha" maskUnits="userSpaceOnUse" x="0" y="0" width="32" height="33">
<rect y="0.5" width="32" height="32" fill="#D9D9D9"/>
</mask>
<g mask="url(#mask0_1184_3425)">
<path d="M15.0007 28.1666V23.359C15.0007 22.1316 14.8203 21.1923 14.4596 20.541C14.0989 19.8897 13.5904 19.2709 12.934 18.6846L14.3596 17.259C14.6434 17.5206 14.9267 17.8244 15.2096 18.1706C15.4925 18.5167 15.7562 18.8838 16.0006 19.2719C16.2861 18.7898 16.6156 18.3449 16.9891 17.9372C17.3626 17.5295 17.7502 17.1445 18.1519 16.7821C19.1331 15.9017 19.9596 14.8436 20.6314 13.6077C21.3032 12.3718 21.6443 10.3948 21.6545 7.67687L19.9237 9.4077C19.7391 9.5923 19.5104 9.68675 19.2378 9.69104C18.9652 9.6953 18.7254 9.60086 18.5186 9.4077C18.3118 9.20086 18.2083 8.96326 18.2083 8.6949C18.2083 8.42653 18.3118 8.18893 18.5186 7.9821L21.8237 4.67697C21.9485 4.55219 22.0801 4.46416 22.2186 4.41287C22.357 4.36158 22.5066 4.33594 22.6673 4.33594C22.828 4.33594 22.9776 4.36158 23.116 4.41287C23.2545 4.46416 23.3861 4.55219 23.5109 4.67697L26.8365 8.0026C27.0211 8.1872 27.119 8.41583 27.1301 8.68847C27.1412 8.96111 27.0433 9.20086 26.8365 9.4077C26.6433 9.60086 26.4092 9.69744 26.134 9.69744C25.8588 9.69744 25.6246 9.60086 25.4314 9.4077L23.6545 7.65124C23.6442 10.735 23.2258 13.026 22.3993 14.5243C21.5728 16.0226 20.6117 17.2709 19.516 18.2692C18.7792 18.9393 18.1758 19.5992 17.7057 20.2487C17.2356 20.8983 17.0006 21.9351 17.0006 23.359V28.1666C17.0006 28.4504 16.9049 28.688 16.7134 28.8794C16.522 29.0709 16.2844 29.1666 16.0006 29.1666C15.7169 29.1666 15.4793 29.0709 15.2878 28.8794C15.0964 28.688 15.0007 28.4504 15.0007 28.1666ZM8.63913 11.3615C8.54169 10.9085 8.47202 10.347 8.43013 9.6769C8.38827 9.00682 8.36049 8.33159 8.3468 7.65124L6.56983 9.4282C6.38523 9.61283 6.15661 9.70727 5.88397 9.71154C5.61132 9.7158 5.37159 9.61453 5.16477 9.4077C4.97159 9.21455 4.875 8.98036 4.875 8.70514C4.875 8.42994 4.97159 8.19576 5.16477 8.0026L8.4904 4.67697C8.61518 4.55219 8.7468 4.46416 8.88527 4.41287C9.02371 4.36158 9.17328 4.33594 9.33397 4.33594C9.49465 4.33594 9.64422 4.36158 9.78267 4.41287C9.92113 4.46416 10.0528 4.55219 10.1775 4.67697L13.5032 8.0026C13.7015 8.20089 13.7993 8.43294 13.7968 8.69874C13.7942 8.96454 13.6895 9.20086 13.4827 9.4077C13.2758 9.60086 13.0417 9.69744 12.7801 9.69744C12.5186 9.69744 12.2844 9.60086 12.0776 9.4077L10.3468 7.6974C10.3382 8.30083 10.3583 8.88288 10.407 9.44357C10.4557 10.0043 10.5151 10.488 10.5852 10.8949L8.63913 11.3615ZM11.3135 17.1128C10.9118 16.6632 10.5224 16.138 10.1455 15.5372C9.7686 14.9363 9.4545 14.2701 9.20323 13.5385L11.1288 13.059C11.3169 13.5735 11.5489 14.0526 11.825 14.4962C12.101 14.9398 12.4057 15.3368 12.7391 15.6872L11.3135 17.1128Z" fill="#606060"/>
</g>
</svg>
