<svg width="25" height="25" viewBox="0 0 25 25" fill="none" xmlns="http://www.w3.org/2000/svg">
<mask id="mask0_410_261" style="mask-type:alpha" maskUnits="userSpaceOnUse" x="0" y="0" width="25" height="25">
<rect x="0.200195" y="0.5" width="24" height="24" fill="#D9D9D9"/>
</mask>
<g mask="url(#mask0_410_261)">
<path d="M8.3498 20.5H16.0498V17.5C16.0498 16.3833 15.6791 15.4167 14.9378 14.6C14.1958 13.7833 13.2831 13.375 12.1998 13.375C11.1165 13.375 10.2038 13.7833 9.4618 14.6C8.72047 15.4167 8.3498 16.3833 8.3498 17.5V20.5ZM12.1998 11.625C13.2831 11.625 14.1958 11.2167 14.9378 10.4C15.6791 9.58333 16.0498 8.61667 16.0498 7.5V4.5H8.3498V7.5C8.3498 8.61667 8.72047 9.58333 9.4618 10.4C10.2038 11.2167 11.1165 11.625 12.1998 11.625ZM18.8498 22H5.5498C5.33314 22 5.1538 21.9293 5.0118 21.788C4.87047 21.646 4.7998 21.4667 4.7998 21.25C4.7998 21.0333 4.87047 20.854 5.0118 20.712C5.1538 20.5707 5.33314 20.5 5.5498 20.5H6.8498V17.5C6.8498 16.4167 7.12914 15.4167 7.6878 14.5C8.2458 13.5833 9.00814 12.9167 9.9748 12.5C9.00814 12.0833 8.2458 11.4167 7.6878 10.5C7.12914 9.58333 6.8498 8.58333 6.8498 7.5V4.5H5.5498C5.33314 4.5 5.1538 4.429 5.0118 4.287C4.87047 4.14567 4.7998 3.96667 4.7998 3.75C4.7998 3.53333 4.87047 3.354 5.0118 3.212C5.1538 3.07067 5.33314 3 5.5498 3H18.8498C19.0665 3 19.2458 3.07067 19.3878 3.212C19.5291 3.354 19.5998 3.53333 19.5998 3.75C19.5998 3.96667 19.5291 4.14567 19.3878 4.287C19.2458 4.429 19.0665 4.5 18.8498 4.5H17.5498V7.5C17.5498 8.58333 17.2708 9.58333 16.7128 10.5C16.1541 11.4167 15.3915 12.0833 14.4248 12.5C15.3915 12.9167 16.1541 13.5833 16.7128 14.5C17.2708 15.4167 17.5498 16.4167 17.5498 17.5V20.5H18.8498C19.0665 20.5 19.2458 20.5707 19.3878 20.712C19.5291 20.854 19.5998 21.0333 19.5998 21.25C19.5998 21.4667 19.5291 21.646 19.3878 21.788C19.2458 21.9293 19.0665 22 18.8498 22Z" fill="#606060"/>
</g>
</svg>
