<svg width="24" height="24" viewBox="0 0 24 24" fill="none" xmlns="http://www.w3.org/2000/svg">
<mask id="mask0_1279_23035" style="mask-type:alpha" maskUnits="userSpaceOnUse" x="0" y="0" width="24" height="24">
<rect width="24" height="24" fill="#D9D9D9"/>
</mask>
<g mask="url(#mask0_1279_23035)">
<path d="M8.14961 20H15.8496V17C15.8496 15.8833 15.4789 14.9167 14.7376 14.1C13.9956 13.2833 13.0829 12.875 11.9996 12.875C10.9163 12.875 10.0036 13.2833 9.26161 14.1C8.52028 14.9167 8.14961 15.8833 8.14961 17V20ZM11.9996 11.125C13.0829 11.125 13.9956 10.7167 14.7376 9.9C15.4789 9.08333 15.8496 8.11667 15.8496 7V4H8.14961V7C8.14961 8.11667 8.52028 9.08333 9.26161 9.9C10.0036 10.7167 10.9163 11.125 11.9996 11.125ZM18.6496 21.5H5.34961C5.13294 21.5 4.95361 21.4293 4.81161 21.288C4.67028 21.146 4.59961 20.9667 4.59961 20.75C4.59961 20.5333 4.67028 20.354 4.81161 20.212C4.95361 20.0707 5.13294 20 5.34961 20H6.64961V17C6.64961 15.9167 6.92894 14.9167 7.48761 14C8.04561 13.0833 8.80794 12.4167 9.77461 12C8.80794 11.5833 8.04561 10.9167 7.48761 10C6.92894 9.08333 6.64961 8.08333 6.64961 7V4H5.34961C5.13294 4 4.95361 3.929 4.81161 3.787C4.67028 3.64567 4.59961 3.46667 4.59961 3.25C4.59961 3.03333 4.67028 2.854 4.81161 2.712C4.95361 2.57067 5.13294 2.5 5.34961 2.5H18.6496C18.8663 2.5 19.0456 2.57067 19.1876 2.712C19.3289 2.854 19.3996 3.03333 19.3996 3.25C19.3996 3.46667 19.3289 3.64567 19.1876 3.787C19.0456 3.929 18.8663 4 18.6496 4H17.3496V7C17.3496 8.08333 17.0706 9.08333 16.5126 10C15.9539 10.9167 15.1913 11.5833 14.2246 12C15.1913 12.4167 15.9539 13.0833 16.5126 14C17.0706 14.9167 17.3496 15.9167 17.3496 17V20H18.6496C18.8663 20 19.0456 20.0707 19.1876 20.212C19.3289 20.354 19.3996 20.5333 19.3996 20.75C19.3996 20.9667 19.3289 21.146 19.1876 21.288C19.0456 21.4293 18.8663 21.5 18.6496 21.5Z" fill="#FCFCFC"/>
</g>
</svg>
