<svg width="25" height="25" viewBox="0 0 25 25" fill="none" xmlns="http://www.w3.org/2000/svg">
<path d="M2.92794 9.14101H7.07394V22.5H2.92794V9.14101ZM5.00269 7.31456C6.32648 7.31456 7.40576 6.23688 7.40576 4.90728C7.40576 4.59115 7.34361 4.27812 7.22284 3.98605C7.10208 3.69399 6.92507 3.42861 6.70192 3.20507C6.47877 2.98154 6.21386 2.80422 5.92231 2.68324C5.63075 2.56227 5.31827 2.5 5.00269 2.5C4.68711 2.5 4.37463 2.56227 4.08307 2.68324C3.79152 2.80422 3.52661 2.98154 3.30346 3.20507C3.08032 3.42861 2.90331 3.69399 2.78254 3.98605C2.66178 4.27812 2.59962 4.59115 2.59962 4.90728C2.59613 6.23688 3.67192 7.31456 5.00269 7.31456ZM13.8151 15.8905C13.8151 14.148 14.1469 12.4615 16.302 12.4615C18.4257 12.4615 18.4571 14.4524 18.4571 16.0024V22.5H22.5996V15.1732C22.5996 11.5763 21.8242 8.80861 17.6293 8.80861C15.6139 8.80861 14.2622 9.91777 13.7068 10.9675H13.651V9.14101H9.67262V22.5H13.8151V15.8905Z" fill="#606060"/>
</svg>
