<svg width="25" height="25" viewBox="0 0 25 25" fill="none" xmlns="http://www.w3.org/2000/svg">
<path d="M21.1923 2.5H4.4073C3.5198 2.5 2.7998 3.22 2.7998 4.1075V20.8925C2.7998 21.78 3.5198 22.5 4.4073 22.5H21.1923C22.0798 22.5 22.7998 21.78 22.7998 20.8925V4.1075C22.7998 3.22 22.0798 2.5 21.1923 2.5ZM21.1923 20.9C9.9973 20.8975 4.3998 20.895 4.3998 20.8925C4.4023 9.6975 4.4048 4.1 4.4073 4.1C15.6023 4.1025 21.1998 4.105 21.1998 4.1075C21.1973 15.3025 21.1948 20.9 21.1923 20.9ZM5.7648 9.9975H8.7323V19.5425H5.7648V9.9975ZM7.2498 8.6925C8.19731 8.6925 8.9698 7.9225 8.9698 6.9725C8.9698 6.74663 8.92532 6.52296 8.83888 6.31428C8.75244 6.1056 8.62575 5.91599 8.46603 5.75628C8.30631 5.59656 8.1167 5.46987 7.90802 5.38343C7.69934 5.29699 7.47568 5.2525 7.2498 5.2525C7.02393 5.2525 6.80027 5.29699 6.59159 5.38343C6.38291 5.46987 6.1933 5.59656 6.03358 5.75628C5.87386 5.91599 5.74717 6.1056 5.66073 6.31428C5.57429 6.52296 5.5298 6.74663 5.5298 6.9725C5.5273 7.9225 6.29731 8.6925 7.2498 8.6925ZM13.5573 14.82C13.5573 13.575 13.7948 12.37 15.3373 12.37C16.8573 12.37 16.8798 13.7925 16.8798 14.9V19.5425H19.8448V14.3075C19.8448 11.7375 19.2898 9.76 16.2873 9.76C14.8448 9.76 13.8773 10.5525 13.4798 11.3025H13.4398V9.9975H10.5923V19.5425H13.5573V14.82Z" fill="#606060"/>
</svg>
