<svg width="24" height="24" viewBox="0 0 24 24" fill="none" xmlns="http://www.w3.org/2000/svg">
<path d="M20.3925 2H3.6075C2.72 2 2 2.72 2 3.6075V20.3925C2 21.28 2.72 22 3.6075 22H20.3925C21.28 22 22 21.28 22 20.3925V3.6075C22 2.72 21.28 2 20.3925 2ZM20.3925 20.4C9.1975 20.3975 3.6 20.395 3.6 20.3925C3.6025 9.1975 3.605 3.6 3.6075 3.6C14.8025 3.6025 20.4 3.605 20.4 3.6075C20.3975 14.8025 20.395 20.4 20.3925 20.4ZM4.965 9.4975H7.9325V19.0425H4.965V9.4975ZM6.45 8.1925C7.3975 8.1925 8.17 7.4225 8.17 6.4725C8.17 6.24663 8.12551 6.02296 8.03907 5.81428C7.95264 5.6056 7.82594 5.41599 7.66622 5.25628C7.50651 5.09656 7.3169 4.96987 7.10822 4.88343C6.89954 4.79699 6.67587 4.7525 6.45 4.7525C6.22413 4.7525 6.00046 4.79699 5.79178 4.88343C5.5831 4.96987 5.39349 5.09656 5.23378 5.25628C5.07406 5.41599 4.94737 5.6056 4.86093 5.81428C4.77449 6.02296 4.73 6.24663 4.73 6.4725C4.7275 7.4225 5.4975 8.1925 6.45 8.1925ZM12.7575 14.32C12.7575 13.075 12.995 11.87 14.5375 11.87C16.0575 11.87 16.08 13.2925 16.08 14.4V19.0425H19.045V13.8075C19.045 11.2375 18.49 9.26 15.4875 9.26C14.045 9.26 13.0775 10.0525 12.68 10.8025H12.64V9.4975H9.7925V19.0425H12.7575V14.32Z" fill="#FCFCFC"/>
</svg>
