<svg width="24" height="24" viewBox="0 0 24 24" fill="none" xmlns="http://www.w3.org/2000/svg">
<path d="M2.32834 8.64101H6.47433V22H2.32834V8.64101ZM4.40308 6.81456C5.72687 6.81456 6.80615 5.73688 6.80615 4.40728C6.80615 4.09115 6.744 3.77812 6.62323 3.48605C6.50247 3.19399 6.32546 2.92861 6.10231 2.70507C5.87916 2.48154 5.61425 2.30422 5.3227 2.18324C5.03114 2.06227 4.71866 2 4.40308 2C4.08751 2 3.77502 2.06227 3.48347 2.18324C3.19191 2.30422 2.927 2.48154 2.70385 2.70507C2.48071 2.92861 2.3037 3.19399 2.18293 3.48605C2.06217 3.77812 2.00001 4.09115 2.00001 4.40728C1.99652 5.73688 3.07231 6.81456 4.40308 6.81456ZM13.2155 15.3905C13.2155 13.648 13.5473 11.9615 15.7024 11.9615C17.8261 11.9615 17.8575 13.9524 17.8575 15.5024V22H22V14.6732C22 11.0763 21.2246 8.30861 17.0297 8.30861C15.0143 8.30861 13.6626 9.41777 13.1072 10.4675H13.0513V8.64101H9.07301V22H13.2155V15.3905Z" fill="#FCFCFC"/>
</svg>
