<svg width="24" height="25" viewBox="0 0 24 25" fill="none" xmlns="http://www.w3.org/2000/svg">
<mask id="mask0_645_1441" style="mask-type:alpha" maskUnits="userSpaceOnUse" x="0" y="0" width="24" height="25">
<rect y="0.5" width="24" height="24" fill="#D9D9D9"/>
</mask>
<g mask="url(#mask0_645_1441)">
<path d="M12 12.25C12.4859 12.25 12.899 12.0798 13.2394 11.7394C13.5798 11.399 13.75 10.9859 13.75 10.5C13.75 10.0141 13.5798 9.60097 13.2394 9.26061C12.899 8.92022 12.4859 8.75003 12 8.75003C11.5141 8.75003 11.1009 8.92022 10.7606 9.26061C10.4202 9.60097 10.25 10.0141 10.25 10.5C10.25 10.9859 10.4202 11.399 10.7606 11.7394C11.1009 12.0798 11.5141 12.25 12 12.25ZM12 20.302C14.059 18.4609 15.6154 16.7042 16.6692 15.0318C17.7231 13.3593 18.25 11.9154 18.25 10.7C18.25 8.80641 17.6468 7.25801 16.4404 6.05481C15.234 4.85159 13.7538 4.24998 12 4.24998C10.2461 4.24998 8.76599 4.85159 7.55957 6.05481C6.35316 7.25801 5.74995 8.80641 5.74995 10.7C5.74995 11.9154 6.27688 13.3593 7.33073 15.0318C8.38458 16.7042 9.94099 18.4609 12 20.302ZM12 21.9615C11.8795 21.9615 11.7621 21.9413 11.648 21.901C11.5339 21.8606 11.4301 21.8019 11.3365 21.725C8.95447 19.5814 7.17788 17.592 6.00672 15.7567C4.83557 13.9215 4.25 12.2359 4.25 10.7C4.25 8.27694 5.03012 6.34617 6.59037 4.90771C8.15062 3.46926 9.95382 2.75003 12 2.75003C14.0461 2.75003 15.8493 3.46926 17.4096 4.90771C18.9698 6.34617 19.75 8.27694 19.75 10.7C19.75 12.2359 19.1644 13.9215 17.9932 15.7567C16.8221 17.592 15.0455 19.5814 12.6634 21.725C12.5762 21.8019 12.474 21.8606 12.3567 21.901C12.2394 21.9413 12.1205 21.9615 12 21.9615Z" fill="#606060"/>
</g>
</svg>
