<svg width="24" height="24" viewBox="0 0 24 24" fill="none" xmlns="http://www.w3.org/2000/svg">
<mask id="mask0_1279_23039" style="mask-type:alpha" maskUnits="userSpaceOnUse" x="0" y="0" width="24" height="24">
<rect width="24" height="24" fill="#D9D9D9"/>
</mask>
<g mask="url(#mask0_1279_23039)">
<path d="M12 11.75C12.4859 11.75 12.899 11.5798 13.2394 11.2394C13.5798 10.899 13.75 10.4859 13.75 10C13.75 9.51411 13.5798 9.10097 13.2394 8.76061C12.899 8.42022 12.4859 8.25003 12 8.25003C11.5141 8.25003 11.1009 8.42022 10.7606 8.76061C10.4202 9.10097 10.25 9.51411 10.25 10C10.25 10.4859 10.4202 10.899 10.7606 11.2394C11.1009 11.5798 11.5141 11.75 12 11.75ZM12 19.802C14.059 17.9609 15.6154 16.2042 16.6692 14.5318C17.7231 12.8593 18.25 11.4154 18.25 10.2C18.25 8.30641 17.6468 6.75801 16.4404 5.55481C15.234 4.35159 13.7538 3.74998 12 3.74998C10.2461 3.74998 8.76599 4.35159 7.55957 5.55481C6.35316 6.75801 5.74995 8.30641 5.74995 10.2C5.74995 11.4154 6.27688 12.8593 7.33073 14.5318C8.38458 16.2042 9.94099 17.9609 12 19.802ZM12 21.4615C11.8795 21.4615 11.7621 21.4413 11.648 21.401C11.5339 21.3606 11.4301 21.3019 11.3365 21.225C8.95447 19.0814 7.17788 17.092 6.00672 15.2567C4.83557 13.4215 4.25 11.7359 4.25 10.2C4.25 7.77694 5.03012 5.84617 6.59037 4.40771C8.15062 2.96926 9.95382 2.25003 12 2.25003C14.0461 2.25003 15.8493 2.96926 17.4096 4.40771C18.9698 5.84617 19.75 7.77694 19.75 10.2C19.75 11.7359 19.1644 13.4215 17.9932 15.2567C16.8221 17.092 15.0455 19.0814 12.6634 21.225C12.5762 21.3019 12.474 21.3606 12.3567 21.401C12.2394 21.4413 12.1205 21.4615 12 21.4615Z" fill="#FCFCFC"/>
</g>
</svg>
