<svg width="24" height="24" viewBox="0 0 24 24" fill="none" xmlns="http://www.w3.org/2000/svg">
<mask id="mask0_1279_23117" style="mask-type:alpha" maskUnits="userSpaceOnUse" x="0" y="0" width="24" height="24">
<rect width="24" height="24" fill="#D9D9D9"/>
</mask>
<g mask="url(#mask0_1279_23117)">
<path d="M12 12L4 7V17H13V19H4C3.45 19 2.97933 18.8043 2.588 18.413C2.196 18.021 2 17.55 2 17V5C2 4.45 2.196 3.97933 2.588 3.588C2.97933 3.196 3.45 3 4 3H20C20.55 3 21.021 3.196 21.413 3.588C21.8043 3.97933 22 4.45 22 5V12H20V7L12 12ZM12 10L20 5H4L12 10ZM19 22L17.6 20.6L19.175 19H15V17H19.175L17.575 15.4L19 14L23 18L19 22ZM4 7V18V12V12.075V5V7Z" fill="#FCFCFC"/>
</g>
</svg>
