<svg width="25" height="25" viewBox="0 0 25 25" fill="none" xmlns="http://www.w3.org/2000/svg">
<mask id="mask0_217_881" style="mask-type:alpha" maskUnits="userSpaceOnUse" x="0" y="0" width="25" height="25">
<rect x="0.400391" y="0.5" width="24" height="24" fill="#D9D9D9"/>
</mask>
<g mask="url(#mask0_217_881)">
<path d="M12.4004 12.5L4.40039 7.5V17.5H13.4004V19.5H4.40039C3.85039 19.5 3.37972 19.3043 2.98839 18.913C2.59639 18.521 2.40039 18.05 2.40039 17.5V5.5C2.40039 4.95 2.59639 4.47933 2.98839 4.088C3.37972 3.696 3.85039 3.5 4.40039 3.5H20.4004C20.9504 3.5 21.4214 3.696 21.8134 4.088C22.2047 4.47933 22.4004 4.95 22.4004 5.5V12.5H20.4004V7.5L12.4004 12.5ZM12.4004 10.5L20.4004 5.5H4.40039L12.4004 10.5ZM19.4004 22.5L18.0004 21.1L19.5754 19.5H15.4004V17.5H19.5754L17.9754 15.9L19.4004 14.5L23.4004 18.5L19.4004 22.5ZM4.40039 7.5V18.5V12.5V12.575V5.5V7.5Z" fill="#606060"/>
</g>
</svg>
