<svg width="24" height="24" viewBox="0 0 24 24" fill="none" xmlns="http://www.w3.org/2000/svg">
<mask id="mask0_1279_23054" style="mask-type:alpha" maskUnits="userSpaceOnUse" x="0" y="0" width="24" height="24">
<rect width="24" height="24" fill="#D9D9D9"/>
</mask>
<g mask="url(#mask0_1279_23054)">
<path d="M9.94228 7.19233H17.0577C17.2702 7.19233 17.4483 7.26424 17.592 7.40806C17.7358 7.55186 17.8077 7.73006 17.8077 7.94266C17.8077 8.15524 17.7358 8.33332 17.592 8.47691C17.4483 8.62049 17.2702 8.69228 17.0577 8.69228H9.94228C9.72978 8.69228 9.55166 8.62038 9.40793 8.47658C9.26418 8.33276 9.1923 8.15457 9.1923 7.94198C9.1923 7.72938 9.26418 7.55129 9.40793 7.40771C9.55166 7.26412 9.72978 7.19233 9.94228 7.19233ZM9.94228 10.0769H17.0577C17.2702 10.0769 17.4483 10.1488 17.592 10.2927C17.7358 10.4365 17.8077 10.6147 17.8077 10.8273C17.8077 11.0398 17.7358 11.2179 17.592 11.3615C17.4483 11.5051 17.2702 11.5769 17.0577 11.5769H9.94228C9.72978 11.5769 9.55166 11.505 9.40793 11.3612C9.26418 11.2174 9.1923 11.0392 9.1923 10.8266C9.1923 10.614 9.26418 10.4359 9.40793 10.2923C9.55166 10.1487 9.72978 10.0769 9.94228 10.0769ZM11.9231 21.5H5.99997C5.30127 21.5 4.70993 21.258 4.22595 20.774C3.74198 20.29 3.5 19.6987 3.5 19V17.0192C3.5 16.7632 3.58662 16.5485 3.75987 16.3753C3.93311 16.202 4.14777 16.1154 4.40385 16.1154H6.5V4.30773C6.5 3.81062 6.67701 3.38506 7.03103 3.03106C7.38503 2.67704 7.81058 2.50003 8.3077 2.50003H18.6923C19.1894 2.50003 19.6149 2.67704 19.9689 3.03106C20.3229 3.38506 20.5 3.81062 20.5 4.30773V10.9577C20.2435 10.9436 19.9894 10.9593 19.7375 11.0048C19.4855 11.0503 19.2397 11.1256 19 11.2308V4.30773C19 4.21798 18.9711 4.14426 18.9134 4.08656C18.8557 4.02886 18.782 4.00001 18.6923 4.00001H8.3077C8.21795 4.00001 8.14423 4.02886 8.08653 4.08656C8.02883 4.14426 7.99998 4.21798 7.99998 4.30773V16.1154H13.673L12.1731 17.6154H4.99997V19C4.99997 19.2833 5.09581 19.5208 5.28747 19.7125C5.47914 19.9042 5.71664 20 5.99997 20H11.9231V21.5ZM14.1154 20.5961V19.2346C14.1154 19.1169 14.1372 19.0028 14.1808 18.8925C14.2243 18.7821 14.2929 18.6801 14.3865 18.5865L19.5442 13.4539C19.6686 13.3295 19.8028 13.242 19.947 13.1914C20.0911 13.1407 20.2353 13.1154 20.3795 13.1154C20.5367 13.1154 20.6888 13.1449 20.8358 13.2039C20.9827 13.2628 21.1163 13.3513 21.2365 13.4692L22.1615 14.4039C22.2692 14.5282 22.3525 14.6628 22.4115 14.8077C22.4705 14.9526 22.5 15.0974 22.5 15.2423C22.5 15.3872 22.473 15.5346 22.4192 15.6846C22.3653 15.8346 22.2794 15.9718 22.1615 16.0961L17.0288 21.2288C16.9352 21.3224 16.8332 21.391 16.7228 21.4346C16.6125 21.4782 16.4984 21.5 16.3807 21.5H15.0192C14.7631 21.5 14.5485 21.4134 14.3752 21.2401C14.202 21.0669 14.1154 20.8522 14.1154 20.5961ZM15.3077 20.3077H16.2577L19.5038 17.0461L19.0442 16.5711L18.5788 16.1019L15.3077 19.3577V20.3077ZM19.0442 16.5711L18.5788 16.1019L19.5038 17.0461L19.0442 16.5711Z" fill="#FCFCFC"/>
</g>
</svg>
