<svg width="32" height="32" viewBox="0 0 32 32" fill="none" xmlns="http://www.w3.org/2000/svg">
<g id="Icons / matriz-csd">
<mask id="mask0_1172_2998" style="mask-type:alpha" maskUnits="userSpaceOnUse" x="0" y="0" width="32" height="32">
<rect id="Bounding box" width="32" height="32" fill="#D9D9D9"/>
</mask>
<g mask="url(#mask0_1172_2998)">
<path id="dashboard" d="M17.666 10.7886V5.87821C17.666 5.53041 17.7819 5.24156 18.0136 5.01165C18.2453 4.78172 18.5325 4.66675 18.875 4.66675H26.1291C26.4716 4.66675 26.7578 4.78172 26.9877 5.01165C27.2177 5.24156 27.3326 5.53041 27.3326 5.87821V10.7886C27.3326 11.1364 27.2167 11.4253 26.985 11.6552C26.7533 11.8851 26.4661 12 26.1236 12H18.8696C18.527 12 18.2408 11.8851 18.0109 11.6552C17.781 11.4253 17.666 11.1364 17.666 10.7886ZM4.66602 15.4666V5.86652C4.66602 5.52652 4.78188 5.24156 5.01362 5.01165C5.24535 4.78172 5.53249 4.66675 5.87505 4.66675H13.129C13.4716 4.66675 13.7578 4.78176 13.9878 5.01178C14.2177 5.24178 14.3326 5.52678 14.3326 5.86678V15.4669C14.3326 15.8069 14.2168 16.0919 13.985 16.3218C13.7533 16.5517 13.4662 16.6667 13.1236 16.6667H5.86958C5.52705 16.6667 5.24083 16.5517 5.01092 16.3217C4.78098 16.0917 4.66602 15.8066 4.66602 15.4666ZM17.666 26.1333V16.5332C17.666 16.1932 17.7819 15.9082 18.0136 15.6783C18.2453 15.4484 18.5325 15.3334 18.875 15.3334H26.1291C26.4716 15.3334 26.7578 15.4484 26.9877 15.6784C27.2177 15.9084 27.3326 16.1935 27.3326 16.5335V26.1336C27.3326 26.4736 27.2167 26.7585 26.985 26.9884C26.7533 27.2184 26.4661 27.3334 26.1236 27.3334H18.8696C18.527 27.3334 18.2408 27.2183 18.0109 26.9883C17.781 26.7583 17.666 26.4733 17.666 26.1333ZM4.66602 26.1219V21.2115C4.66602 20.8637 4.78188 20.5748 5.01362 20.3449C5.24535 20.115 5.53249 20.0001 5.87505 20.0001H13.129C13.4716 20.0001 13.7578 20.115 13.9878 20.3449C14.2177 20.5748 14.3326 20.8637 14.3326 21.2115V26.1219C14.3326 26.4697 14.2168 26.7585 13.985 26.9884C13.7533 27.2184 13.4662 27.3334 13.1236 27.3334H5.86958C5.52705 27.3334 5.24083 27.2184 5.01092 26.9884C4.78098 26.7585 4.66602 26.4697 4.66602 26.1219ZM6.66598 14.6667H12.3327V6.66672H6.66598V14.6667ZM19.666 25.3334H25.3327V17.3334H19.666V25.3334ZM19.666 10.0001H25.3327V6.66672H19.666V10.0001ZM6.66598 25.3334H12.3327V22H6.66598V25.3334Z" fill="#606060"/>
</g>
</g>
</svg>
