<svg width="24" height="24" viewBox="0 0 24 24" fill="none" xmlns="http://www.w3.org/2000/svg">
<mask id="mask0_1279_23038" style="mask-type:alpha" maskUnits="userSpaceOnUse" x="0" y="0" width="24" height="24">
<rect width="24" height="24" fill="#D9D9D9"/>
</mask>
<g mask="url(#mask0_1279_23038)">
<path d="M13.95 8.85001C13.95 8.75001 13.9873 8.64167 14.062 8.52501C14.1373 8.40834 14.225 8.32501 14.325 8.27501C14.825 8.07501 15.3377 7.92501 15.863 7.82501C16.3877 7.72501 16.9333 7.67501 17.5 7.67501C17.8333 7.67501 18.15 7.69601 18.45 7.73801C18.75 7.77934 19.0583 7.83334 19.375 7.90001C19.4917 7.91667 19.5917 7.97501 19.675 8.07501C19.7583 8.17501 19.8 8.29167 19.8 8.42501C19.8 8.65834 19.729 8.82501 19.587 8.92501C19.4457 9.02501 19.2667 9.05001 19.05 9.00001C18.8 8.95001 18.546 8.91667 18.288 8.90001C18.0293 8.88334 17.7667 8.87501 17.5 8.87501C17.0167 8.87501 16.5417 8.92067 16.075 9.01201C15.6083 9.10401 15.1667 9.22501 14.75 9.37501C14.5167 9.47501 14.325 9.47501 14.175 9.37501C14.025 9.27501 13.95 9.10001 13.95 8.85001ZM13.95 14.325C13.95 14.2083 13.9873 14.0917 14.062 13.975C14.1373 13.8583 14.225 13.775 14.325 13.725C14.8083 13.525 15.321 13.375 15.863 13.275C16.4043 13.175 16.95 13.125 17.5 13.125C17.8333 13.125 18.15 13.146 18.45 13.188C18.75 13.2293 19.0583 13.2833 19.375 13.35C19.4917 13.3833 19.5917 13.45 19.675 13.55C19.7583 13.65 19.8 13.7667 19.8 13.9C19.8 14.1167 19.729 14.279 19.587 14.387C19.4457 14.4957 19.2667 14.525 19.05 14.475C18.8 14.425 18.546 14.3873 18.288 14.362C18.0293 14.3373 17.7667 14.325 17.5 14.325C17.0167 14.325 16.546 14.3707 16.088 14.462C15.6293 14.554 15.1917 14.6833 14.775 14.85C14.525 14.95 14.325 14.9457 14.175 14.837C14.025 14.729 13.95 14.5583 13.95 14.325ZM13.95 11.6C13.95 11.4833 13.9873 11.3667 14.062 11.25C14.1373 11.1333 14.225 11.05 14.325 11C14.825 10.8 15.3377 10.65 15.863 10.55C16.3877 10.45 16.9333 10.4 17.5 10.4C17.8333 10.4 18.15 10.4207 18.45 10.462C18.75 10.504 19.0583 10.5583 19.375 10.625C19.4917 10.6417 19.5917 10.704 19.675 10.812C19.7583 10.9207 19.8 11.0417 19.8 11.175C19.8 11.3917 19.729 11.554 19.587 11.662C19.4457 11.7707 19.2667 11.7917 19.05 11.725C18.8 11.675 18.546 11.6417 18.288 11.625C18.0293 11.6083 17.7667 11.6 17.5 11.6C17.0167 11.6 16.546 11.646 16.088 11.738C15.6293 11.8293 15.1917 11.9583 14.775 12.125C14.525 12.225 14.325 12.2207 14.175 12.112C14.025 12.004 13.95 11.8333 13.95 11.6ZM6.5 16.025C7.33333 16.025 8.14167 16.1167 8.925 16.3C9.70833 16.4833 10.4833 16.775 11.25 17.175V7.35001C10.55 6.90001 9.79167 6.55834 8.975 6.32501C8.15833 6.09167 7.33333 5.97501 6.5 5.97501C5.9 5.97501 5.33733 6.02501 4.812 6.12501C4.28733 6.22501 3.75 6.37501 3.2 6.57501C3.13333 6.60834 3.08333 6.65001 3.05 6.70001C3.01667 6.75001 3 6.80001 3 6.85001V16.3C3 16.4 3.03333 16.4707 3.1 16.512C3.16667 16.554 3.23333 16.5583 3.3 16.525C3.78333 16.3583 4.28733 16.2333 4.812 16.15C5.33733 16.0667 5.9 16.025 6.5 16.025ZM12.75 17.175C13.5167 16.775 14.2917 16.4833 15.075 16.3C15.8583 16.1167 16.6667 16.025 17.5 16.025C18.1 16.025 18.6627 16.0667 19.188 16.15C19.7127 16.2333 20.2167 16.3583 20.7 16.525C20.7667 16.5583 20.8333 16.554 20.9 16.512C20.9667 16.4707 21 16.4 21 16.3V6.85001C21 6.80001 20.9833 6.75001 20.95 6.70001C20.9167 6.65001 20.8667 6.60834 20.8 6.57501C20.25 6.37501 19.7127 6.22501 19.188 6.12501C18.6627 6.02501 18.1 5.97501 17.5 5.97501C16.6667 5.97501 15.8417 6.09167 15.025 6.32501C14.2083 6.55834 13.45 6.90001 12.75 7.35001V17.175ZM12 18.975C11.8 18.975 11.6167 18.95 11.45 18.9C11.2833 18.85 11.125 18.7833 10.975 18.7C10.2917 18.3167 9.57067 18.025 8.812 17.825C8.054 17.625 7.28333 17.525 6.5 17.525C5.88333 17.525 5.28333 17.5917 4.7 17.725C4.11667 17.8583 3.55 18.0583 3 18.325C2.65 18.4917 2.31267 18.4667 1.988 18.25C1.66267 18.0333 1.5 17.725 1.5 17.325V6.47501C1.5 6.25834 1.55433 6.05401 1.663 5.86201C1.771 5.67067 1.93333 5.53334 2.15 5.45001C2.81667 5.11667 3.521 4.87067 4.263 4.71201C5.00433 4.55401 5.75 4.47501 6.5 4.47501C7.46667 4.47501 8.41667 4.60834 9.35 4.87501C10.2833 5.14167 11.1667 5.53334 12 6.05001C12.8333 5.53334 13.7167 5.14167 14.65 4.87501C15.5833 4.60834 16.5333 4.47501 17.5 4.47501C18.25 4.47501 18.996 4.55401 19.738 4.71201C20.4793 4.87067 21.1833 5.11667 21.85 5.45001C22.0667 5.53334 22.229 5.67067 22.337 5.86201C22.4457 6.05401 22.5 6.25834 22.5 6.47501V17.325C22.5 17.725 22.3333 18.0293 22 18.238C21.6667 18.446 21.3167 18.4667 20.95 18.3C20.4 18.05 19.8377 17.8583 19.263 17.725C18.6877 17.5917 18.1 17.525 17.5 17.525C16.7167 17.525 15.946 17.625 15.188 17.825C14.4293 18.025 13.7083 18.3167 13.025 18.7C12.875 18.7833 12.7167 18.85 12.55 18.9C12.3833 18.95 12.2 18.975 12 18.975Z" fill="#FCFCFC"/>
</g>
</svg>
