<svg width="24" height="24" viewBox="0 0 24 24" fill="none" xmlns="http://www.w3.org/2000/svg">
<mask id="mask0_1019_1814" style="mask-type:alpha" maskUnits="userSpaceOnUse" x="0" y="0" width="24" height="24">
<rect width="24" height="24" fill="#D9D9D9"/>
</mask>
<g mask="url(#mask0_1019_1814)">
<path d="M21 18C21.2833 18 21.5207 17.904 21.712 17.712C21.904 17.5207 22 17.2833 22 17C22 16.7167 21.904 16.4793 21.712 16.288C21.5207 16.096 21.2833 16 21 16H11C10.7167 16 10.4793 16.096 10.288 16.288C10.096 16.4793 10 16.7167 10 17C10 17.2833 10.096 17.5207 10.288 17.712C10.4793 17.904 10.7167 18 11 18H21ZM21 13C21.2833 13 21.5207 12.904 21.712 12.712C21.904 12.5207 22 12.2833 22 12C22 11.7167 21.904 11.479 21.712 11.287C21.5207 11.0957 21.2833 11 21 11H3C2.71667 11 2.47933 11.0957 2.288 11.287C2.096 11.479 2 11.7167 2 12C2 12.2833 2.096 12.5207 2.288 12.712C2.47933 12.904 2.71667 13 3 13H21ZM21 8C21.2833 8 21.5207 7.90433 21.712 7.713C21.904 7.521 22 7.28333 22 7C22 6.71667 21.904 6.479 21.712 6.287C21.5207 6.09567 21.2833 6 21 6H8C7.71667 6 7.47933 6.09567 7.288 6.287C7.096 6.479 7 6.71667 7 7C7 7.28333 7.096 7.521 7.288 7.713C7.47933 7.90433 7.71667 8 8 8H21Z" fill="#606060"/>
</g>
</svg>
