<svg width="25" height="25" viewBox="0 0 25 25" fill="none" xmlns="http://www.w3.org/2000/svg">
<mask id="mask0_411_382" style="mask-type:alpha" maskUnits="userSpaceOnUse" x="0" y="0" width="25" height="25">
<rect x="0.799805" y="0.5" width="24" height="24" fill="#D9D9D9"/>
</mask>
<g mask="url(#mask0_411_382)">
<path d="M14.7498 9.35001C14.7498 9.25001 14.7871 9.14167 14.8618 9.02501C14.9371 8.90834 15.0248 8.82501 15.1248 8.77501C15.6248 8.57501 16.1375 8.42501 16.6628 8.32501C17.1875 8.22501 17.7331 8.17501 18.2998 8.17501C18.6331 8.17501 18.9498 8.19601 19.2498 8.23801C19.5498 8.27934 19.8581 8.33334 20.1748 8.40001C20.2915 8.41667 20.3915 8.47501 20.4748 8.57501C20.5581 8.67501 20.5998 8.79167 20.5998 8.92501C20.5998 9.15834 20.5288 9.32501 20.3868 9.42501C20.2455 9.52501 20.0665 9.55001 19.8498 9.50001C19.5998 9.45001 19.3458 9.41667 19.0878 9.40001C18.8291 9.38334 18.5665 9.37501 18.2998 9.37501C17.8165 9.37501 17.3415 9.42067 16.8748 9.51201C16.4081 9.60401 15.9665 9.72501 15.5498 9.87501C15.3165 9.97501 15.1248 9.97501 14.9748 9.87501C14.8248 9.77501 14.7498 9.60001 14.7498 9.35001ZM14.7498 14.825C14.7498 14.7083 14.7871 14.5917 14.8618 14.475C14.9371 14.3583 15.0248 14.275 15.1248 14.225C15.6081 14.025 16.1208 13.875 16.6628 13.775C17.2041 13.675 17.7498 13.625 18.2998 13.625C18.6331 13.625 18.9498 13.646 19.2498 13.688C19.5498 13.7293 19.8581 13.7833 20.1748 13.85C20.2915 13.8833 20.3915 13.95 20.4748 14.05C20.5581 14.15 20.5998 14.2667 20.5998 14.4C20.5998 14.6167 20.5288 14.779 20.3868 14.887C20.2455 14.9957 20.0665 15.025 19.8498 14.975C19.5998 14.925 19.3458 14.8873 19.0878 14.862C18.8291 14.8373 18.5665 14.825 18.2998 14.825C17.8165 14.825 17.3458 14.8707 16.8878 14.962C16.4291 15.054 15.9915 15.1833 15.5748 15.35C15.3248 15.45 15.1248 15.4457 14.9748 15.337C14.8248 15.229 14.7498 15.0583 14.7498 14.825ZM14.7498 12.1C14.7498 11.9833 14.7871 11.8667 14.8618 11.75C14.9371 11.6333 15.0248 11.55 15.1248 11.5C15.6248 11.3 16.1375 11.15 16.6628 11.05C17.1875 10.95 17.7331 10.9 18.2998 10.9C18.6331 10.9 18.9498 10.9207 19.2498 10.962C19.5498 11.004 19.8581 11.0583 20.1748 11.125C20.2915 11.1417 20.3915 11.204 20.4748 11.312C20.5581 11.4207 20.5998 11.5417 20.5998 11.675C20.5998 11.8917 20.5288 12.054 20.3868 12.162C20.2455 12.2707 20.0665 12.2917 19.8498 12.225C19.5998 12.175 19.3458 12.1417 19.0878 12.125C18.8291 12.1083 18.5665 12.1 18.2998 12.1C17.8165 12.1 17.3458 12.146 16.8878 12.238C16.4291 12.3293 15.9915 12.4583 15.5748 12.625C15.3248 12.725 15.1248 12.7207 14.9748 12.612C14.8248 12.504 14.7498 12.3333 14.7498 12.1ZM7.2998 16.525C8.13314 16.525 8.94147 16.6167 9.7248 16.8C10.5081 16.9833 11.2831 17.275 12.0498 17.675V7.85001C11.3498 7.40001 10.5915 7.05834 9.77481 6.82501C8.95814 6.59167 8.13314 6.47501 7.2998 6.47501C6.6998 6.47501 6.13714 6.52501 5.6118 6.62501C5.08714 6.72501 4.5498 6.87501 3.9998 7.07501C3.93314 7.10834 3.88314 7.15001 3.8498 7.20001C3.81647 7.25001 3.7998 7.30001 3.7998 7.35001V16.8C3.7998 16.9 3.83314 16.9707 3.8998 17.012C3.96647 17.054 4.03314 17.0583 4.0998 17.025C4.58314 16.8583 5.08714 16.7333 5.6118 16.65C6.13714 16.5667 6.6998 16.525 7.2998 16.525ZM13.5498 17.675C14.3165 17.275 15.0915 16.9833 15.8748 16.8C16.6581 16.6167 17.4665 16.525 18.2998 16.525C18.8998 16.525 19.4625 16.5667 19.9878 16.65C20.5125 16.7333 21.0165 16.8583 21.4998 17.025C21.5665 17.0583 21.6331 17.054 21.6998 17.012C21.7665 16.9707 21.7998 16.9 21.7998 16.8V7.35001C21.7998 7.30001 21.7831 7.25001 21.7498 7.20001C21.7165 7.15001 21.6665 7.10834 21.5998 7.07501C21.0498 6.87501 20.5125 6.72501 19.9878 6.62501C19.4625 6.52501 18.8998 6.47501 18.2998 6.47501C17.4665 6.47501 16.6415 6.59167 15.8248 6.82501C15.0081 7.05834 14.2498 7.40001 13.5498 7.85001V17.675ZM12.7998 19.475C12.5998 19.475 12.4165 19.45 12.2498 19.4C12.0831 19.35 11.9248 19.2833 11.7748 19.2C11.0915 18.8167 10.3705 18.525 9.6118 18.325C8.85381 18.125 8.08314 18.025 7.2998 18.025C6.68314 18.025 6.08314 18.0917 5.4998 18.225C4.91647 18.3583 4.3498 18.5583 3.7998 18.825C3.4498 18.9917 3.11247 18.9667 2.7878 18.75C2.46247 18.5333 2.2998 18.225 2.2998 17.825V6.97501C2.2998 6.75834 2.35414 6.55401 2.4628 6.36201C2.5708 6.17067 2.73314 6.03334 2.9498 5.95001C3.61647 5.61667 4.3208 5.37067 5.0628 5.21201C5.80414 5.05401 6.5498 4.97501 7.2998 4.97501C8.26647 4.97501 9.21647 5.10834 10.1498 5.37501C11.0831 5.64167 11.9665 6.03334 12.7998 6.55001C13.6331 6.03334 14.5165 5.64167 15.4498 5.37501C16.3831 5.10834 17.3331 4.97501 18.2998 4.97501C19.0498 4.97501 19.7958 5.05401 20.5378 5.21201C21.2791 5.37067 21.9831 5.61667 22.6498 5.95001C22.8665 6.03334 23.0288 6.17067 23.1368 6.36201C23.2455 6.55401 23.2998 6.75834 23.2998 6.97501V17.825C23.2998 18.225 23.1331 18.5293 22.7998 18.738C22.4665 18.946 22.1165 18.9667 21.7498 18.8C21.1998 18.55 20.6375 18.3583 20.0628 18.225C19.4875 18.0917 18.8998 18.025 18.2998 18.025C17.5165 18.025 16.7458 18.125 15.9878 18.325C15.2291 18.525 14.5081 18.8167 13.8248 19.2C13.6748 19.2833 13.5165 19.35 13.3498 19.4C13.1831 19.45 12.9998 19.475 12.7998 19.475Z" fill="#606060"/>
</g>
</svg>
