<svg width="24" height="24" viewBox="0 0 24 24" fill="none" xmlns="http://www.w3.org/2000/svg">
<mask id="mask0_1279_23057" style="mask-type:alpha" maskUnits="userSpaceOnUse" x="0" y="0" width="24" height="24">
<rect width="24" height="24" fill="#D9D9D9"/>
</mask>
<g mask="url(#mask0_1279_23057)">
<path d="M8.35 14.8654C8.60897 15.6077 8.98108 16.1974 9.46635 16.6346C9.9516 17.0718 10.5603 17.3756 11.2923 17.5462V18.125C11.2923 18.3071 11.3606 18.4663 11.4971 18.6029C11.6336 18.7394 11.7929 18.8077 11.975 18.8077C12.157 18.8077 12.3163 18.7394 12.4529 18.6029C12.5894 18.4663 12.6577 18.3071 12.6577 18.125V17.5962C13.4333 17.491 14.1355 17.1997 14.7644 16.7221C15.3932 16.2446 15.7077 15.5205 15.7077 14.55C15.7077 13.85 15.5012 13.2308 15.0884 12.6923C14.6756 12.1539 13.8692 11.668 12.6692 11.2346C11.6179 10.8756 10.9198 10.5647 10.575 10.3019C10.2301 10.0391 10.0577 9.67181 10.0577 9.20001C10.0577 8.72821 10.2343 8.34487 10.5875 8.05001C10.9407 7.75512 11.4282 7.60768 12.05 7.60768C12.5705 7.60768 12.9904 7.73044 13.3096 7.97596C13.6288 8.22147 13.8743 8.52948 14.0461 8.89998L15.2807 8.40386C15.0717 7.87181 14.731 7.41636 14.2586 7.03751C13.7862 6.65867 13.2692 6.44746 12.7077 6.40386V5.87501C12.7077 5.69296 12.6394 5.53367 12.5029 5.39713C12.3663 5.2606 12.207 5.19233 12.025 5.19233C11.8429 5.19233 11.6836 5.2606 11.5471 5.39713C11.4106 5.53367 11.3423 5.69296 11.3423 5.87501V6.40386C10.4897 6.56796 9.83493 6.91379 9.37788 7.44136C8.92083 7.96892 8.6923 8.55514 8.6923 9.20001C8.6923 9.95129 8.91987 10.5558 9.375 11.0135C9.83012 11.4712 10.5718 11.8846 11.6 12.2539C12.6628 12.6436 13.3888 12.9933 13.7779 13.3029C14.167 13.6125 14.3615 14.0282 14.3615 14.55C14.3615 15.1769 14.1352 15.6324 13.6827 15.9164C13.2301 16.2003 12.7208 16.3423 12.1548 16.3423C11.5888 16.3423 11.0836 16.1731 10.6394 15.8346C10.1952 15.4962 9.85382 15.0013 9.61535 14.35L8.35 14.8654ZM12.0016 21.5C10.6877 21.5 9.45268 21.2506 8.29655 20.752C7.1404 20.2533 6.13472 19.5766 5.2795 18.7217C4.42427 17.8669 3.74721 16.8616 3.24833 15.706C2.74944 14.5504 2.5 13.3156 2.5 12.0017C2.5 10.6877 2.74933 9.45271 3.248 8.29658C3.74667 7.14043 4.42342 6.13475 5.27825 5.27953C6.1331 4.4243 7.13834 3.74724 8.29398 3.24836C9.44959 2.74947 10.6844 2.50003 11.9983 2.50003C13.3122 2.50003 14.5473 2.74936 15.7034 3.24803C16.8596 3.7467 17.8652 4.42345 18.7205 5.27828C19.5757 6.13313 20.2527 7.13837 20.7516 8.29401C21.2505 9.44962 21.5 10.6844 21.5 11.9983C21.5 13.3123 21.2506 14.5473 20.752 15.7034C20.2533 16.8596 19.5765 17.8653 18.7217 18.7205C17.8669 19.5757 16.8616 20.2528 15.706 20.7517C14.5504 21.2505 13.3156 21.5 12.0016 21.5ZM12 20C14.2333 20 16.125 19.225 17.675 17.675C19.225 16.125 20 14.2333 20 12C20 9.76667 19.225 7.87501 17.675 6.32501C16.125 4.77501 14.2333 4.00001 12 4.00001C9.76664 4.00001 7.87498 4.77501 6.32498 6.32501C4.77498 7.87501 3.99998 9.76667 3.99998 12C3.99998 14.2333 4.77498 16.125 6.32498 17.675C7.87498 19.225 9.76664 20 12 20Z" fill="#FCFCFC"/>
</g>
</svg>
