<svg width="24" height="24" viewBox="0 0 24 24" fill="none" xmlns="http://www.w3.org/2000/svg">
<mask id="mask0_1279_23045" style="mask-type:alpha" maskUnits="userSpaceOnUse" x="0" y="0" width="24" height="24">
<rect width="24" height="24" fill="#D9D9D9"/>
</mask>
<g mask="url(#mask0_1279_23045)">
<path d="M5.4038 15.6116V8.18269C5.4038 7.16604 5.76181 6.2997 6.47783 5.58367C7.19386 4.86765 8.0602 4.50964 9.07685 4.50964C10.0935 4.50964 10.9599 4.86765 11.6759 5.58367C12.3919 6.2997 12.7499 7.16604 12.7499 8.18269V14.8269C12.7499 15.4282 12.9618 15.9407 13.3855 16.3644C13.8092 16.7881 14.3217 17 14.923 17C15.5243 17 16.0368 16.7881 16.4605 16.3644C16.8842 15.9407 17.0961 15.4282 17.0961 14.8269V7.39804L15.7884 8.70577C15.6397 8.85449 15.4631 8.92788 15.2586 8.92594C15.0541 8.92403 14.8743 8.8455 14.7192 8.69037C14.5743 8.53525 14.4993 8.35962 14.4942 8.16347C14.489 7.96732 14.564 7.79169 14.7192 7.63657L17.2134 5.14234C17.307 5.04874 17.4057 4.98272 17.5095 4.94427C17.6134 4.9058 17.7256 4.88657 17.8461 4.88657C17.9666 4.88657 18.0788 4.9058 18.1826 4.94427C18.2865 4.98272 18.3852 5.04874 18.4788 5.14234L20.973 7.63657C21.1217 7.78527 21.1951 7.9593 21.1932 8.15867C21.1912 8.35802 21.1178 8.53525 20.973 8.69037C20.8179 8.8455 20.6397 8.92564 20.4384 8.93077C20.2371 8.93589 20.0589 8.86089 19.9038 8.70577L18.5961 7.39804V14.8269C18.5961 15.8436 18.238 16.7099 17.522 17.4259C16.806 18.142 15.9397 18.5 14.923 18.5C13.9063 18.5 13.04 18.142 12.324 17.4259C11.608 16.7099 11.25 15.8436 11.25 14.8269V8.18269C11.25 7.58141 11.0381 7.06891 10.6144 6.64519C10.1906 6.22148 9.67814 6.00962 9.07685 6.00962C8.47557 6.00962 7.96307 6.22148 7.53935 6.64519C7.11564 7.06891 6.90378 7.58141 6.90378 8.18269V15.6116L8.2115 14.3038C8.3602 14.1551 8.53679 14.0817 8.74128 14.0836C8.94576 14.0856 9.12557 14.1641 9.2807 14.3192C9.42557 14.4744 9.50057 14.65 9.5057 14.8461C9.51082 15.0423 9.43582 15.2179 9.2807 15.373L6.78648 17.8673C6.69288 17.9609 6.59416 18.0269 6.49033 18.0653C6.38648 18.1038 6.27429 18.123 6.15378 18.123C6.03328 18.123 5.9211 18.1038 5.81725 18.0653C5.7134 18.0269 5.61469 17.9609 5.5211 17.8673L3.02688 15.373C2.87816 15.2243 2.80476 15.0503 2.80668 14.8509C2.80861 14.6516 2.88201 14.4744 3.02688 14.3192C3.18199 14.1641 3.36019 14.084 3.56148 14.0788C3.76276 14.0737 3.94096 14.1487 4.09608 14.3038L5.4038 15.6116Z" fill="#FCFCFC"/>
</g>
</svg>
