<svg width="24" height="25" viewBox="0 0 24 25" fill="none" xmlns="http://www.w3.org/2000/svg">
<mask id="mask0_1144_3323" style="mask-type:alpha" maskUnits="userSpaceOnUse" x="0" y="0" width="24" height="25">
<rect y="0.5" width="24" height="24" fill="#D9D9D9"/>
</mask>
<g mask="url(#mask0_1144_3323)">
<path d="M5.4038 16.1116V8.68269C5.4038 7.66604 5.76181 6.7997 6.47783 6.08367C7.19386 5.36765 8.0602 5.00964 9.07685 5.00964C10.0935 5.00964 10.9599 5.36765 11.6759 6.08367C12.3919 6.7997 12.7499 7.66604 12.7499 8.68269V15.3269C12.7499 15.9282 12.9618 16.4407 13.3855 16.8644C13.8092 17.2881 14.3217 17.5 14.923 17.5C15.5243 17.5 16.0368 17.2881 16.4605 16.8644C16.8842 16.4407 17.0961 15.9282 17.0961 15.3269V7.89804L15.7884 9.20577C15.6397 9.35449 15.4631 9.42788 15.2586 9.42594C15.0541 9.42403 14.8743 9.3455 14.7192 9.19037C14.5743 9.03525 14.4993 8.85962 14.4942 8.66347C14.489 8.46732 14.564 8.29169 14.7192 8.13657L17.2134 5.64234C17.307 5.54874 17.4057 5.48272 17.5095 5.44427C17.6134 5.4058 17.7256 5.38657 17.8461 5.38657C17.9666 5.38657 18.0788 5.4058 18.1826 5.44427C18.2865 5.48272 18.3852 5.54874 18.4788 5.64234L20.973 8.13657C21.1217 8.28527 21.1951 8.4593 21.1932 8.65867C21.1912 8.85802 21.1178 9.03525 20.973 9.19037C20.8179 9.3455 20.6397 9.42564 20.4384 9.43077C20.2371 9.43589 20.0589 9.36089 19.9038 9.20577L18.5961 7.89804V15.3269C18.5961 16.3436 18.238 17.2099 17.522 17.9259C16.806 18.642 15.9397 19 14.923 19C13.9063 19 13.04 18.642 12.324 17.9259C11.608 17.2099 11.25 16.3436 11.25 15.3269V8.68269C11.25 8.08141 11.0381 7.56891 10.6144 7.14519C10.1906 6.72148 9.67814 6.50962 9.07685 6.50962C8.47557 6.50962 7.96307 6.72148 7.53935 7.14519C7.11564 7.56891 6.90378 8.08141 6.90378 8.68269V16.1116L8.2115 14.8038C8.3602 14.6551 8.53679 14.5817 8.74128 14.5836C8.94576 14.5856 9.12557 14.6641 9.2807 14.8192C9.42557 14.9744 9.50057 15.15 9.5057 15.3461C9.51082 15.5423 9.43582 15.7179 9.2807 15.873L6.78648 18.3673C6.69288 18.4609 6.59416 18.5269 6.49033 18.5653C6.38648 18.6038 6.27429 18.623 6.15378 18.623C6.03328 18.623 5.9211 18.6038 5.81725 18.5653C5.7134 18.5269 5.61469 18.4609 5.5211 18.3673L3.02688 15.873C2.87816 15.7243 2.80476 15.5503 2.80668 15.3509C2.80861 15.1516 2.88201 14.9744 3.02688 14.8192C3.18199 14.6641 3.36019 14.584 3.56148 14.5788C3.76276 14.5737 3.94096 14.6487 4.09608 14.8038L5.4038 16.1116Z" fill="#606060"/>
</g>
</svg>
