<svg width="24" height="25" viewBox="0 0 24 25" fill="none" xmlns="http://www.w3.org/2000/svg">
<mask id="mask0_1224_98823" style="mask-type:alpha" maskUnits="userSpaceOnUse" x="0" y="0" width="24" height="25">
<rect y="0.5" width="24" height="24" fill="#D9D9D9"/>
</mask>
<g mask="url(#mask0_1224_98823)">
<path d="M10.5577 20.3269H13.4423C13.5628 20.3269 13.6666 20.2833 13.7538 20.1962C13.841 20.109 13.8846 20.0051 13.8846 19.8846C13.8846 19.7641 13.841 19.6603 13.7538 19.5731C13.6666 19.4859 13.5628 19.4423 13.4423 19.4423H10.5577C10.4372 19.4423 10.3333 19.4859 10.2461 19.5731C10.159 19.6603 10.1154 19.7641 10.1154 19.8846C10.1154 20.0051 10.159 20.109 10.2461 20.1962C10.3333 20.2833 10.4372 20.3269 10.5577 20.3269ZM7.3077 23C6.80257 23 6.375 22.825 6.025 22.475C5.675 22.125 5.5 21.6974 5.5 21.1923V3.80773C5.5 3.3026 5.675 2.87503 6.025 2.52503C6.375 2.17503 6.80257 2.00003 7.3077 2.00003H16.6922C17.1974 2.00003 17.625 2.17503 17.975 2.52503C18.325 2.87503 18.5 3.3026 18.5 3.80773V21.1923C18.5 21.6974 18.325 22.125 17.975 22.475C17.625 22.825 17.1974 23 16.6922 23H7.3077ZM6.99997 18.2692V21.1923C6.99997 21.2692 7.03202 21.3397 7.09613 21.4039C7.16024 21.468 7.23077 21.5 7.3077 21.5H16.6922C16.7692 21.5 16.8397 21.468 16.9038 21.4039C16.9679 21.3397 17 21.2692 17 21.1923V18.2692H6.99997ZM6.99997 16.7693H17V6.24998H6.99997V16.7693ZM6.99997 4.75003H17V3.80773C17 3.7308 16.9679 3.66027 16.9038 3.59616C16.8397 3.53206 16.7692 3.50001 16.6922 3.50001H7.3077C7.23077 3.50001 7.16024 3.53206 7.09613 3.59616C7.03202 3.66027 6.99997 3.7308 6.99997 3.80773V4.75003Z" fill="#606060"/>
</g>
</svg>
