<svg width="24" height="24" viewBox="0 0 24 24" fill="none" xmlns="http://www.w3.org/2000/svg">
<mask id="mask0_1279_23055" style="mask-type:alpha" maskUnits="userSpaceOnUse" x="0" y="0" width="24" height="24">
<rect width="24" height="24" fill="#D9D9D9"/>
</mask>
<g mask="url(#mask0_1279_23055)">
<path d="M10.5577 19.8269H13.4423C13.5628 19.8269 13.6666 19.7833 13.7538 19.6962C13.841 19.609 13.8846 19.5051 13.8846 19.3846C13.8846 19.2641 13.841 19.1603 13.7538 19.0731C13.6666 18.9859 13.5628 18.9423 13.4423 18.9423H10.5577C10.4372 18.9423 10.3333 18.9859 10.2461 19.0731C10.159 19.1603 10.1154 19.2641 10.1154 19.3846C10.1154 19.5051 10.159 19.609 10.2461 19.6962C10.3333 19.7833 10.4372 19.8269 10.5577 19.8269ZM7.3077 22.5C6.80257 22.5 6.375 22.325 6.025 21.975C5.675 21.625 5.5 21.1974 5.5 20.6923V3.30773C5.5 2.8026 5.675 2.37503 6.025 2.02503C6.375 1.67503 6.80257 1.50003 7.3077 1.50003H16.6922C17.1974 1.50003 17.625 1.67503 17.975 2.02503C18.325 2.37503 18.5 2.8026 18.5 3.30773V20.6923C18.5 21.1974 18.325 21.625 17.975 21.975C17.625 22.325 17.1974 22.5 16.6922 22.5H7.3077ZM6.99997 17.7692V20.6923C6.99997 20.7692 7.03203 20.8397 7.09613 20.9039C7.16024 20.968 7.23077 21 7.3077 21H16.6922C16.7692 21 16.8397 20.968 16.9038 20.9039C16.9679 20.8397 17 20.7692 17 20.6923V17.7692H6.99997ZM6.99997 16.2693H17V5.74998H6.99997V16.2693ZM6.99997 4.25003H17V3.30773C17 3.2308 16.9679 3.16027 16.9038 3.09616C16.8397 3.03206 16.7692 3.00001 16.6922 3.00001H7.3077C7.23077 3.00001 7.16024 3.03206 7.09613 3.09616C7.03203 3.16027 6.99997 3.2308 6.99997 3.30773V4.25003Z" fill="#FCFCFC"/>
</g>
</svg>
