<svg width="24" height="24" viewBox="0 0 24 24" fill="none" xmlns="http://www.w3.org/2000/svg">
<mask id="mask0_1279_23059" style="mask-type:alpha" maskUnits="userSpaceOnUse" x="0" y="0" width="24" height="24">
<rect width="24" height="24" fill="#D9D9D9"/>
</mask>
<g mask="url(#mask0_1279_23059)">
<path d="M12.3077 21.5C11.8026 21.5 11.375 21.325 11.025 20.975C10.675 20.625 10.5 20.1974 10.5 19.6923V12.3077C10.5 11.8026 10.675 11.375 11.025 11.025C11.375 10.675 11.8026 10.5 12.3077 10.5H19.6923C20.1974 10.5 20.625 10.675 20.975 11.025C21.325 11.375 21.5 11.8026 21.5 12.3077V19.6923C21.5 20.1974 21.325 20.625 20.975 20.975C20.625 21.325 20.1974 21.5 19.6923 21.5H12.3077ZM12.3077 20H19.6923C19.7692 20 19.8397 19.968 19.9038 19.9039C19.9679 19.8397 20 19.7692 20 19.6923V12.3077C20 12.2308 19.9679 12.1603 19.9038 12.0962C19.8397 12.0321 19.7692 12 19.6923 12H12.3077C12.2308 12 12.1602 12.0321 12.0961 12.0962C12.032 12.1603 12 12.2308 12 12.3077V19.6923C12 19.7692 12.032 19.8397 12.0961 19.9039C12.1602 19.968 12.2308 20 12.3077 20ZM6.5 16.8654V8.30773C6.5 7.8026 6.675 7.37503 7.025 7.02503C7.375 6.67503 7.80257 6.50003 8.3077 6.50003H16.8654C17.0782 6.50003 17.2564 6.57183 17.4 6.71543C17.5435 6.85902 17.6153 7.03721 17.6153 7.25003C17.6153 7.46285 17.5435 7.64105 17.4 7.78463C17.2564 7.92822 17.0782 8.00001 16.8654 8.00001H8.3077C8.23077 8.00001 8.16024 8.03206 8.09613 8.09616C8.03203 8.16027 7.99998 8.2308 7.99998 8.30773V16.8654C7.99998 17.0782 7.92818 17.2564 7.7846 17.4C7.64102 17.5436 7.46282 17.6154 7.25 17.6154C7.03718 17.6154 6.85898 17.5436 6.7154 17.4C6.5718 17.2564 6.5 17.0782 6.5 16.8654ZM2.5 12.8654V4.30773C2.5 3.8026 2.675 3.37503 3.025 3.02503C3.375 2.67503 3.80257 2.50003 4.3077 2.50003H12.8654C13.0782 2.50003 13.2564 2.57183 13.4 2.71543C13.5435 2.85901 13.6153 3.03721 13.6153 3.25003C13.6153 3.46285 13.5435 3.64105 13.4 3.78463C13.2564 3.92821 13.0782 4.00001 12.8654 4.00001H4.3077C4.23077 4.00001 4.16024 4.03206 4.09613 4.09616C4.03203 4.16027 3.99998 4.2308 3.99998 4.30773V12.8654C3.99998 13.0782 3.92818 13.2564 3.7846 13.4C3.64102 13.5436 3.46282 13.6154 3.25 13.6154C3.03718 13.6154 2.85898 13.5436 2.7154 13.4C2.5718 13.2564 2.5 13.0782 2.5 12.8654Z" fill="#FCFCFC"/>
</g>
</svg>
