<svg width="24" height="24" viewBox="0 0 24 24" fill="none" xmlns="http://www.w3.org/2000/svg">
<mask id="mask0_1279_23037" style="mask-type:alpha" maskUnits="userSpaceOnUse" x="0" y="0" width="24" height="24">
<rect width="24" height="24" fill="#D9D9D9"/>
</mask>
<g mask="url(#mask0_1279_23037)">
<path d="M12.0004 19.6C11.8504 19.6 11.7044 19.5793 11.5624 19.538C11.4211 19.496 11.2754 19.4417 11.1254 19.375L6.45039 16.825C6.15039 16.6583 5.91706 16.4377 5.75039 16.163C5.58372 15.8877 5.50039 15.575 5.50039 15.225V10.9L3.50039 9.80001C3.33372 9.70001 3.21306 9.58335 3.13839 9.45001C3.06306 9.31668 3.02539 9.16668 3.02539 9.00001C3.02539 8.83335 3.06306 8.68335 3.13839 8.55001C3.21306 8.41668 3.33372 8.30001 3.50039 8.20001L11.1254 4.05001C11.2754 3.96668 11.4211 3.90835 11.5624 3.87501C11.7044 3.84168 11.8504 3.82501 12.0004 3.82501C12.1504 3.82501 12.2964 3.84568 12.4384 3.88701C12.5797 3.92901 12.7254 3.98335 12.8754 4.05001L21.4754 8.75001C21.6421 8.83335 21.7631 8.94568 21.8384 9.08701C21.9131 9.22901 21.9504 9.38335 21.9504 9.55001V15.45C21.9504 15.65 21.8797 15.825 21.7384 15.975C21.5964 16.125 21.4171 16.2 21.2004 16.2C21.0004 16.2 20.8254 16.125 20.6754 15.975C20.5254 15.825 20.4504 15.65 20.4504 15.45V9.82501L18.5004 10.9V15.225C18.5004 15.575 18.4171 15.8877 18.2504 16.163C18.0837 16.4377 17.8504 16.6583 17.5504 16.825L12.8754 19.375C12.7254 19.4417 12.5797 19.496 12.4384 19.538C12.2964 19.5793 12.1504 19.6 12.0004 19.6ZM11.8754 12.65C11.9254 12.6667 11.9671 12.675 12.0004 12.675C12.0337 12.675 12.0754 12.6667 12.1254 12.65L18.8504 9.00001L12.1254 5.37501C12.0754 5.34168 12.0337 5.32501 12.0004 5.32501C11.9671 5.32501 11.9254 5.34168 11.8754 5.37501L5.15039 9.00001L11.8754 12.65ZM11.8754 18.075C11.9254 18.0917 11.9671 18.1 12.0004 18.1C12.0337 18.1 12.0754 18.0917 12.1254 18.075L16.8504 15.525C16.9004 15.4917 16.9377 15.454 16.9624 15.412C16.9877 15.3707 17.0004 15.3167 17.0004 15.25V11.7L12.8754 13.95C12.7421 14.0333 12.6004 14.0917 12.4504 14.125C12.3004 14.1583 12.1504 14.175 12.0004 14.175C11.8504 14.175 11.7004 14.1583 11.5504 14.125C11.4004 14.0917 11.2587 14.0333 11.1254 13.95L7.00039 11.7V15.25C7.00039 15.3 7.01272 15.35 7.03739 15.4C7.06272 15.45 7.10039 15.4917 7.15039 15.525L11.8754 18.075Z" fill="#FCFCFC"/>
</g>
</svg>
