<svg width="25" height="25" viewBox="0 0 25 25" fill="none" xmlns="http://www.w3.org/2000/svg">
<mask id="mask0_411_383" style="mask-type:alpha" maskUnits="userSpaceOnUse" x="0" y="0" width="25" height="25">
<rect x="0.599609" y="0.5" width="24" height="24" fill="#D9D9D9"/>
</mask>
<g mask="url(#mask0_411_383)">
<path d="M12.6 20.1C12.45 20.1 12.304 20.0793 12.162 20.038C12.0207 19.996 11.875 19.9417 11.725 19.875L7.05 17.325C6.75 17.1583 6.51667 16.9377 6.35 16.663C6.18333 16.3877 6.1 16.075 6.1 15.725V11.4L4.1 10.3C3.93333 10.2 3.81267 10.0833 3.738 9.95001C3.66267 9.81668 3.625 9.66668 3.625 9.50001C3.625 9.33335 3.66267 9.18335 3.738 9.05001C3.81267 8.91668 3.93333 8.80001 4.1 8.70001L11.725 4.55001C11.875 4.46668 12.0207 4.40835 12.162 4.37501C12.304 4.34168 12.45 4.32501 12.6 4.32501C12.75 4.32501 12.896 4.34568 13.038 4.38701C13.1793 4.42901 13.325 4.48335 13.475 4.55001L22.075 9.25001C22.2417 9.33335 22.3627 9.44568 22.438 9.58701C22.5127 9.72901 22.55 9.88335 22.55 10.05V15.95C22.55 16.15 22.4793 16.325 22.338 16.475C22.196 16.625 22.0167 16.7 21.8 16.7C21.6 16.7 21.425 16.625 21.275 16.475C21.125 16.325 21.05 16.15 21.05 15.95V10.325L19.1 11.4V15.725C19.1 16.075 19.0167 16.3877 18.85 16.663C18.6833 16.9377 18.45 17.1583 18.15 17.325L13.475 19.875C13.325 19.9417 13.1793 19.996 13.038 20.038C12.896 20.0793 12.75 20.1 12.6 20.1ZM12.475 13.15C12.525 13.1667 12.5667 13.175 12.6 13.175C12.6333 13.175 12.675 13.1667 12.725 13.15L19.45 9.50001L12.725 5.87501C12.675 5.84168 12.6333 5.82501 12.6 5.82501C12.5667 5.82501 12.525 5.84168 12.475 5.87501L5.75 9.50001L12.475 13.15ZM12.475 18.575C12.525 18.5917 12.5667 18.6 12.6 18.6C12.6333 18.6 12.675 18.5917 12.725 18.575L17.45 16.025C17.5 15.9917 17.5373 15.954 17.562 15.912C17.5873 15.8707 17.6 15.8167 17.6 15.75V12.2L13.475 14.45C13.3417 14.5333 13.2 14.5917 13.05 14.625C12.9 14.6583 12.75 14.675 12.6 14.675C12.45 14.675 12.3 14.6583 12.15 14.625C12 14.5917 11.8583 14.5333 11.725 14.45L7.6 12.2V15.75C7.6 15.8 7.61233 15.85 7.637 15.9C7.66233 15.95 7.7 15.9917 7.75 16.025L12.475 18.575Z" fill="#606060"/>
</g>
</svg>
