<svg width="24" height="25" viewBox="0 0 24 25" fill="none" xmlns="http://www.w3.org/2000/svg">
<mask id="mask0_1144_3322" style="mask-type:alpha" maskUnits="userSpaceOnUse" x="0" y="0" width="24" height="25">
<rect y="0.5" width="24" height="24" fill="#D9D9D9"/>
</mask>
<g mask="url(#mask0_1144_3322)">
<path d="M9.16321 13.1442C8.95063 13.1442 8.77254 13.0723 8.62896 12.9286C8.48538 12.7848 8.41359 12.6067 8.41359 12.3942V5.86343L6.09624 8.18078C5.96099 8.31923 5.79192 8.38845 5.58904 8.38845C5.38615 8.38845 5.20715 8.31672 5.05204 8.17325C4.8969 8.01674 4.81934 7.83784 4.81934 7.63655C4.81934 7.43527 4.8969 7.25707 5.05204 7.10195L8.52126 3.63273C8.61484 3.53915 8.71399 3.47312 8.81869 3.43465C8.92339 3.39619 9.03557 3.37695 9.15524 3.37695C9.27489 3.37695 9.38855 3.39633 9.49624 3.43508C9.60394 3.47385 9.70394 3.53973 9.79624 3.63273L13.2905 7.12695C13.4392 7.27567 13.5126 7.4481 13.5107 7.64425C13.5087 7.8404 13.4302 8.01674 13.2751 8.17325C13.12 8.31672 12.9443 8.39102 12.7482 8.39615C12.552 8.40129 12.3764 8.32629 12.2213 8.17115L9.91354 5.86343V12.4039C9.91354 12.6136 9.84164 12.7895 9.69784 12.9314C9.55402 13.0733 9.37581 13.1442 9.16321 13.1442ZM14.8449 21.6134C14.7253 21.6134 14.6116 21.5941 14.5039 21.5553C14.3962 21.5166 14.2962 21.4507 14.2039 21.3577L10.7097 17.8634C10.561 17.7147 10.4876 17.5423 10.4895 17.3462C10.4914 17.15 10.57 16.9737 10.7251 16.8172C10.8802 16.6737 11.0558 16.5994 11.252 16.5942C11.4481 16.5891 11.6238 16.6641 11.7789 16.8192L14.0866 19.127V12.5866C14.0866 12.3768 14.1585 12.2009 14.3023 12.059C14.4462 11.9171 14.6244 11.8462 14.837 11.8462C15.0495 11.8462 15.2276 11.9181 15.3712 12.0618C15.5148 12.2056 15.5866 12.3837 15.5866 12.5962V19.127L17.9039 16.8096C18.0392 16.6712 18.2083 16.6019 18.4111 16.6019C18.614 16.6019 18.793 16.6737 18.9481 16.8172C19.1033 16.9737 19.1808 17.1526 19.1808 17.3538C19.1808 17.5551 19.1033 17.7333 18.9481 17.8884L15.4789 21.3577C15.3853 21.4513 15.2862 21.5173 15.1815 21.5557C15.0768 21.5942 14.9646 21.6134 14.8449 21.6134Z" fill="#606060"/>
</g>
</svg>
