<svg width="24" height="25" viewBox="0 0 24 25" fill="none" xmlns="http://www.w3.org/2000/svg">
<mask id="mask0_441_490" style="mask-type:alpha" maskUnits="userSpaceOnUse" x="0" y="0" width="24" height="25">
<rect y="0.5" width="24" height="24" fill="#D9D9D9"/>
</mask>
<g mask="url(#mask0_441_490)">
<path d="M18 22.25C17.2333 22.25 16.5833 21.9833 16.05 21.45C15.5167 20.9167 15.25 20.2667 15.25 19.5C15.25 19.3833 15.2583 19.254 15.275 19.112C15.2917 18.9707 15.325 18.85 15.375 18.75L7.975 14.4C7.70833 14.6667 7.40833 14.875 7.075 15.025C6.74167 15.175 6.38333 15.25 6 15.25C5.23333 15.25 4.58333 14.9833 4.05 14.45C3.51667 13.9167 3.25 13.2667 3.25 12.5C3.25 11.7333 3.51667 11.0833 4.05 10.55C4.58333 10.0167 5.23333 9.75 6 9.75C6.38333 9.75 6.74167 9.825 7.075 9.975C7.40833 10.125 7.70833 10.3333 7.975 10.6L15.375 6.25C15.325 6.15 15.2917 6.029 15.275 5.887C15.2583 5.74567 15.25 5.61667 15.25 5.5C15.25 4.73333 15.5167 4.08333 16.05 3.55C16.5833 3.01667 17.2333 2.75 18 2.75C18.7667 2.75 19.4167 3.01667 19.95 3.55C20.4833 4.08333 20.75 4.73333 20.75 5.5C20.75 6.26667 20.4833 6.91667 19.95 7.45C19.4167 7.98333 18.7667 8.25 18 8.25C17.6167 8.25 17.2583 8.175 16.925 8.025C16.5917 7.875 16.2917 7.66667 16.025 7.4L8.625 11.75C8.675 11.85 8.70833 11.9667 8.725 12.1C8.74167 12.2333 8.75 12.3667 8.75 12.5C8.75 12.6167 8.74167 12.7457 8.725 12.887C8.70833 13.029 8.675 13.15 8.625 13.25L16.025 17.6C16.2917 17.3333 16.5917 17.125 16.925 16.975C17.2583 16.825 17.6167 16.75 18 16.75C18.7667 16.75 19.4167 17.0167 19.95 17.55C20.4833 18.0833 20.75 18.7333 20.75 19.5C20.75 20.2667 20.4833 20.9167 19.95 21.45C19.4167 21.9833 18.7667 22.25 18 22.25ZM18 6.75C18.35 6.75 18.646 6.629 18.888 6.387C19.1293 6.14567 19.25 5.85 19.25 5.5C19.25 5.15 19.1293 4.854 18.888 4.612C18.646 4.37067 18.35 4.25 18 4.25C17.65 4.25 17.3543 4.37067 17.113 4.612C16.871 4.854 16.75 5.15 16.75 5.5C16.75 5.85 16.871 6.14567 17.113 6.387C17.3543 6.629 17.65 6.75 18 6.75ZM6 13.75C6.35 13.75 6.646 13.629 6.888 13.387C7.12933 13.1457 7.25 12.85 7.25 12.5C7.25 12.15 7.12933 11.8543 6.888 11.613C6.646 11.371 6.35 11.25 6 11.25C5.65 11.25 5.35433 11.371 5.113 11.613C4.871 11.8543 4.75 12.15 4.75 12.5C4.75 12.85 4.871 13.1457 5.113 13.387C5.35433 13.629 5.65 13.75 6 13.75ZM18 20.75C18.35 20.75 18.646 20.629 18.888 20.387C19.1293 20.1457 19.25 19.85 19.25 19.5C19.25 19.15 19.1293 18.8543 18.888 18.613C18.646 18.371 18.35 18.25 18 18.25C17.65 18.25 17.3543 18.371 17.113 18.613C16.871 18.8543 16.75 19.15 16.75 19.5C16.75 19.85 16.871 20.1457 17.113 20.387C17.3543 20.629 17.65 20.75 18 20.75Z" fill="#606060"/>
</g>
</svg>
