<svg width="24" height="25" viewBox="0 0 24 25" fill="none" xmlns="http://www.w3.org/2000/svg">
<mask id="mask0_645_1440" style="mask-type:alpha" maskUnits="userSpaceOnUse" x="0" y="0" width="24" height="25">
<rect y="0.5" width="24" height="24" fill="#D9D9D9"/>
</mask>
<g mask="url(#mask0_645_1440)">
<path d="M12 22C10.6974 22 9.46825 21.7503 8.3125 21.2509C7.15673 20.7516 6.14872 20.0718 5.28845 19.2115C4.4282 18.3513 3.7484 17.3432 3.24905 16.1875C2.74968 15.0317 2.5 13.8026 2.5 12.5C2.5 11.1872 2.74968 9.95546 3.24905 8.80483C3.7484 7.6542 4.4282 6.64875 5.28845 5.78848C6.14872 4.92823 7.15673 4.24843 8.3125 3.74908C9.46825 3.24971 10.6974 3.00003 12 3.00003C13.3128 3.00003 14.5445 3.24971 15.6952 3.74908C16.8458 4.24843 17.8512 4.92823 18.7115 5.78848C19.5718 6.64875 20.2516 7.6542 20.7509 8.80483C21.2503 9.95546 21.5 11.1872 21.5 12.5C21.5 13.8026 21.2503 15.0317 20.7509 16.1875C20.2516 17.3432 19.5718 18.3513 18.7115 19.2115C17.8512 20.0718 16.8458 20.7516 15.6952 21.2509C14.5445 21.7503 13.3128 22 12 22ZM12 20.4789C12.5102 19.8019 12.9397 19.1192 13.2885 18.4308C13.6372 17.7423 13.9211 16.9897 14.1404 16.1731H9.85958C10.0916 17.0154 10.3788 17.7808 10.7211 18.4692C11.0634 19.1577 11.4897 19.8276 12 20.4789ZM10.0635 20.2039C9.68014 19.6539 9.33591 19.0285 9.03078 18.3279C8.72564 17.6272 8.48846 16.909 8.31922 16.1731H4.92688C5.45509 17.2115 6.16343 18.084 7.0519 18.7904C7.94038 19.4968 8.94424 19.968 10.0635 20.2039ZM13.9365 20.2039C15.0557 19.968 16.0596 19.4968 16.9481 18.7904C17.8365 18.084 18.5449 17.2115 19.0731 16.1731H15.6807C15.4794 16.9154 15.2262 17.6369 14.9211 18.3375C14.616 19.0382 14.2878 19.6603 13.9365 20.2039ZM4.29805 14.6731H8.01538C7.95256 14.3013 7.90705 13.9369 7.87885 13.5798C7.85065 13.2228 7.83655 12.8628 7.83655 12.5C7.83655 12.1372 7.85065 11.7772 7.87885 11.4202C7.90705 11.0631 7.95256 10.6987 8.01538 10.3269H4.29805C4.2019 10.6667 4.12818 11.0199 4.0769 11.3865C4.02562 11.7532 3.99998 12.1244 3.99998 12.5C3.99998 12.8757 4.02562 13.2468 4.0769 13.6135C4.12818 13.9801 4.2019 14.3334 4.29805 14.6731ZM9.51535 14.6731H14.4846C14.5474 14.3013 14.5929 13.9401 14.6212 13.5894C14.6494 13.2388 14.6635 12.8757 14.6635 12.5C14.6635 12.1244 14.6494 11.7612 14.6212 11.4106C14.5929 11.0599 14.5474 10.6987 14.4846 10.3269H9.51535C9.45253 10.6987 9.40702 11.0599 9.3788 11.4106C9.3506 11.7612 9.3365 12.1244 9.3365 12.5C9.3365 12.8757 9.3506 13.2388 9.3788 13.5894C9.40702 13.9401 9.45253 14.3013 9.51535 14.6731ZM15.9846 14.6731H19.7019C19.7981 14.3334 19.8718 13.9801 19.9231 13.6135C19.9743 13.2468 20 12.8757 20 12.5C20 12.1244 19.9743 11.7532 19.9231 11.3865C19.8718 11.0199 19.7981 10.6667 19.7019 10.3269H15.9846C16.0474 10.6987 16.0929 11.0631 16.1211 11.4202C16.1493 11.7772 16.1634 12.1372 16.1634 12.5C16.1634 12.8628 16.1493 13.2228 16.1211 13.5798C16.0929 13.9369 16.0474 14.3013 15.9846 14.6731ZM15.6807 8.82696H19.0731C18.5384 7.77566 17.8349 6.90321 16.9625 6.20961C16.09 5.51602 15.0814 5.04166 13.9365 4.78653C14.3198 5.36858 14.6608 6.00512 14.9596 6.69616C15.2583 7.38719 15.4987 8.09746 15.6807 8.82696ZM9.85958 8.82696H14.1404C13.9083 7.99106 13.6163 7.22086 13.2644 6.51636C12.9125 5.81187 12.491 5.14681 12 4.52116C11.5089 5.14681 11.0875 5.81187 10.7356 6.51636C10.3836 7.22086 10.0916 7.99106 9.85958 8.82696ZM4.92688 8.82696H8.31922C8.50128 8.09746 8.74167 7.38719 9.0404 6.69616C9.33912 6.00512 9.68014 5.36858 10.0635 4.78653C8.91219 5.04166 7.90193 5.51763 7.03268 6.21443C6.16344 6.91123 5.46151 7.78207 4.92688 8.82696Z" fill="#606060"/>
</g>
</svg>
