<svg width="24" height="25" viewBox="0 0 24 25" fill="none" xmlns="http://www.w3.org/2000/svg">
<mask id="mask0_1021_1823" style="mask-type:alpha" maskUnits="userSpaceOnUse" x="0" y="0" width="24" height="25">
<rect y="0.5" width="24" height="24" fill="#D9D9D9"/>
</mask>
<g mask="url(#mask0_1021_1823)">
<path d="M12.8462 19H12C9.77254 19 7.88236 18.2237 6.32942 16.6711C4.77647 15.1186 4 13.2288 4 11.0019C4 8.77502 4.77636 6.88464 6.32907 5.33081C7.88179 3.77696 9.77172 3.00003 11.9988 3.00003C13.1124 3.00003 14.1529 3.20805 15.1202 3.62408C16.0875 4.0401 16.9346 4.61156 17.6615 5.33848C18.3884 6.06541 18.9599 6.91192 19.3759 7.87798C19.7919 8.84403 20 9.88471 20 11C20 13.0731 19.4397 14.9878 18.3192 16.7442C17.1987 18.5006 14.7795 20.9141 13.0615 21.9846C12.9333 22.0519 12.8051 22.0889 12.6769 22.0956C12.5487 22.1024 12.4308 22.0737 12.3231 22.0096C12.2154 21.9455 12.1244 21.8628 12.05 21.7615C11.9757 21.6602 11.9333 21.5371 11.9231 21.3923L12.8462 19ZM14.5 18.85C15.6833 17.85 16.6458 16.6792 17.3875 15.3375C18.1291 13.9958 18.5 12.55 18.5 11C18.5 9.18334 17.8708 7.64584 16.6125 6.38751C15.3541 5.12917 13.8166 4.50001 12 4.50001C10.1833 4.50001 8.64581 5.12917 7.38747 6.38751C6.12914 7.64584 5.49997 9.18334 5.49997 11C5.49997 12.8167 6.12914 14.3542 7.38747 15.6125C8.64581 16.8708 10.1833 17.5 12 17.5H14.5V18.85Z" fill="#606060"/>
</g>
</svg>
