<svg width="24" height="24" viewBox="0 0 24 24" fill="none" xmlns="http://www.w3.org/2000/svg">
<mask id="mask0_1279_23043" style="mask-type:alpha" maskUnits="userSpaceOnUse" x="0" y="0" width="24" height="24">
<rect width="24" height="24" fill="#D9D9D9"/>
</mask>
<g mask="url(#mask0_1279_23043)">
<path d="M12.8462 18.5H12C9.77254 18.5 7.88236 17.7237 6.32942 16.1711C4.77647 14.6186 4 12.7288 4 10.5019C4 8.27502 4.77636 6.38464 6.32907 4.83081C7.88179 3.27696 9.77172 2.50003 11.9988 2.50003C13.1124 2.50003 14.1529 2.70805 15.1202 3.12408C16.0875 3.5401 16.9346 4.11156 17.6615 4.83848C18.3884 5.56541 18.9599 6.41192 19.3759 7.37798C19.7919 8.34403 20 9.38471 20 10.5C20 12.5731 19.4397 14.4878 18.3192 16.2442C17.1987 18.0006 14.7795 20.4141 13.0615 21.4846C12.9333 21.5519 12.8051 21.5889 12.6769 21.5956C12.5487 21.6024 12.4308 21.5737 12.3231 21.5096C12.2154 21.4455 12.1244 21.3628 12.05 21.2615C11.9757 21.1602 11.9333 21.0371 11.9231 20.8923L12.8462 18.5ZM14.5 18.35C15.6833 17.35 16.6458 16.1792 17.3875 14.8375C18.1291 13.4958 18.5 12.05 18.5 10.5C18.5 8.68334 17.8708 7.14584 16.6125 5.88751C15.3541 4.62917 13.8166 4.00001 12 4.00001C10.1833 4.00001 8.64581 4.62917 7.38747 5.88751C6.12914 7.14584 5.49997 8.68334 5.49997 10.5C5.49997 12.3167 6.12914 13.8542 7.38747 15.1125C8.64581 16.3708 10.1833 17 12 17H14.5V18.35Z" fill="#FCFCFC"/>
</g>
</svg>
