<svg width="25" height="25" viewBox="0 0 25 25" fill="none" xmlns="http://www.w3.org/2000/svg">
<path fill-rule="evenodd" clip-rule="evenodd" d="M19.2861 5.40685C18.3636 4.48268 17.266 3.74988 16.0569 3.25091C14.8478 2.75194 13.5512 2.49672 12.2423 2.50003C6.75371 2.50003 2.28561 6.94582 2.28339 12.4106C2.28339 14.1571 2.74151 15.8617 3.61228 17.3653L2.2002 22.5L7.47916 21.1211C8.93939 21.9122 10.5753 22.3271 12.2379 22.3278H12.2423C17.7298 22.3278 22.1979 17.882 22.2002 12.4172C22.2039 11.115 21.9483 9.82503 21.4482 8.62175C20.948 7.41847 20.2132 6.32578 19.2861 5.40685ZM12.2423 20.6552H12.239C10.7565 20.6554 9.30127 20.2584 8.02603 19.506L7.72431 19.3271L4.59176 20.1452L5.42703 17.1059L5.23069 16.7946C4.40184 15.4813 3.96307 13.9615 3.96503 12.4106C3.96725 7.86876 7.67994 4.17369 12.2457 4.17369C13.333 4.17128 14.41 4.38354 15.4144 4.79816C16.4188 5.21279 17.3306 5.82156 18.097 6.58923C18.8675 7.35324 19.4782 8.26166 19.8939 9.262C20.3095 10.2623 20.5218 11.3347 20.5185 12.4172C20.5163 16.9591 16.8036 20.6552 12.2423 20.6552ZM16.7825 14.485C16.5329 14.3602 15.3105 13.7619 15.082 13.6791C14.8546 13.5963 14.6894 13.5554 14.523 13.8027C14.3566 14.05 13.8796 14.6075 13.7343 14.7731C13.589 14.9387 13.4437 14.9586 13.1952 14.835C12.9467 14.7113 12.1447 14.4497 11.1941 13.6062C10.4542 12.9493 9.95503 12.139 9.80972 11.8906C9.66441 11.6422 9.79419 11.5086 9.91954 11.385C10.0316 11.2746 10.168 11.0957 10.2922 10.9511C10.4165 10.8065 10.4575 10.7038 10.5407 10.5382C10.6239 10.3726 10.5829 10.228 10.5196 10.1043C10.4575 9.9796 9.95947 8.76079 9.75204 8.26509C9.55126 7.78485 9.34605 7.84889 9.19297 7.84226C9.03443 7.83581 8.87577 7.83286 8.7171 7.83343C8.59093 7.83663 8.46678 7.86574 8.35244 7.91893C8.2381 7.97213 8.13604 8.04826 8.05265 8.14255C7.82414 8.39095 7.18188 8.98931 7.18188 10.2081C7.18188 11.4269 8.07373 12.6049 8.19796 12.7705C8.3222 12.9361 9.95281 15.4366 12.4486 16.5097C13.0432 16.7647 13.5069 16.9171 13.8674 17.0319C14.4631 17.2207 15.0055 17.1931 15.4348 17.1302C15.9129 17.0595 16.9068 16.5318 17.1142 15.9533C17.3216 15.3748 17.3216 14.8791 17.2595 14.7753C17.1974 14.6716 17.0299 14.6086 16.7825 14.485Z" fill="#606060"/>
</svg>
