<svg xmlns="http://www.w3.org/2000/svg" version="1.1" xmlns:xlink="http://www.w3.org/1999/xlink" xmlns:svgjs="http://svgjs.dev/svgjs" viewBox="0 0 800 800" opacity="1"><defs><linearGradient x1="50%" y1="0%" x2="50%" y2="100%" id="uundulate-grad"><stop stop-color="#f4c284" stop-opacity="1" offset="45%"></stop><stop stop-color="#cdabec" stop-opacity="1" offset="100%"></stop></linearGradient></defs><g stroke-width="1" stroke="url(#uundulate-grad)" fill="none"><path d="M605.2340313948405 298.10591208832824C658.8042309816451 388.90639185289797 625.132971981312 542.6658492443107 538.5172321952512 602.7674884113042C451.90149240919015 662.8691275782977 243.0486800085523 677.3942598544675 189.47848042174758 586.5937800898977C135.90828083494284 495.7933003253279 194.76453439252703 227.02682470836277 281.3802741785879 166.92518554136927C367.9960139646489 106.82354637437578 551.6638318080356 207.3054323237584 605.2340313948405 298.10591208832824C658.8042309816451 388.90639185289797 625.132971981312 542.6658492443107 538.5172321952512 602.7674884113042 "></path><path d="M586.5763894028023 307.3690290225036C635.2765708453521 389.91491971756705 604.6663353905038 529.6962446188513 525.924753766812 584.3340984070272C447.1831721431204 638.9719521952031 257.31697905163134 652.1766179008121 208.61679760908157 569.6307272057486C159.91661616653187 487.08483651068514 213.4223012188811 242.7516768588987 292.16388284257283 188.1138230707228C370.90546446626456 133.47596928254688 537.8762079602527 224.82313832744018 586.5763894028023 307.3690290225036C635.2765708453521 389.91491971756705 604.6663353905038 529.6962446188513 525.924753766812 584.3340984070272 "></path><path d="M567.9187474107644 316.63210018031185C611.7489107090591 390.92340180586893 584.1996987996956 516.7265942170247 513.332275338373 565.9006626263831C442.4648518770505 615.0747310357415 271.5852780947104 626.9589301707895 227.75511479641563 552.6676285452322C183.92495149812083 478.3763269196752 232.08006804523518 258.4764832330674 302.94749150655775 209.3024148237091C373.8149149678803 160.12834641435074 524.0885841124696 242.34079855475477 567.9187474107644 316.63210018031185C611.7489107090591 390.92340180586893 584.1996987996956 516.7265942170247 513.332275338373 565.9006626263831 "></path><path d="M549.2611359363044 325.8952323732764C588.2212810903442 391.9319449293271 563.7330927264657 503.7570048503545 500.7398274275122 547.4672878808952C437.7465621285587 591.177570911436 285.85360765536757 601.7413034759231 246.8934625013278 535.7045909198723C207.93331734728798 469.6678783638215 250.73786538916738 274.2013506423924 313.73113068812074 230.4910676118517C376.7243959870742 186.7807845813109 510.30099078226453 259.85851981722556 549.2611359363044 325.8952323732764C588.2212810903442 391.9319449293271 563.7330927264657 503.7570048503545 500.7398274275122 547.4672878808952 "></path><path d="M530.6034634266882 335.15831878987365C564.693590436473 392.9404422764181 543.2664256180792 490.787369707317 488.14731848149506 529.0338673590402C433.0282113449108 567.2803650107633 300.1218761808685 576.5236310046896 266.0317491710837 518.7415075181451C231.94162216129882 460.9593840316006 269.39560169794333 289.92617227535015 324.51470883452754 251.67967462362702C379.6338159711118 213.4331769719039 496.5133364169035 277.3761953033292 530.6034634266882 335.15831878987365C564.693590436473 392.9404422764181 543.2664256180792 490.787369707317 488.14731848149506 529.0338673590402 "></path><path d="M511.9458519522283 344.4214052064709C541.1659608177581 393.948939623509 522.7998195448491 477.8177345642796 475.5548705706341 510.600446837185C428.30992159641903 543.3831591100907 314.3902057415257 551.305958533456 285.17009687599585 501.7784241164179C255.94998801046597 452.25088969937974 288.05339904187554 305.65099390830795 335.2983480160906 272.8682816354024C382.54329699030563 240.08556936249687 482.72574308669846 294.89387078943287 511.9458519522283 344.4214052064709C541.1659608177581 393.948939623509 522.7998195448491 477.8177345642796 475.5548705706341 510.600446837185 "></path><path d="M493.2882099601902 353.6845221406463C517.6383006814651 394.95746748817805 502.3331829540409 464.8481299388202 462.9623921421951 492.1670568329082C423.59160133034925 519.4859837269961 328.65850478460476 526.0883165798006 304.30841406332985 484.81537123226883C279.958323342055 443.5424258847371 306.7111658682296 321.3758460588439 346.08195668007545 294.0569191647559C385.45274749192134 266.737992270668 468.9381192389154 312.4115767931146 493.2882099601902 353.6845221406463C517.6383006814651 394.95746748817805 502.3331829540409 464.8481299388202 462.9623921421951 492.1670568329082 "></path><path d="M474.63058322694127 362.94760855724365C494.1106558039612 395.965964835269 481.8665616220219 451.87849479578273 450.36992897254515 473.73363631105303C418.8732963230684 495.5887778263234 342.92681908647285 500.87064410856703 323.44674650945296 467.8522878305416C303.966673932433 434.8339315525162 325.36894795337275 337.1006676918017 356.86558060284943 315.2455261765313C388.36221325232617 293.39038466126095 455.15051064992133 329.92925227921825 474.63058322694127 362.94760855724365C494.1106558039612 395.965964835269 481.8665616220219 451.87849479578273 450.36992897254515 473.73363631105303 "></path><path d="M455.97292597611414 372.21071023263C470.58298040887905 396.974477441149 461.39990977242456 438.9088749115343 437.77743528531704 455.30023104798704C414.1549607982095 471.69158718443987 357.19510287076287 475.6529868961225 342.5850484379979 450.8892196876035C327.974994005233 426.1254524790844 344.02669952093777 352.82550458354854 367.6491740080453 336.43414844709577C391.2716484951528 320.042792310643 441.36287154334923 347.44694302411096 455.97292597611414 372.21071023263C470.58298040887905 396.974477441149 461.39990977242456 438.9088749115343 437.77743528531704 455.30023104798704 "></path><path d="M437.31528398407613 381.47381190801633C447.0553202725861 397.98299004702903 440.9332731816164 425.93925502728587 425.18495685687805 436.86682578492105C409.4366405321397 447.7943965425562 371.4634019138419 450.43532968367805 361.72336562533195 433.92615154466534C351.983329336822 417.41697340565264 362.68446634729185 368.55034147529534 378.4327826720302 357.62277071766016C394.1810989967685 346.695199960025 427.57524769556613 364.9646337690037 437.31528398407613 381.47381190801633C447.0553202725861 397.98299004702903 440.9332731816164 425.93925502728587 425.18495685687805 436.86682578492105 "></path><path d="M418.65764199203807 390.73689832461366C423.52766013629304 398.99148739412 420.4666365908082 412.9696198842484 412.592478428439 418.433405263066C404.71832026606984 423.8971906418836 385.731700956921 425.21765721244446 380.86168281266595 416.96306814293814C375.991664668411 408.7084790734318 381.3422331736459 384.27516310825314 389.2163913360151 378.81137772943555C397.0905494983843 373.34759235061796 413.7876238477831 382.4823092551073 418.65764199203807 390.73689832461366C423.52766013629304 398.99148739412 420.4666365908082 412.9696198842484 412.592478428439 418.433405263066 "></path></g></svg>