<svg width="372" height="371" viewBox="0 0 372 371" fill="none" xmlns="http://www.w3.org/2000/svg">
<path d="M371.037 356.014C371.037 356.137 289.092 356.235 188.003 356.235C86.9152 356.235 4.95312 356.161 4.95312 356.014C4.95312 355.866 86.8988 355.801 188.003 355.801C289.108 355.801 371.037 355.899 371.037 356.014Z" fill="#3D2E27"/>
<path d="M241.836 157.41C242.284 149.822 242.737 142.234 243.196 134.646C243.254 133.728 243.393 132.671 244.18 132.187C244.563 132.036 244.975 131.972 245.386 132.001C245.797 132.029 246.197 132.149 246.556 132.351C260.011 137.768 269.886 152.78 271.066 167.227" fill="#F4A76F"/>
<g opacity="0.3">
<path d="M246.41 140.053C249.562 142.119 252.193 144.885 254.098 148.136C256.003 151.387 257.13 155.035 257.391 158.794C257.54 159.703 257.347 160.634 256.85 161.408C256.594 161.686 256.284 161.908 255.938 162.058C255.593 162.209 255.219 162.287 254.842 162.285C254.087 162.277 253.336 162.161 252.613 161.941C250.802 161.474 248.893 160.966 247.549 159.655C246.321 158.353 245.617 156.642 245.574 154.853C245.542 153.078 245.723 151.306 246.115 149.575L248.409 153.492L245.951 140.807C245.912 140.696 245.898 140.577 245.909 140.46C245.921 140.343 245.957 140.229 246.017 140.127C246.156 139.947 246.549 140.012 246.525 140.242" fill="#FBFBFB"/>
</g>
<path d="M163.832 173.569C156.81 165.232 152.772 154.789 152.359 143.896L159.857 147.428L157.981 145.142C168.922 146.054 179.075 151.203 186.277 159.491" fill="#F4A76F"/>
<g opacity="0.3">
<path d="M167.985 170.26C165.04 168.12 162.566 165.398 160.715 162.263C158.864 159.129 157.677 155.647 157.225 152.035C157.168 151.544 157.225 150.896 157.684 150.732C157.855 150.702 158.031 150.711 158.198 150.758C158.366 150.805 158.52 150.888 158.651 151.003L172.18 159.845C171.593 159.001 171.227 158.023 171.115 157.001L176.851 161.205C177.069 161.326 177.261 161.489 177.416 161.685C177.57 161.88 177.685 162.104 177.753 162.344C177.756 162.614 177.694 162.88 177.573 163.121C177.452 163.362 177.275 163.57 177.056 163.729C176.101 164.591 174.938 165.191 173.681 165.47C172.424 165.749 171.117 165.697 169.886 165.319L172.344 167.457C171.612 167.93 170.792 168.25 169.933 168.398C169.074 168.546 168.194 168.519 167.346 168.318C167.263 168.722 167.303 169.142 167.46 169.523C167.618 169.904 167.886 170.229 168.231 170.457" fill="#FBFBFB"/>
</g>
<path d="M316.654 245.083C316.654 245.083 327.143 255.925 331.912 255.023C331.912 255.023 315.342 237.397 308.377 221.131C305.05 213.439 301.087 206.038 296.528 199.005C299.666 193.597 302.461 187.476 303.739 181.289C300.216 185.375 296.2 189.008 291.783 192.105C291.423 191.597 291.054 191.098 290.677 190.59C294.383 187.236 296.854 182.733 297.691 177.806L281.13 177.093C281.649 176.347 282.117 175.566 282.531 174.758C274.396 167.765 265.286 161.993 255.489 157.623C236.437 146.781 194.03 143.2 173.38 160.827C154.885 171.611 149.927 185.411 135.357 188.828L126.72 187.885C126.72 187.885 123.36 205.913 134.398 213.969L126.204 212.067C126.204 212.067 127.711 219.246 135.775 227.162L130.743 226.547C130.743 226.547 132.923 237.839 139.888 240.552C139.888 240.552 129.006 241.912 125.958 237.839C125.958 237.839 122.336 254.72 138.815 261.087C138.815 261.087 89.4345 266.873 103.316 327.324C106.594 341.443 126.056 351.605 148.468 356.513L309.901 355.882C319.735 352.67 331.469 320.088 331.904 306.985C332.338 293.882 325.815 268.569 325.815 268.569L331.928 276.706L316.654 245.083Z" fill="#F4A76F"/>
<path d="M132.141 270.274C122.873 269.717 113.769 276.92 112.188 286.074C118.217 282.074 125.103 279.548 132.289 278.698C129.459 281.301 127.486 284.703 126.633 288.452C125.78 292.202 126.086 296.122 127.511 299.693C128.706 296.501 130.536 293.585 132.892 291.121C135.247 288.657 138.078 286.698 141.213 285.361C139.071 287.944 137.632 291.035 137.035 294.337C136.438 297.639 136.703 301.039 137.804 304.208" fill="#F4A76F"/>
<path d="M137.804 304.224C137.749 304.116 137.705 304.004 137.673 303.888C137.599 303.666 137.468 303.339 137.337 302.904C136.976 301.615 136.751 300.291 136.665 298.954C136.539 296.842 136.752 294.723 137.296 292.677C138.008 289.972 139.303 287.455 141.09 285.302L141.279 285.556C138.174 286.897 135.371 288.85 133.038 291.299C130.706 293.747 128.89 296.641 127.7 299.807L127.52 300.298L127.323 299.815C126.333 297.321 125.874 294.648 125.977 291.967C126.08 289.286 126.743 286.656 127.922 284.245C128.96 282.117 130.395 280.206 132.15 278.616L132.314 278.984C125.162 279.828 118.306 282.325 112.286 286.277L111.926 286.515L112.008 286.089C112.372 284.111 113.064 282.208 114.056 280.459C114.936 278.874 116.04 277.425 117.334 276.157C119.402 274.064 121.903 272.448 124.66 271.421C126.424 270.76 128.278 270.373 130.159 270.273C130.814 270.273 131.314 270.273 131.642 270.273C131.306 270.273 130.822 270.273 130.167 270.273C128.305 270.416 126.474 270.833 124.734 271.511C122.023 272.554 119.571 274.173 117.547 276.255C116.286 277.513 115.213 278.945 114.36 280.508C113.398 282.23 112.728 284.099 112.376 286.04L112.09 285.851C118.15 281.852 125.062 279.326 132.273 278.476L132.937 278.402L132.437 278.845C130.735 280.402 129.345 282.268 128.34 284.344C127.179 286.704 126.526 289.281 126.422 291.909C126.317 294.536 126.764 297.157 127.733 299.602H127.356C128.654 296.17 130.678 293.059 133.289 290.481C135.562 288.233 138.243 286.439 141.189 285.196L141.811 284.934L141.377 285.45C139.603 287.562 138.309 290.033 137.583 292.694C137.029 294.713 136.794 296.806 136.886 298.897C136.95 300.222 137.148 301.537 137.476 302.822C137.583 303.265 137.698 303.601 137.755 303.822C137.785 303.954 137.801 304.088 137.804 304.224Z" fill="#3D2E27"/>
<path d="M301.352 295.703C306.355 294.644 311.569 295.341 316.119 297.677C320.668 300.013 324.273 303.844 326.329 308.527" fill="#F4A76F"/>
<path d="M326.329 308.527C326.247 308.568 325.616 306.97 324.018 304.749C321.935 301.854 319.195 299.495 316.022 297.866C312.849 296.238 309.335 295.387 305.768 295.383C303.031 295.383 301.36 295.792 301.352 295.702C301.726 295.566 302.113 295.47 302.507 295.415C303.588 295.212 304.685 295.102 305.785 295.088C309.415 295.006 313.008 295.831 316.239 297.488C319.47 299.144 322.236 301.581 324.288 304.577C324.912 305.475 325.46 306.423 325.927 307.412C326.103 307.767 326.238 308.141 326.329 308.527Z" fill="#3D2E27"/>
<g opacity="0.3">
<path d="M244.435 309.32C238.486 310.271 230.914 314.77 228.152 320.104C227.562 321.243 228.103 321.399 228.152 322.677C228.153 323.322 228.335 323.953 228.677 324.499C229.019 325.045 229.507 325.485 230.086 325.767C230.38 325.886 230.695 325.942 231.012 325.932C231.329 325.921 231.64 325.845 231.925 325.706C232.21 325.568 232.463 325.371 232.667 325.129C232.871 324.887 233.022 324.604 233.11 324.3C232.4 328.666 233.353 333.14 235.782 336.838C237.455 335.894 238.804 334.466 239.649 332.74C239.494 335.942 239.995 339.141 241.123 342.142C242.25 345.142 243.98 347.88 246.205 350.187L243.304 338.87C242.263 334.773 241.256 331.29 241.534 327.086C241.829 322.596 244.501 318.81 246.574 315.089C243.722 316.327 240.42 321.932 237.609 325.349C237.44 322.375 237.95 319.402 239.098 316.654C240.246 313.905 242.004 311.454 244.238 309.484" fill="#1F1712"/>
</g>
<path d="M243.318 339.003C243.224 338.85 243.147 338.688 243.088 338.519C242.965 338.191 242.727 337.7 242.531 337.069C241.916 335.229 241.544 333.317 241.425 331.382C241.23 328.434 241.578 325.477 242.449 322.654C243.521 319.068 245.434 315.789 248.029 313.091L248.316 313.386C245.921 315.533 243.647 317.812 241.506 320.212C240.123 321.791 238.902 323.504 237.86 325.326L237.54 325.891L237.467 325.252C237.104 321.872 237.718 318.46 239.237 315.419C240.493 312.841 242.361 310.61 244.678 308.92L244.833 309.199C243.205 309.805 241.713 310.727 240.441 311.911C239.482 312.801 238.655 313.821 237.983 314.943C237.557 315.658 237.189 316.406 236.885 317.18C236.797 317.46 236.693 317.733 236.573 318C236.564 317.929 236.564 317.858 236.573 317.787C236.614 317.639 236.664 317.426 236.754 317.156C237.024 316.356 237.372 315.584 237.794 314.853C238.458 313.697 239.286 312.642 240.253 311.723C241.539 310.501 243.054 309.546 244.711 308.912L245.809 308.494L244.858 309.191C242.623 310.875 240.827 313.073 239.622 315.599C238.163 318.576 237.575 321.906 237.925 325.203L237.532 325.121C238.588 323.275 239.823 321.538 241.22 319.934C243.373 317.521 245.663 315.233 248.079 313.083L248.365 313.378C245.808 316.024 243.91 319.236 242.826 322.753C241.946 325.534 241.574 328.452 241.728 331.365C241.823 333.285 242.15 335.187 242.703 337.028C242.883 337.675 243.096 338.15 243.195 338.486C243.246 338.656 243.288 338.828 243.318 339.003Z" fill="#3D2E27"/>
<path d="M146.09 338.132C149.308 341.704 153.544 344.203 158.226 345.294C158.48 345.396 158.757 345.43 159.029 345.393C159.3 345.355 159.557 345.248 159.775 345.081C160.25 344.557 159.857 343.729 159.463 343.147L154.26 335.461C157.964 338.389 162.357 340.318 167.019 341.066C167.797 341.189 168.756 341.189 169.149 340.517C169.262 340.221 169.303 339.904 169.27 339.589C169.238 339.275 169.132 338.972 168.961 338.706C168.141 336.952 167.322 335.223 166.355 333.535" fill="#F4A76F"/>
<path d="M166.355 333.504C166.455 333.63 166.54 333.768 166.609 333.914L167.264 335.143C167.559 335.692 167.895 336.347 168.289 337.093C168.496 337.476 168.709 337.885 168.928 338.322C169.2 338.782 169.376 339.292 169.444 339.822C169.467 340.139 169.374 340.453 169.182 340.707C168.971 340.958 168.683 341.131 168.362 341.199C167.729 341.295 167.083 341.265 166.461 341.108C165.107 340.876 163.773 340.539 162.47 340.101C159.453 339.094 156.634 337.571 154.137 335.602L154.448 335.315L155.349 336.651L158.25 340.945L159.635 342.985C159.881 343.335 160.061 343.726 160.168 344.14C160.23 344.368 160.219 344.61 160.135 344.831C160.051 345.052 159.899 345.241 159.701 345.37C159.316 345.564 158.872 345.611 158.455 345.501C158.07 345.435 157.726 345.32 157.365 345.239C156.652 345.034 155.972 344.821 155.333 344.575C154.137 344.125 152.98 343.577 151.875 342.936C150.272 342.015 148.789 340.9 147.458 339.617C146.991 339.158 146.639 338.798 146.425 338.527C146.302 338.4 146.192 338.26 146.098 338.109C146.241 338.212 146.373 338.33 146.491 338.462C146.729 338.707 147.089 339.06 147.573 339.494C148.932 340.717 150.425 341.784 152.022 342.674C153.123 343.289 154.271 343.815 155.456 344.247C156.095 344.485 156.767 344.689 157.464 344.886C158.16 345.083 158.939 345.353 159.496 345.042C159.626 344.955 159.723 344.827 159.774 344.679C159.824 344.531 159.824 344.371 159.774 344.222C159.678 343.862 159.514 343.522 159.291 343.223C158.84 342.559 158.381 341.879 157.906 341.19C156.966 339.797 155.997 338.366 154.997 336.896L154.096 335.561L153.276 334.413L154.399 335.266C157.933 338.061 162.096 339.952 166.527 340.772C167.104 340.926 167.705 340.965 168.297 340.887C168.547 340.854 168.775 340.728 168.934 340.533C169.094 340.338 169.174 340.09 169.157 339.838C169.101 339.342 168.944 338.863 168.698 338.429C168.485 337.995 168.28 337.609 168.092 337.191L167.133 335.217L166.543 333.955C166.46 333.814 166.397 333.662 166.355 333.504Z" fill="#3D2E27"/>
<g opacity="0.3">
<path d="M166.307 287.146C168.118 290.202 170.769 292.674 173.945 294.267C173.763 292.583 173.065 290.997 171.945 289.727C175.403 293.021 179.5 295.57 183.983 297.217C182.074 298.067 179.991 298.451 177.905 298.338C175.818 298.225 173.789 297.617 171.983 296.566C170.178 295.514 168.648 294.048 167.52 292.289C166.392 290.531 165.698 288.529 165.496 286.449" fill="#1F1712"/>
</g>
<g opacity="0.3">
<path d="M144.379 233.742C150.885 246.255 171.929 252.434 188.433 252.704C193.53 252.778 200.725 256.547 205.773 256.056C217.106 254.966 226.308 248.861 237.666 247.861C244.738 247.263 251.851 247.041 258.841 245.853C265.831 244.665 265.511 243.837 271.067 239.421C276.623 235.004 282.63 230.628 282.539 223.531C272.1 236.315 261.783 240.273 245.713 244.018C229.643 247.763 212.935 247.681 196.455 246.919C178.321 246.099 159.285 244.1 144.379 233.734" fill="#1F1712"/>
</g>
<path d="M200.364 137.768C200.438 137.768 200.503 138.694 200.749 140.16C201.074 142.069 201.596 143.94 202.306 145.741C203.033 147.539 203.942 149.258 205.019 150.871C205.509 151.513 205.966 152.181 206.387 152.87C206.387 152.87 206.199 152.731 205.912 152.419C205.504 151.985 205.123 151.525 204.773 151.043C203.607 149.457 202.646 147.731 201.913 145.905C201.178 144.065 200.688 142.136 200.454 140.169C200.377 139.579 200.333 138.985 200.323 138.39C200.307 138.182 200.32 137.972 200.364 137.768Z" fill="#F4A76F"/>
<path d="M205.713 135.728C205.787 135.728 205.459 136.548 205.139 137.916C204.735 139.683 204.6 141.501 204.738 143.308C204.885 145.113 205.308 146.884 205.991 148.561C206.516 149.856 206.967 150.601 206.901 150.634C206.835 150.667 206.745 150.478 206.524 150.151C206.216 149.682 205.942 149.192 205.705 148.684C204.132 145.289 203.827 141.443 204.844 137.842C204.99 137.304 205.179 136.777 205.41 136.269C205.582 135.876 205.688 135.679 205.713 135.728Z" fill="#F4A76F"/>
<path d="M105.422 271.921C105.519 271.803 105.629 271.696 105.75 271.602C105.971 271.405 106.291 271.094 106.741 270.782C108 269.782 109.331 268.875 110.724 268.07C115.349 265.449 120.382 263.626 125.613 262.678C130.829 261.729 136.112 261.202 141.412 261.105C143.445 261.055 145.084 261.039 146.214 261.039H147.526C147.678 261.026 147.832 261.026 147.984 261.039C147.834 261.076 147.68 261.096 147.526 261.096L146.223 261.162L141.421 261.367C136.146 261.535 130.891 262.083 125.695 263.006C120.508 263.953 115.505 265.718 110.871 268.234C109.48 269.017 108.137 269.881 106.848 270.823C105.938 271.553 105.446 271.946 105.422 271.921Z" fill="#F4A76F"/>
<path d="M222.888 139.285C222.888 139.358 221.487 138.891 219.208 138.334C217.884 138.008 216.524 137.846 215.16 137.85C213.503 137.862 211.88 138.324 210.465 139.186C209.746 139.634 209.12 140.215 208.621 140.899C208.172 141.546 207.857 142.276 207.695 143.046C207.461 144.381 207.519 145.751 207.867 147.061C208.433 149.323 209.039 150.667 208.957 150.7C208.771 150.41 208.62 150.099 208.506 149.774C208.135 148.917 207.822 148.035 207.572 147.135C207.172 145.785 207.083 144.362 207.31 142.972C207.471 142.144 207.8 141.357 208.277 140.661C208.805 139.926 209.47 139.3 210.235 138.817C211.718 137.919 213.419 137.449 215.152 137.457C216.538 137.471 217.916 137.669 219.249 138.047C220.389 138.35 221.29 138.662 221.913 138.867C222.251 138.973 222.578 139.113 222.888 139.285Z" fill="#F4A76F"/>
<path d="M345.833 344.64C344.948 338.757 342.064 332.963 337.139 329.612C332.214 326.26 325.126 325.867 320.438 329.546L300.984 355.851L342.4 356.023C344.711 353.884 346.3 347.754 345.833 344.64Z" fill="#F4A76F"/>
<g opacity="0.3">
<path d="M318.289 355.472C321.788 354.014 324.369 350.875 325.959 347.434C327.549 343.992 328.245 340.222 328.942 336.494C329.516 333.404 330.056 330.069 328.713 327.218C328.392 327.2 328.072 327.267 327.785 327.41C327.497 327.554 327.252 327.77 327.074 328.037C326.714 328.581 326.451 329.182 326.295 329.815C323.091 339.927 318.15 348.663 310.078 355.505" fill="#1F1712"/>
</g>
<g opacity="0.3">
<path d="M195.275 149.994C199.373 161.803 199.889 174.578 199.446 187.025C199.225 193.237 198.758 199.514 196.816 205.422C194.874 211.33 191.309 216.895 186.015 220.172C181.017 223.262 174.838 224.073 169.004 223.303C163.169 222.532 157.629 220.295 152.377 217.657C146.378 214.641 140.601 211.036 135.947 206.184C131.292 201.333 127.473 194.556 126.703 187.894L135.34 188.836C135.34 188.836 141.986 188.132 152.319 178.134C163.611 167.219 165.668 165.883 174.125 160.196C180.684 155.859 187.798 152.427 195.275 149.994Z" fill="#FBFBFB"/>
</g>
<g opacity="0.3">
<path d="M230.968 222.778C232.602 221.856 234.492 221.495 236.35 221.748C238.208 222.001 239.933 222.854 241.26 224.179C242.575 222.461 244.353 221.154 246.386 220.414C248.419 219.673 250.621 219.529 252.733 220C250.172 221.007 247.788 222.415 245.669 224.171C243.645 226.031 242.186 228.702 242.44 231.439C239.908 228.712 236.997 226.363 233.795 224.466C232.468 223.646 230.722 222.982 229.477 223.9" fill="#1F1712"/>
</g>
<path d="M259.191 315.098C254.435 318.512 250.928 323.392 249.21 328.99C247.492 334.587 247.656 340.594 249.678 346.09" fill="#F4A76F"/>
<path d="M249.679 346.091C249.612 345.992 249.559 345.885 249.523 345.771C249.441 345.55 249.302 345.238 249.163 344.812C248.764 343.628 248.459 342.415 248.253 341.182C247.538 337.094 247.8 332.894 249.017 328.927C250.235 324.959 252.374 321.335 255.26 318.352C256.122 317.457 257.057 316.635 258.054 315.894C258.398 315.623 258.693 315.435 258.873 315.304C259.054 315.173 259.177 315.115 259.185 315.132C258.854 315.448 258.507 315.746 258.144 316.025C257.201 316.823 256.308 317.679 255.473 318.59C252.684 321.584 250.611 325.173 249.41 329.085C248.209 332.997 247.912 337.13 248.54 341.174C248.722 342.397 248.982 343.606 249.319 344.796C249.468 345.219 249.588 345.652 249.679 346.091Z" fill="#3D2E27"/>
<path d="M275.491 286.728C278.843 284.155 283.17 281.451 286.964 283.262C288.015 283.838 288.916 284.652 289.595 285.64C290.273 286.628 290.711 287.761 290.872 288.949C291.167 291.326 291.017 293.738 290.43 296.061C287.678 309.616 281.699 322.307 273 333.06C269.845 336.961 265.355 340.91 260.454 339.837C255.882 338.829 253.284 333.601 253.554 328.922C253.825 324.243 256.185 319.99 258.373 315.81C263.568 305.977 268.616 295.193 275.467 286.695" fill="#F4A76F"/>
<path d="M275.489 286.728C275.424 286.836 275.353 286.94 275.276 287.039L274.62 287.916C274.039 288.686 273.195 289.842 272.162 291.358C269.306 295.679 266.691 300.155 264.328 304.764L259.411 314.303C257.674 317.744 255.486 321.301 254.347 325.464C253.735 327.578 253.62 329.804 254.011 331.97C254.423 334.224 255.539 336.29 257.199 337.87C258.059 338.645 259.089 339.206 260.206 339.509C261.35 339.805 262.547 339.836 263.705 339.599C266.075 338.988 268.238 337.751 269.966 336.018C271.734 334.307 273.344 332.439 274.776 330.438C276.251 328.504 277.579 326.504 278.873 324.521C283.463 317.194 286.934 309.223 289.174 300.872C289.666 299.014 290.086 297.206 290.436 295.447C290.807 293.78 290.975 292.074 290.936 290.366C290.838 287.146 289.149 284.22 286.748 283.245C285.645 282.779 284.432 282.634 283.249 282.827C282.252 282.995 281.282 283.296 280.365 283.721C279.094 284.323 277.88 285.036 276.735 285.851L275.833 286.49C275.637 286.63 275.522 286.695 275.522 286.695L275.809 286.458C276.005 286.294 276.292 286.072 276.685 285.786C277.813 284.933 279.02 284.192 280.291 283.573C281.217 283.122 282.202 282.804 283.217 282.631C284.532 282.388 285.89 282.567 287.097 283.141C288.305 283.714 289.301 284.654 289.944 285.827C290.737 287.206 291.178 288.76 291.231 290.35C291.287 292.081 291.13 293.812 290.764 295.504C290.411 297.274 290.002 299.094 289.518 300.962C287.295 309.352 283.829 317.362 279.234 324.726C277.956 326.726 276.62 328.725 275.137 330.675C273.69 332.7 272.064 334.589 270.277 336.322C268.493 338.108 266.259 339.379 263.812 340.001C262.591 340.249 261.329 340.212 260.124 339.894C258.94 339.568 257.85 338.964 256.945 338.133C255.228 336.49 254.08 334.343 253.667 332.003C253.264 329.777 253.384 327.488 254.019 325.316C255.191 321.071 257.404 317.515 259.141 314.09C260.878 310.664 262.599 307.485 264.123 304.576C266.513 299.97 269.173 295.51 272.088 291.219C273.137 289.711 274.006 288.572 274.604 287.818L275.301 286.998C275.359 286.905 275.422 286.815 275.489 286.728Z" fill="#3D2E27"/>
<g opacity="0.3">
<path d="M275.901 298.414V298.455C276.72 296.144 278.466 295.48 280.342 294.8C282.219 294.12 284.489 294.194 285.997 295.505C287.734 297.013 287.955 299.668 287.488 301.921C287.378 302.718 287.052 303.469 286.546 304.093C286.284 304.396 285.932 304.608 285.542 304.698C285.151 304.788 284.742 304.751 284.374 304.593C283.555 304.142 283.301 302.954 282.432 302.593C281.563 302.233 280.416 303.044 279.367 303.306C278.65 303.445 277.906 303.331 277.263 302.985C276.619 302.639 276.115 302.08 275.835 301.405C275.647 300.927 275.556 300.417 275.567 299.903C275.579 299.39 275.692 298.883 275.901 298.414Z" fill="#1F1712"/>
</g>
<g opacity="0.3">
<path d="M279.473 286.876C279.894 287.064 280.245 287.379 280.476 287.778C280.707 288.177 280.806 288.638 280.759 289.097C280.719 290.125 280.494 291.139 280.096 292.088C279.809 292.907 279.325 293.817 278.457 293.85C278.213 293.843 277.975 293.774 277.766 293.649C277.556 293.524 277.382 293.348 277.26 293.137C277.025 292.709 276.893 292.232 276.875 291.744C276.793 290.627 276.967 289.506 277.383 288.466C277.563 287.924 277.899 287.447 278.35 287.097C278.578 286.925 278.855 286.832 279.141 286.832C279.426 286.832 279.704 286.925 279.932 287.097" fill="#1F1712"/>
</g>
<g opacity="0.3">
<path d="M289.289 288.892C289.71 289.079 290.061 289.395 290.292 289.794C290.523 290.193 290.622 290.654 290.575 291.113C290.534 292.141 290.309 293.154 289.912 294.104C289.625 294.923 289.133 295.833 288.273 295.865C288.029 295.86 287.79 295.791 287.581 295.666C287.371 295.541 287.197 295.364 287.076 295.153C286.834 294.728 286.701 294.249 286.691 293.759C286.611 292.643 286.782 291.523 287.191 290.482C287.373 289.939 287.713 289.463 288.166 289.113C288.393 288.94 288.671 288.846 288.957 288.846C289.243 288.846 289.521 288.94 289.748 289.113" fill="#1F1712"/>
</g>
<g opacity="0.3">
<path d="M285.144 285.138C285.563 285.33 285.912 285.648 286.143 286.047C286.373 286.447 286.474 286.908 286.43 287.367C286.385 288.393 286.161 289.402 285.766 290.35C285.471 291.17 284.988 292.087 284.127 292.112C283.883 292.106 283.645 292.037 283.436 291.913C283.226 291.788 283.052 291.611 282.931 291.399C282.695 290.975 282.565 290.5 282.554 290.014C282.465 288.898 282.636 287.776 283.054 286.736C283.232 286.192 283.572 285.714 284.029 285.368C284.255 285.196 284.532 285.104 284.816 285.104C285.1 285.104 285.376 285.196 285.602 285.368" fill="#1F1712"/>
</g>
<g opacity="0.3">
<path d="M281.966 318.639C281.312 323.597 279.963 328.438 277.959 333.02C275.938 337.621 272.848 341.672 268.945 344.837C267.142 346.246 265.028 347.459 262.742 347.516C259.505 347.598 256.555 345.279 255.096 342.387C253.638 339.494 253.457 336.134 253.605 332.905C255.17 335.519 256.932 338.306 259.767 339.461C261.02 339.881 262.349 340.025 263.663 339.884C264.977 339.743 266.245 339.319 267.38 338.642C269.642 337.271 271.619 335.48 273.206 333.364C276.717 329.078 279.603 324.316 281.778 319.221" fill="#1F1712"/>
</g>
<path d="M98.4323 287.385C94.4005 286.148 89.4182 285.124 86.4518 288.156C85.6745 289.067 85.1215 290.149 84.8369 291.313C84.5523 292.477 84.5441 293.691 84.8129 294.859C85.3667 297.192 86.3505 299.401 87.7138 301.373C95.0387 313.105 105.078 322.903 116.985 329.94C121.303 332.48 126.892 334.611 131.104 331.882C135.046 329.341 135.636 323.532 133.751 319.246C131.866 314.96 128.179 311.772 124.647 308.634C116.337 301.259 107.831 292.917 98.4241 287.328" fill="#F4A76F"/>
<path d="M98.4304 287.384C98.4304 287.384 98.5451 287.433 98.7664 287.556L99.7087 288.113C100.528 288.613 101.749 289.375 103.265 290.416C107.498 293.417 111.55 296.665 115.401 300.142L123.407 307.305C126.235 309.902 129.553 312.459 132.135 316.024C133.492 317.834 134.41 319.935 134.814 322.161C135.235 324.503 134.905 326.918 133.872 329.061C133.311 330.153 132.503 331.098 131.512 331.823C130.493 332.546 129.321 333.023 128.087 333.216C125.567 333.499 123.017 333.091 120.711 332.036C118.425 331.039 116.231 329.84 114.156 328.455C112.091 327.144 110.132 325.734 108.239 324.316C104.647 321.54 101.277 318.488 98.16 315.188C95.3242 312.199 92.7062 309.012 90.326 305.649C89.2197 304.068 88.1954 302.503 87.253 300.97C86.3139 299.514 85.5571 297.948 84.9995 296.307C84.4924 294.799 84.3629 293.19 84.6225 291.62C84.8137 290.297 85.4171 289.068 86.3468 288.107C87.2765 287.147 88.4853 286.503 89.8015 286.269C90.8145 286.081 91.8482 286.032 92.8745 286.122C94.2821 286.263 95.6733 286.537 97.0291 286.941C97.4962 287.072 97.8486 287.179 98.078 287.261L98.4304 287.392L98.0698 287.302L97.0045 287.023C95.6458 286.662 94.2585 286.418 92.8581 286.294C91.8493 286.219 90.8352 286.28 89.8425 286.474C88.6647 286.712 87.579 287.281 86.7122 288.113C84.8028 289.875 84.2538 293.202 85.2863 296.25C85.847 297.862 86.601 299.4 87.5316 300.831C88.4822 302.355 89.5092 303.904 90.6128 305.477C95.6387 312.512 101.684 318.759 108.551 324.013C110.435 325.431 112.386 326.832 114.443 328.111C116.486 329.483 118.65 330.668 120.908 331.651C123.131 332.673 125.588 333.075 128.021 332.814C129.201 332.635 130.323 332.183 131.299 331.495C132.239 330.813 133.003 329.917 133.528 328.881C134.527 326.821 134.848 324.497 134.446 322.243C134.057 320.077 133.168 318.031 131.848 316.269C129.324 312.762 126.03 310.197 123.203 307.583L115.237 300.38C111.41 296.882 107.391 293.599 103.2 290.547C101.708 289.481 100.512 288.703 99.7005 288.178L98.7746 287.588L98.4304 287.384Z" fill="#3D2E27"/>
<g opacity="0.3">
<path d="M102.152 298.463C100.571 296.586 98.7105 296.57 96.7111 296.594C94.7116 296.619 92.6138 297.487 91.6632 299.233C90.5651 301.265 91.2862 303.822 92.4827 305.788C92.8585 306.497 93.4265 307.085 94.1216 307.485C94.4709 307.681 94.8741 307.759 95.2713 307.707C95.6685 307.655 96.0383 307.477 96.3259 307.198C96.9405 306.485 96.7684 305.297 97.4404 304.641C98.1123 303.986 99.4972 304.354 100.563 304.24C101.283 304.118 101.94 303.751 102.422 303.202C102.904 302.653 103.182 301.954 103.209 301.224C103.231 300.201 102.852 299.21 102.152 298.463Z" fill="#1F1712"/>
</g>
<g opacity="0.3">
<path d="M94.7507 288.909C94.4223 289.234 94.2045 289.654 94.128 290.11C94.0516 290.566 94.1203 291.034 94.3246 291.449C94.7151 292.394 95.27 293.263 95.9635 294.014C96.5126 294.661 97.2992 295.366 98.1023 295.096C98.3287 295.004 98.5276 294.856 98.6798 294.665C98.832 294.474 98.9323 294.247 98.9709 294.006C99.0447 293.525 99.0026 293.033 98.848 292.572C98.527 291.494 97.9667 290.502 97.2091 289.671C96.8511 289.223 96.3652 288.894 95.816 288.728C95.5415 288.653 95.2499 288.669 94.9853 288.774C94.7207 288.879 94.4974 289.067 94.3492 289.31" fill="#1F1712"/>
</g>
<g opacity="0.3">
<path d="M86.2693 294.243C85.9416 294.567 85.7241 294.986 85.6476 295.44C85.5712 295.895 85.6396 296.362 85.8432 296.775C86.2332 297.721 86.7881 298.589 87.4821 299.34C88.0393 299.988 88.8178 300.692 89.6291 300.422C89.8546 300.329 90.0527 300.18 90.2047 299.99C90.3567 299.799 90.4575 299.572 90.4977 299.332C90.5688 298.85 90.5239 298.359 90.3666 297.898C90.0487 296.819 89.4881 295.826 88.7277 294.997C88.3697 294.549 87.8838 294.22 87.3346 294.055C87.0601 293.979 86.7685 293.995 86.5039 294.1C86.2392 294.205 86.016 294.393 85.8678 294.636" fill="#1F1712"/>
</g>
<g opacity="0.3">
<path d="M88.8435 289.276C88.5158 289.6 88.2983 290.019 88.2219 290.474C88.1454 290.928 88.2138 291.395 88.4174 291.808C88.8074 292.754 89.3624 293.622 90.0563 294.373C90.6136 295.021 91.392 295.725 92.2033 295.455C92.4293 295.363 92.6278 295.214 92.7799 295.023C92.9319 294.833 93.0325 294.606 93.0719 294.365C93.1431 293.884 93.0981 293.392 92.9408 292.931C92.6229 291.852 92.0623 290.86 91.3019 290.03C90.9439 289.582 90.458 289.253 89.9088 289.088C89.6343 289.012 89.3427 289.028 89.0781 289.133C88.8135 289.238 88.5902 289.427 88.442 289.67" fill="#1F1712"/>
</g>
<g opacity="0.3">
<path d="M103.594 319.531C105.935 323.937 108.884 327.992 112.354 331.577C115.842 335.186 120.144 337.906 124.9 339.51C127.079 340.206 129.48 340.6 131.644 339.854C134.709 338.797 136.651 335.593 137.003 332.372C137.355 329.152 136.372 325.931 135.077 322.965C134.528 325.964 133.856 329.193 131.595 331.241C130.577 332.075 129.391 332.678 128.117 333.009C126.844 333.34 125.514 333.391 124.219 333.159C121.621 332.671 119.139 331.689 116.91 330.266C112.124 327.478 107.754 324.03 103.93 320.023" fill="#1F1712"/>
</g>
<g opacity="0.3">
<path d="M100.544 315.082C100.307 315.41 100.069 315.746 99.8395 316.082C100.851 314.449 102.184 313.039 103.756 311.936C105.329 310.833 107.108 310.06 108.988 309.664C110.867 309.269 112.807 309.258 114.691 309.633C116.575 310.008 118.363 310.761 119.947 311.846C121.532 312.932 122.88 314.327 123.91 315.949C124.94 317.57 125.63 319.383 125.94 321.278C126.25 323.174 126.172 325.112 125.711 326.977C125.25 328.842 124.416 330.593 123.26 332.127C114.047 328.36 105.707 322.74 98.7578 315.615" fill="#FBFBFB"/>
</g>
<path d="M331.895 306.994C331.901 307.178 331.887 307.362 331.854 307.543C331.796 307.953 331.723 308.469 331.641 309.117C331.452 310.485 331.133 312.452 330.682 314.853C329.567 321.193 327.889 327.421 325.667 333.463C324.39 336.778 322.847 339.984 321.053 343.05C320.635 343.755 320.185 344.411 319.775 345.066L319.152 346.025L318.488 346.918L317.226 348.598C316.792 349.114 316.358 349.598 315.948 350.057C315.538 350.516 315.17 350.983 314.76 351.36L313.629 352.449L312.638 353.392L311.736 354.105L310.482 355.088C310.344 355.212 310.19 355.316 310.023 355.399C310.147 355.261 310.282 355.132 310.425 355.014L311.63 353.982L312.498 353.244L313.457 352.277L314.563 351.179C314.965 350.794 315.317 350.319 315.719 349.86L316.964 348.393L318.202 346.705L318.849 345.82C319.054 345.509 319.251 345.189 319.455 344.861C319.865 344.206 320.275 343.55 320.717 342.854C322.462 339.793 323.972 336.605 325.233 333.315C327.453 327.304 329.177 321.121 330.387 314.828C330.87 312.419 331.206 310.46 331.477 309.092C331.592 308.453 331.69 307.937 331.764 307.535C331.794 307.352 331.837 307.171 331.895 306.994Z" fill="#3D2E27"/>
<path d="M143.371 257.285C143.478 257.138 143.605 257.006 143.748 256.892L144.887 255.827C145.387 255.36 146.002 254.802 146.739 254.188C147.477 253.573 148.296 252.828 149.247 252.074C151.123 250.525 153.426 248.796 156.056 246.911C158.687 245.026 161.661 243.15 164.874 241.281C168.086 239.413 171.241 237.807 174.142 236.43C177.043 235.054 179.73 233.972 182.009 233.095C183.139 232.644 184.18 232.276 185.09 231.964C185.999 231.653 186.794 231.382 187.442 231.186L188.941 230.727C189.111 230.664 189.286 230.62 189.466 230.596C189.305 230.68 189.138 230.751 188.966 230.809L187.491 231.341C186.852 231.563 186.073 231.841 185.172 232.161C184.27 232.48 183.238 232.874 182.115 233.341C179.862 234.234 177.198 235.39 174.314 236.758C171.429 238.127 168.332 239.798 165.054 241.634C161.776 243.469 158.892 245.403 156.245 247.222C153.598 249.042 151.328 250.779 149.402 252.295C148.444 253.032 147.608 253.745 146.862 254.36C146.116 254.975 145.477 255.499 144.969 255.95L143.773 256.958C143.652 257.082 143.517 257.192 143.371 257.285Z" fill="#3D2E27"/>
<path d="M120.301 243.602C120.301 243.602 120.35 243.561 120.448 243.487L120.907 243.175L122.71 242.028C123.488 241.528 124.447 240.93 125.594 240.283C126.742 239.635 128.053 238.849 129.495 238.095L131.79 236.874C132.609 236.456 133.428 236.054 134.322 235.628C136.059 234.751 137.976 233.932 139.976 233.039C144.016 231.334 148.523 229.63 153.358 228.122C158.192 226.614 162.888 225.524 167.19 224.672C169.345 224.287 171.394 223.894 173.328 223.64C174.287 223.508 175.221 223.353 176.114 223.254L178.704 222.968C180.342 222.771 181.842 222.689 183.153 222.591C184.464 222.492 185.612 222.435 186.529 222.41L188.66 222.353H189.209C189.274 222.341 189.341 222.341 189.406 222.353H189.217L188.66 222.402L186.538 222.542C185.612 222.591 184.481 222.656 183.178 222.787C181.875 222.918 180.375 223.009 178.736 223.23L176.155 223.541C175.262 223.648 174.336 223.812 173.377 223.951C171.451 224.213 169.411 224.623 167.264 225.016C162.986 225.893 158.307 227.024 153.481 228.491C148.654 229.958 144.163 231.67 140.132 233.35C138.132 234.227 136.215 235.038 134.477 235.899C133.601 236.325 132.74 236.718 131.937 237.12L129.634 238.316C128.159 239.054 126.865 239.807 125.717 240.438C124.57 241.069 123.587 241.643 122.792 242.118L120.956 243.2L120.473 243.47C120.366 243.585 120.301 243.61 120.301 243.602Z" fill="#3D2E27"/>
<path d="M217.955 216.592C218.004 216.715 215.89 217.608 213.554 219.173C211.219 220.738 209.572 222.336 209.457 222.238C211.695 219.597 214.632 217.641 217.93 216.592H217.955Z" fill="#3D2E27"/>
<path d="M231.821 221.041C231.821 221.123 230.609 220.574 228.601 220.066C225.985 219.383 223.275 219.134 220.578 219.328C217.881 219.441 215.24 220.143 212.843 221.385C211.888 221.96 211.067 222.731 210.434 223.647C210.517 223.349 210.659 223.07 210.852 222.828C211.349 222.148 211.972 221.569 212.687 221.123C214.474 219.951 217.35 219.14 220.546 218.894C223.288 218.696 226.044 218.99 228.683 219.763C229.478 219.985 230.258 220.259 231.018 220.582C231.302 220.706 231.571 220.86 231.821 221.041Z" fill="#3D2E27"/>
<path d="M204.896 227.875L205.855 230.17C206.138 230.763 206.332 231.396 206.429 232.046C206.475 232.373 206.45 232.706 206.357 233.023C206.264 233.339 206.104 233.632 205.888 233.882C205.519 234.193 205.058 234.376 204.576 234.401C204.093 234.426 203.616 234.293 203.216 234.021C202.44 233.446 201.866 232.64 201.577 231.718C201.233 230.817 201.004 229.867 200.586 228.998C201.117 228.513 201.518 227.903 201.752 227.222C201.985 226.542 202.043 225.814 201.922 225.105C201.922 225.105 202.749 227.728 204.896 227.875Z" fill="#F7F7F7"/>
<path d="M191.512 219.517C192.238 218.055 193.26 216.76 194.515 215.716C195.769 214.672 197.227 213.901 198.797 213.453C204.025 212.076 209.45 217.55 209.45 217.55C209.45 217.55 203.132 215.69 203.222 218.828C203.312 221.967 205.172 221.893 203.074 223.958C200.976 226.023 197.379 223.851 196.519 221.418L194.831 219.041L191.512 219.517Z" fill="#3D2E27"/>
<path d="M213.162 222.59C213.162 222.59 213.162 222.696 213.203 222.885C213.231 223.171 213.231 223.459 213.203 223.745C213.053 224.795 212.629 225.787 211.974 226.622C211.496 227.255 210.894 227.785 210.205 228.179C209.517 228.573 208.755 228.824 207.967 228.916C206.994 228.99 206.017 228.834 205.116 228.459C204.214 228.085 203.414 227.503 202.78 226.761C202.152 226.04 201.71 225.176 201.493 224.245L201.895 224.13C202.141 224.902 202.208 225.719 202.09 226.52C201.972 227.321 201.673 228.085 201.215 228.752C200.595 229.62 199.718 230.272 198.708 230.614C197.697 230.957 196.605 230.973 195.585 230.662C195.37 230.596 195.162 230.511 194.962 230.407C194.831 230.334 194.766 230.293 194.766 230.276C194.766 230.26 195.069 230.391 195.626 230.522C196.414 230.702 197.231 230.702 198.019 230.522C199.199 230.256 200.234 229.55 200.912 228.547C201.325 227.923 201.593 227.214 201.695 226.472C201.797 225.73 201.731 224.974 201.502 224.262L201.903 224.155C202.112 225.016 202.525 225.814 203.108 226.482C203.698 227.175 204.442 227.72 205.279 228.076C206.117 228.431 207.026 228.587 207.934 228.531C208.676 228.45 209.395 228.223 210.049 227.863C210.703 227.503 211.28 227.017 211.745 226.433C212.395 225.648 212.84 224.713 213.04 223.712C213.146 223.024 213.121 222.59 213.162 222.59Z" fill="#3D2E27"/>
<path d="M203.035 214.222C202.493 214.304 201.943 214.328 201.396 214.296C200.07 214.282 198.749 214.453 197.471 214.804C196.208 215.173 195.062 215.861 194.144 216.804C193.464 217.549 193.218 218.147 193.152 218.123C193.26 217.555 193.527 217.029 193.923 216.607C194.816 215.542 196.01 214.771 197.348 214.394C198.667 214.029 200.039 213.893 201.404 213.993C201.956 213.984 202.507 214.061 203.035 214.222Z" fill="#FBFBFB"/>
<path d="M204.608 234.587C203.818 233.259 203.222 231.824 202.838 230.326C202.326 228.869 202.028 227.345 201.953 225.803C202.076 225.803 202.51 227.786 203.248 230.203C203.985 232.621 204.723 234.538 204.608 234.587Z" fill="#3D2E27"/>
<path d="M146.262 243.772C146.361 243.666 146.471 243.57 146.589 243.485L147.581 242.715C148.4 242.051 149.736 241.142 151.367 240.076C152.998 239.011 154.981 237.815 157.251 236.585C159.521 235.356 162.077 234.127 164.831 233.004C167.584 231.882 170.264 230.964 172.73 230.218C175.197 229.472 177.458 228.932 179.368 228.579C181.277 228.227 182.834 227.924 183.916 227.76L185.161 227.604C185.306 227.588 185.451 227.588 185.596 227.604C185.46 227.663 185.316 227.701 185.17 227.719L183.94 227.948C182.867 228.129 181.326 228.44 179.433 228.866C177.54 229.292 175.336 229.866 172.878 230.611C170.419 231.357 167.764 232.3 165.019 233.414C162.274 234.528 159.742 235.766 157.464 236.954C155.186 238.142 153.203 239.314 151.555 240.347C149.908 241.379 148.605 242.248 147.712 242.871L146.671 243.567C146.401 243.715 146.27 243.788 146.262 243.772Z" fill="#3D2E27"/>
<path d="M187.325 207.674C189.692 197.747 183.563 187.781 173.636 185.414C163.709 183.047 153.742 189.176 151.375 199.103C149.009 209.03 155.137 218.997 165.065 221.364C174.992 223.731 184.958 217.602 187.325 207.674Z" fill="#F7F7F7"/>
<path d="M187.842 203.414C187.842 212.329 181.819 219.565 176.722 219.565C171.625 219.565 167.512 212.329 167.512 203.414C167.512 194.498 171.609 187.254 176.755 187.254C181.901 187.254 187.842 194.49 187.842 203.414Z" fill="#3D2E27"/>
<path d="M180.819 197.441C182.566 197.441 183.982 196.025 183.982 194.278C183.982 192.531 182.566 191.115 180.819 191.115C179.072 191.115 177.656 192.531 177.656 194.278C177.656 196.025 179.072 197.441 180.819 197.441Z" fill="#FBFBFB"/>
<path d="M172.639 215.15C172.455 214.913 172.301 214.655 172.18 214.38C171.794 213.654 171.463 212.901 171.189 212.126C170.764 210.98 170.432 209.802 170.197 208.602C169.919 207.132 169.765 205.641 169.738 204.145C169.733 202.645 169.857 201.149 170.107 199.67C170.317 198.468 170.624 197.284 171.025 196.13C171.281 195.351 171.596 194.592 171.967 193.86C172.079 193.569 172.227 193.294 172.41 193.041C172.484 193.041 171.918 194.229 171.312 196.196C170.96 197.345 170.686 198.517 170.492 199.703C170.269 201.159 170.159 202.631 170.165 204.104C170.191 205.576 170.331 207.045 170.582 208.496C170.798 209.682 171.096 210.851 171.476 211.995C172.123 213.978 172.713 215.117 172.639 215.15Z" fill="#FBFBFB"/>
<path d="M164.666 179.879C164.617 180.477 163.929 180.936 163.027 181.362C162.126 181.788 160.905 182.181 159.7 182.731C158.496 183.28 157.439 183.755 156.537 184.165C155.636 184.574 154.898 184.82 154.366 184.501C153.833 184.181 153.768 183.288 154.366 182.1C155.174 180.6 156.49 179.438 158.078 178.822C159.598 178.152 161.296 177.996 162.913 178.379C164.068 178.691 164.716 179.305 164.666 179.879Z" fill="#3D2E27"/>
<path d="M76.4766 337.315L80.6312 330.808C100.413 352.54 165.773 378.386 224.29 319.967C249.423 294.875 247.391 252.476 247.391 252.476L242.392 236.775H247.391C247.391 236.775 261.879 263.498 246.711 298.489C246.711 298.489 231.141 339.961 183.473 355.031C108.28 378.779 76.4766 337.315 76.4766 337.315Z" fill="#F4A76F"/>
<g opacity="0.7">
<path d="M76.4766 337.315L80.6312 330.808C100.413 352.54 165.773 378.386 224.29 319.967C249.423 294.875 247.391 252.476 247.391 252.476L242.392 236.775H247.391C247.391 236.775 261.879 263.498 246.711 298.489C246.711 298.489 231.141 339.961 183.473 355.031C108.28 378.779 76.4766 337.315 76.4766 337.315Z" fill="#FBFBFB"/>
</g>
<path d="M75.3566 345.265C89.2294 331.393 89.2294 308.9 75.3566 295.028C61.4839 281.155 38.9917 281.155 25.1189 295.028C11.2461 308.9 11.2461 331.393 25.1189 345.265C38.9916 359.138 61.4839 359.138 75.3566 345.265Z" fill="#F4A76F"/>
<g opacity="0.7">
<path d="M75.3566 345.265C89.2294 331.393 89.2294 308.9 75.3566 295.028C61.4839 281.155 38.9917 281.155 25.1189 295.028C11.2461 308.9 11.2461 331.393 25.1189 345.265C38.9916 359.138 61.4839 359.138 75.3566 345.265Z" fill="#FBFBFB"/>
</g>
<path d="M58.7506 285.613C58.7315 285.841 58.6904 286.066 58.6277 286.285C58.5294 286.761 58.3819 287.4 58.2098 288.211C58.1114 288.629 58.0049 289.096 57.8902 289.596C57.7755 290.096 57.5952 290.637 57.4313 291.235C57.0789 292.398 56.7429 293.742 56.2021 295.176L55.3826 297.438C55.104 298.257 54.7517 299.02 54.4157 299.855C53.7765 301.535 52.9243 303.264 52.0638 305.092C50.0923 309.015 47.8412 312.792 45.3279 316.392C42.7629 319.958 39.9449 323.334 36.8957 326.496C35.4452 327.914 34.1013 329.282 32.7246 330.446C32.0527 331.036 31.4135 331.634 30.7661 332.158L28.8896 333.658C27.7178 334.641 26.5623 335.404 25.6118 336.116C25.1119 336.469 24.6612 336.805 24.2269 337.092L23.0223 337.854L21.3834 338.886C21.1965 339.019 20.996 339.132 20.7852 339.222C20.9593 339.074 21.1427 338.937 21.3342 338.812L22.9731 337.714L24.1531 336.895C24.5792 336.592 25.0218 336.248 25.5134 335.895C26.4804 335.166 27.6194 334.379 28.7913 333.388L30.6432 331.88C31.2906 331.347 31.9134 330.749 32.5771 330.151C33.9374 328.979 35.2732 327.602 36.6744 326.185C39.6784 323.032 42.4603 319.675 45.0001 316.138C47.5033 312.557 49.7541 308.806 51.7361 304.911C52.6047 303.092 53.4569 301.38 54.1125 299.716C54.4567 298.897 54.8172 298.077 55.104 297.315C55.3908 296.553 55.6613 295.783 55.9235 295.07C56.4807 293.644 56.8413 292.308 57.21 291.161C57.3821 290.579 57.5624 290.038 57.7017 289.522C57.841 289.006 57.9475 288.563 58.0541 288.145C58.2671 287.326 58.431 286.711 58.5539 286.244C58.6016 286.029 58.6674 285.818 58.7506 285.613Z" fill="#F4A76F"/>
<path d="M67.1502 289.236C67.125 289.478 67.0784 289.716 67.0109 289.949C66.8962 290.449 66.7405 291.121 66.5357 291.973C66.4291 292.416 66.3062 292.908 66.1751 293.44C66.044 293.973 65.8555 294.538 65.667 295.153C65.2819 296.374 64.9131 297.8 64.3149 299.299L63.4381 301.684C63.1349 302.503 62.7334 303.323 62.3646 304.224C61.6517 305.986 60.7257 307.797 59.7669 309.706C57.5882 313.81 55.095 317.739 52.3099 321.457C49.4808 325.137 46.3771 328.597 43.0254 331.807C41.4521 333.258 39.9607 334.651 38.4692 335.831C37.7317 336.429 37.0434 337.043 36.3305 337.56L34.29 339.076C33.0199 340.067 31.7661 340.838 30.7008 341.534C29.6355 342.231 28.6931 342.829 27.9146 343.28L26.1118 344.328C25.9071 344.458 25.6935 344.573 25.4727 344.673C25.6611 344.518 25.8611 344.379 26.0709 344.255L27.8245 343.14C28.5948 342.665 29.529 342.083 30.5697 341.337C31.6104 340.592 32.856 339.813 34.1179 338.813L36.1256 337.314C36.8303 336.789 37.5105 336.167 38.2398 335.568C39.723 334.38 41.1898 332.987 42.755 331.537C46.0698 328.315 49.148 324.859 51.9657 321.195C54.7351 317.498 57.2223 313.597 59.4064 309.526C60.3733 307.625 61.3075 305.83 62.0368 304.077C62.4056 303.208 62.8563 302.389 63.1185 301.561C63.3807 300.733 63.7331 299.922 64.0199 299.201C64.6345 297.701 65.0197 296.3 65.4294 295.104C65.6261 294.489 65.8309 293.924 65.9784 293.399C66.1259 292.875 66.2488 292.391 66.3636 291.949C66.6012 291.129 66.7815 290.441 66.9208 289.949C66.983 289.707 67.0596 289.469 67.1502 289.236Z" fill="#F4A76F"/>
<path d="M74.9108 295.619C74.8695 295.858 74.8092 296.094 74.7305 296.324C74.583 296.824 74.3781 297.488 74.1241 298.34C73.993 298.774 73.8373 299.258 73.6816 299.782C73.5259 300.306 73.2882 300.872 73.067 301.486C72.6081 302.691 72.141 304.092 71.4281 305.584L70.4201 307.936C70.0678 308.755 69.6417 309.574 69.2237 310.443C68.4043 312.18 67.4045 313.967 66.372 315.86C64.0408 319.905 61.4371 323.787 58.579 327.48C55.6519 331.134 52.4757 334.581 49.0733 337.797C47.4344 339.247 45.9757 340.64 44.4597 341.828C43.714 342.427 43.0175 343.033 42.2964 343.566L40.2395 345.09C38.9448 346.081 37.691 346.86 36.6175 347.548C36.0767 347.901 35.5768 348.245 35.1015 348.531L33.7986 349.302L31.9794 350.351C31.7715 350.48 31.5552 350.595 31.332 350.695C31.5227 350.54 31.7254 350.4 31.9384 350.277L33.7085 349.162L34.995 348.343C35.4621 348.048 35.9538 347.696 36.4864 347.335C37.5435 346.589 38.7809 345.803 40.0593 344.795C40.7148 344.303 41.395 343.795 42.0997 343.254C42.8044 342.713 43.4928 342.107 44.2385 341.501C45.7299 340.312 47.2213 338.911 48.8029 337.469C52.1731 334.247 55.3267 330.806 58.243 327.168C61.1123 323.497 63.7348 319.64 66.0934 315.622C67.1341 313.737 68.1584 311.976 68.9779 310.246C69.3958 309.427 69.7974 308.608 70.1907 307.788C70.584 306.969 70.8872 306.19 71.215 305.453C71.9034 303.978 72.3868 302.585 72.8539 301.355C73.0916 300.757 73.3128 300.2 73.5013 299.675C73.6898 299.151 73.8373 298.676 73.9848 298.241C74.2716 297.422 74.501 296.75 74.6649 296.258C74.7319 296.04 74.8141 295.826 74.9108 295.619Z" fill="#F4A76F"/>
<path d="M84.2287 329.325C83.942 329.253 83.6663 329.143 83.4092 328.997C82.9175 328.767 82.2046 328.407 81.336 327.956C79.5987 327.055 77.2387 325.744 74.6574 324.203C72.0761 322.662 69.8308 321.179 68.2165 320.065C67.397 319.508 66.766 319.049 66.3235 318.713C66.084 318.559 65.8639 318.378 65.668 318.172C65.9361 318.275 66.1896 318.413 66.4219 318.582L68.3804 319.811C70.0193 320.86 72.322 322.269 74.8787 323.834C77.4354 325.399 79.7954 326.727 81.4835 327.694L83.4912 328.849C83.7589 328.971 84.0074 329.131 84.2287 329.325Z" fill="#F4A76F"/>
<path d="M85.7273 321.637C84.9009 321.172 84.107 320.652 83.3509 320.08C81.9004 319.088 79.8846 317.744 77.6147 316.351C75.3448 314.958 73.206 313.794 71.6654 312.942C70.8128 312.52 69.9913 312.038 69.207 311.5C69.4595 311.558 69.7024 311.652 69.9282 311.779C70.3789 311.975 71.018 312.278 71.8047 312.672C73.3781 313.491 75.5332 314.598 77.8359 315.991C80.1386 317.384 82.1299 318.777 83.5721 319.834C84.2768 320.367 84.8423 320.801 85.211 321.12C85.5798 321.44 85.7519 321.62 85.7273 321.637Z" fill="#F4A76F"/>
<path d="M63.8421 352.228C63.7191 352.228 63.4405 345.722 63.2193 337.683C62.998 329.644 62.9079 323.121 63.0226 323.121C63.1373 323.121 63.4159 329.628 63.6454 337.666C63.8748 345.705 63.9568 352.228 63.8421 352.228Z" fill="#F4A76F"/>
<path d="M46.3313 356.3C46.1154 353.593 46.0443 350.877 46.1183 348.163C46.0441 345.448 46.1152 342.732 46.3313 340.025C46.5425 342.732 46.6136 345.448 46.5444 348.163C46.6134 350.877 46.5423 353.593 46.3313 356.3Z" fill="#F4A76F"/>
<path d="M54.9328 355.342C54.8181 355.342 54.7525 350.015 54.8017 343.451C54.8508 336.887 54.9738 331.553 55.0967 331.553C55.2196 331.553 55.2688 336.879 55.2278 343.451C55.1868 350.023 55.0475 355.342 54.9328 355.342Z" fill="#F4A76F"/>
<path d="M36.7754 326.489C36.7099 326.587 32.0717 323.596 26.4257 319.802C20.7796 316.008 16.2398 312.853 16.3054 312.73C16.3709 312.607 21.0091 315.623 26.6633 319.417C32.3176 323.211 36.841 326.391 36.7754 326.489Z" fill="#F4A76F"/>
<path d="M30.5882 331.578C30.3423 331.54 30.1043 331.463 29.8835 331.348C29.4492 331.176 28.8182 330.898 28.0561 330.529C26.0868 329.567 24.1718 328.497 22.3199 327.325C20.1401 325.948 18.2226 324.58 16.8951 323.563C16.142 323.049 15.4371 322.468 14.7891 321.826C15.5845 322.27 16.3484 322.769 17.0753 323.318C18.4602 324.276 20.3532 325.596 22.5493 326.964C24.7455 328.333 26.7449 329.464 28.2282 330.242C29.0404 330.641 29.8284 331.087 30.5882 331.578Z" fill="#F4A76F"/>
<path d="M51.9085 305.027C51.5075 305.22 51.0908 305.379 50.6629 305.502C50.169 305.684 49.6657 305.84 49.1551 305.969C48.5651 306.133 47.8932 306.322 47.1393 306.477C45.3711 306.859 43.5814 307.132 41.78 307.297C39.5733 307.493 37.357 307.561 35.1424 307.502C32.9282 307.422 30.7204 307.217 28.5294 306.887C26.742 306.611 24.9718 306.234 23.2275 305.756C22.4818 305.568 21.818 305.355 21.2362 305.166C20.6544 304.978 20.1463 304.806 19.753 304.642C19.3262 304.503 18.9121 304.327 18.5156 304.117C18.9538 304.205 19.3841 304.328 19.8022 304.486C20.2119 304.625 20.7118 304.781 21.3018 304.937C21.8918 305.092 22.5555 305.297 23.3013 305.469C24.7927 305.854 26.5791 306.182 28.5868 306.502C30.7609 306.804 32.9489 306.995 35.1424 307.075C37.3291 307.132 39.5173 307.074 41.6981 306.903C43.4937 306.757 45.28 306.514 47.0491 306.174C47.8112 306.043 48.4832 305.871 49.0732 305.732C49.6632 305.592 50.1795 305.461 50.5892 305.338C51.0176 305.191 51.4596 305.087 51.9085 305.027Z" fill="#F4A76F"/>
<path d="M55.8334 295.832C55.4475 296.05 55.0447 296.236 54.6288 296.389C54.2355 296.57 53.7438 296.75 53.1702 296.955C52.5965 297.16 51.941 297.397 51.2117 297.61C49.4914 298.138 47.7433 298.57 45.9753 298.905C43.8073 299.301 41.6186 299.575 39.4197 299.724C37.22 299.855 35.0145 299.855 32.8148 299.724C31.0202 299.609 29.2352 299.373 27.472 299.02C26.7099 298.889 26.0379 298.708 25.4479 298.553C24.9432 298.429 24.4454 298.278 23.9565 298.102C23.5293 297.977 23.1127 297.818 22.7109 297.627C23.1518 297.691 23.5855 297.798 24.0057 297.946C24.4072 298.069 24.9153 298.192 25.5053 298.315C26.0953 298.438 26.7672 298.61 27.5212 298.725C29.2808 299.029 31.0565 299.231 32.8394 299.331C35.0241 299.43 37.2125 299.411 39.3951 299.274C41.5763 299.11 43.7478 298.836 45.9016 298.454C47.8765 298.069 49.6547 297.684 51.1133 297.258C51.8508 297.061 52.5064 296.848 53.0882 296.66C53.67 296.471 54.1617 296.324 54.5632 296.168C54.9753 296.017 55.4005 295.904 55.8334 295.832Z" fill="#F4A76F"/>
<path d="M58.2616 287.736C57.9195 287.928 57.5566 288.079 57.1799 288.187C56.4752 288.457 55.4345 288.81 54.1479 289.203C50.7793 290.241 47.3355 291.016 43.8473 291.522C40.3564 292.032 36.8272 292.232 33.3009 292.12C31.9488 292.063 30.8425 291.981 30.105 291.891C29.7122 291.869 29.3225 291.808 28.9414 291.711C29.3339 291.675 29.7289 291.675 30.1214 291.711C30.8671 291.752 31.957 291.784 33.3091 291.801C36.8098 291.83 40.3077 291.598 43.7736 291.104C47.2439 290.59 50.6786 289.859 54.0578 288.916C55.3525 288.556 56.4014 288.253 57.1225 288.031C57.4933 287.901 57.8743 287.803 58.2616 287.736Z" fill="#F4A76F"/>
<path d="M72.6183 322.686C71.2112 324.538 69.6924 326.303 68.0703 327.971C66.5525 329.736 64.9297 331.408 63.2109 332.978C64.6191 331.124 66.1379 329.356 67.7589 327.684C69.2754 325.921 70.8982 324.251 72.6183 322.686Z" fill="#F4A76F"/>
<path d="M79.4343 326.717C79.3459 326.964 79.2216 327.196 79.0655 327.406C78.8033 327.84 78.3936 328.438 77.8609 329.168C75.0644 332.955 71.491 336.101 67.3801 338.395C66.5606 338.829 65.946 339.157 65.4871 339.362C65.2582 339.488 65.0127 339.582 64.7578 339.64C64.7578 339.583 65.7084 339.067 67.2162 338.132C69.1939 336.923 71.0686 335.553 72.8213 334.035C74.5541 332.491 76.1549 330.806 77.6069 328.995C78.7459 327.586 79.3769 326.66 79.4343 326.717Z" fill="#F4A76F"/>
<path d="M81.5073 330.357C81.3558 331.969 80.8684 333.53 80.0766 334.942C79.2848 336.353 78.2062 337.583 76.9102 338.552C77.9397 337.349 78.8766 336.07 79.7127 334.725C80.4175 333.315 81.0173 331.855 81.5073 330.357Z" fill="#F4A76F"/>
<path d="M88.3821 337.887C88.1341 339.206 87.5306 340.433 86.6366 341.435C85.8511 342.525 84.7789 343.376 83.5391 343.893C84.5191 343.043 85.4442 342.132 86.3088 341.165C87.0627 340.113 87.7549 339.018 88.3821 337.887Z" fill="#F4A76F"/>
<path d="M99.4971 344.689C99.5357 346.105 99.1659 347.502 98.4318 348.713C97.817 349.989 96.8392 351.055 95.6211 351.778C96.5373 350.761 97.3601 349.664 98.0795 348.5C98.6629 347.274 99.1372 345.999 99.4971 344.689Z" fill="#F4A76F"/>
<path d="M112.22 350.803C112.524 352.133 112.383 353.526 111.819 354.769C111.384 356.059 110.545 357.174 109.426 357.948C111.135 355.949 112.119 353.431 112.22 350.803Z" fill="#F4A76F"/>
<path d="M123.973 361.282C123.85 361.241 124.341 359.643 124.456 357.644C124.571 355.644 124.284 353.997 124.407 353.973C125.191 356.377 125.036 358.988 123.973 361.282Z" fill="#F4A76F"/>
<path d="M133.601 361.987C133.486 361.938 134.076 360.512 134.232 358.652C134.387 356.792 134.068 355.292 134.232 355.268C134.637 356.362 134.794 357.533 134.69 358.695C134.587 359.857 134.226 360.982 133.633 361.987H133.601Z" fill="#F4A76F"/>
<path d="M147.072 361.898C146.949 361.898 147.146 360.496 146.925 358.816C146.703 357.136 146.179 355.85 146.294 355.801C146.916 356.672 147.282 357.699 147.351 358.767C147.556 359.816 147.459 360.901 147.072 361.898Z" fill="#F4A76F"/>
<path d="M156.382 361.079C156.251 361.079 156.251 359.76 155.808 358.227C155.366 356.695 154.702 355.556 154.808 355.49C155.464 356.249 155.945 357.144 156.217 358.109C156.489 359.075 156.545 360.089 156.382 361.079Z" fill="#F4A76F"/>
<path d="M167.304 358.677C167.173 358.677 167.239 357.391 166.755 355.924C166.272 354.457 165.493 353.466 165.6 353.367C166.326 354.024 166.866 354.861 167.165 355.793C167.465 356.726 167.512 357.72 167.304 358.677Z" fill="#F4A76F"/>
<path d="M180.752 355.941C180.621 355.941 180.605 354.507 180.006 352.876C179.408 351.245 178.507 350.131 178.605 350.049C179.415 350.782 180.034 351.702 180.408 352.729C180.782 353.756 180.9 354.858 180.752 355.941Z" fill="#F4A76F"/>
<path d="M192.094 351.515C191.971 351.515 191.52 350.065 190.553 348.442C189.586 346.82 188.513 345.705 188.603 345.615C190.479 347.063 191.728 349.174 192.094 351.515Z" fill="#F4A76F"/>
<path d="M204.77 344.87C204.647 344.87 204.262 343.329 203.23 341.674C202.197 340.018 200.984 338.969 201.066 338.871C202.089 339.535 202.951 340.417 203.592 341.454C204.232 342.492 204.635 343.658 204.77 344.87Z" fill="#F4A76F"/>
<path d="M217.152 335.995C216.612 335.04 216.007 334.122 215.341 333.25C214.575 332.466 213.753 331.737 212.883 331.07C213.997 331.382 214.978 332.05 215.677 332.971C216.48 333.795 216.997 334.855 217.152 335.995Z" fill="#F4A76F"/>
<path d="M227.758 326.939C227.651 327.012 226.668 325.693 225.177 324.349C223.685 323.005 222.292 322.128 222.358 322.014C223.529 322.449 224.589 323.137 225.463 324.03C226.431 324.821 227.214 325.814 227.758 326.939Z" fill="#F4A76F"/>
<path d="M237.255 315.13C237.149 315.196 236.329 313.868 234.887 312.672C233.445 311.475 232.011 310.869 232.06 310.746C233.201 311.039 234.261 311.586 235.161 312.347C236.061 313.107 236.777 314.062 237.255 315.138V315.13Z" fill="#F4A76F"/>
<path d="M245.72 301.078C244.763 300.313 243.764 299.602 242.729 298.948C241.624 298.423 240.492 297.961 239.336 297.563C240.607 297.555 241.854 297.907 242.933 298.579C244.083 299.127 245.05 299.995 245.72 301.078Z" fill="#F4A76F"/>
<path d="M250.864 285.892C248.651 284.609 246.108 284.01 243.555 284.171C244.818 283.805 246.155 283.771 247.435 284.073C248.716 284.374 249.897 285.001 250.864 285.892Z" fill="#F4A76F"/>
<path d="M253.153 269.585C253.112 269.708 251.777 269.241 250.064 269.061C248.351 268.881 246.95 269.061 246.934 268.897C249.017 268.309 251.248 268.556 253.153 269.585Z" fill="#F4A76F"/>
<path d="M252.306 253.254C251.535 253.352 250.756 253.385 249.979 253.353C249.21 253.452 248.435 253.49 247.66 253.467C249.128 252.82 250.785 252.744 252.306 253.254Z" fill="#F4A76F"/>
<path d="M248.965 242.035C248.157 241.867 247.332 241.793 246.507 241.814C245.706 241.97 244.926 242.214 244.18 242.543C244.18 242.502 244.327 242.265 244.721 242.002C245.244 241.665 245.839 241.454 246.458 241.388C247.076 241.318 247.703 241.397 248.285 241.617C248.76 241.789 248.99 241.986 248.965 242.035Z" fill="#F4A76F"/>
<g opacity="0.3">
<path d="M193.389 297.161C197.364 304.708 206.632 308.584 215.105 307.552C223.578 306.519 231.125 301.25 236.411 294.531C240.303 289.565 243.188 283.132 241.582 277.035C237.378 285.773 230.025 292.598 220.998 296.14C211.971 299.681 201.938 299.677 192.914 296.128" fill="#1F1712"/>
</g>
<path d="M242.984 232.218C241.081 229.284 240.383 225.728 241.036 222.291C241.689 218.855 243.644 215.803 246.492 213.772C248.753 212.133 251.482 211.256 253.621 209.486C254.929 208.339 255.994 206.942 256.754 205.377C257.514 203.812 257.953 202.111 258.046 200.374C258.204 196.889 257.432 193.424 255.809 190.336L258.087 189.213L258.284 189.459C259.796 191.445 260.85 193.742 261.368 196.184C261.886 198.626 261.857 201.153 261.282 203.582C260.707 206.012 259.6 208.283 258.041 210.234C256.483 212.184 254.511 213.765 252.269 214.862C250.563 215.645 248.959 216.633 247.491 217.804C244.648 220.262 245.812 223.056 245.812 223.056" fill="#F4A76F"/>
<g opacity="0.7">
<path d="M242.984 232.218C241.081 229.284 240.383 225.728 241.036 222.291C241.689 218.855 243.644 215.803 246.492 213.772C248.753 212.133 251.482 211.256 253.621 209.486C254.929 208.339 255.994 206.942 256.754 205.377C257.514 203.812 257.953 202.111 258.046 200.374C258.204 196.889 257.432 193.424 255.809 190.336L258.087 189.213L258.284 189.459C259.796 191.445 260.85 193.742 261.368 196.184C261.886 198.626 261.857 201.153 261.282 203.582C260.707 206.012 259.6 208.283 258.041 210.234C256.483 212.184 254.511 213.765 252.269 214.862C250.563 215.645 248.959 216.633 247.491 217.804C244.648 220.262 245.812 223.056 245.812 223.056" fill="#FBFBFB"/>
</g>
<path d="M246.177 223.204C245.249 223.02 244.304 222.938 243.358 222.959C242.42 223.11 241.502 223.365 240.621 223.721C241.366 223.043 242.31 222.627 243.313 222.534C244.315 222.44 245.32 222.676 246.177 223.204Z" fill="#F4A76F"/>
<path d="M248.325 216.952C248.21 216.993 247.849 216.28 247.177 215.608C246.505 214.936 245.801 214.559 245.842 214.444C245.883 214.33 246.735 214.551 247.48 215.305C248.226 216.059 248.431 216.919 248.325 216.952Z" fill="#F4A76F"/>
<path d="M256.363 212.199C256.248 212.24 255.953 211.445 255.305 210.666C254.658 209.888 253.962 209.429 254.019 209.322C254.076 209.216 254.937 209.536 255.658 210.404C256.379 211.273 256.477 212.182 256.363 212.199Z" fill="#F4A76F"/>
<path d="M261.748 202.005C261.121 201.961 260.499 201.865 259.888 201.718C259.26 201.704 258.635 201.635 258.02 201.513C258.634 201.282 259.295 201.206 259.945 201.292C260.596 201.378 261.215 201.623 261.748 202.005Z" fill="#F4A76F"/>
<path d="M259.92 192.155C259.92 192.278 259.223 192.237 258.461 192.467C257.699 192.696 257.134 193.065 257.052 192.975C256.97 192.884 257.462 192.303 258.338 192.057C259.215 191.811 259.953 192.049 259.92 192.155Z" fill="#F4A76F"/>
<path d="M184.07 252.82C186.971 250.935 190.814 251.558 194.109 252.648C197.403 253.738 200.705 255.245 204.155 254.918C207.917 254.565 211.137 252.058 213.62 249.222C216.688 245.717 218.97 241.596 220.315 237.135C221.675 232.596 222.372 227.261 226.281 224.573C230.189 221.885 235.614 223.237 238.974 226.417C242.334 229.596 243.956 234.185 245.022 238.709C247.48 249.132 247.521 260.252 244.145 270.422C240.769 280.591 233.828 289.704 224.404 294.801C214.98 299.898 203.098 300.627 193.51 295.858" fill="#F4A76F"/>
<path d="M193.51 295.834C193.661 295.886 193.809 295.946 193.953 296.014L195.231 296.571C195.805 296.792 196.518 297.055 197.362 297.391C198.206 297.727 199.206 297.956 200.345 298.21C203.105 298.807 205.93 299.057 208.752 298.956C210.513 298.885 212.266 298.682 213.997 298.349C215.938 297.995 217.844 297.469 219.692 296.776C223.95 295.185 227.874 292.815 231.263 289.786C235.164 286.334 238.409 282.206 240.842 277.601C243.528 272.513 245.287 266.989 246.038 261.285C246.846 255.161 246.713 248.948 245.644 242.864C245.152 239.777 244.381 236.741 243.342 233.793C242.365 230.924 240.693 228.342 238.474 226.278C236.284 224.344 233.438 223.318 230.517 223.41C229.119 223.47 227.76 223.894 226.576 224.639C225.431 225.394 224.478 226.404 223.789 227.589C222.38 229.916 221.774 232.572 221.085 235.079C220.481 237.552 219.613 239.953 218.496 242.241C217.445 244.375 216.161 246.387 214.669 248.24C213.32 249.977 211.731 251.514 209.949 252.804C208.323 253.992 206.428 254.761 204.434 255.041C202.652 255.203 200.856 255.011 199.148 254.476C195.961 253.533 193.355 252.32 191.052 251.952C189.309 251.565 187.497 251.61 185.775 252.083C185.333 252.221 184.905 252.399 184.496 252.615C184.218 252.771 184.07 252.837 184.07 252.837L184.472 252.583C184.874 252.346 185.3 252.151 185.742 252.001C187.477 251.484 189.314 251.411 191.085 251.788C193.412 252.14 196.051 253.337 199.214 254.246C200.891 254.761 202.654 254.939 204.401 254.771C206.348 254.487 208.194 253.727 209.777 252.558C211.53 251.279 213.092 249.756 214.415 248.035C215.879 246.193 217.14 244.198 218.176 242.085C219.279 239.816 220.133 237.434 220.725 234.981C221.405 232.481 222.003 229.794 223.453 227.384C224.169 226.144 225.166 225.089 226.363 224.303C227.591 223.518 229.004 223.068 230.46 223C231.947 222.931 233.432 223.162 234.827 223.68C236.254 224.193 237.574 224.966 238.72 225.958C240.989 228.068 242.7 230.706 243.702 233.637C244.755 236.614 245.534 239.68 246.029 242.798C247.112 248.923 247.242 255.178 246.415 261.343C245.655 267.095 243.873 272.664 241.154 277.789C238.693 282.44 235.409 286.605 231.46 290.081C228.029 293.11 224.063 295.473 219.766 297.046C217.903 297.732 215.984 298.253 214.03 298.603C212.285 298.926 210.518 299.117 208.744 299.177C205.902 299.262 203.06 298.987 200.287 298.358C199.148 298.112 198.165 297.784 197.305 297.538C196.444 297.292 195.748 296.956 195.182 296.719L193.92 296.12C193.65 295.916 193.51 295.834 193.51 295.834Z" fill="#3D2E27"/>
<path d="M228.781 234.186C228.361 233.839 228.025 233.402 227.798 232.908C227.179 231.737 226.869 230.429 226.896 229.105C226.912 227.784 227.259 226.488 227.904 225.336C228.141 224.843 228.492 224.413 228.928 224.082C228.986 224.131 228.593 224.606 228.175 225.475C227.632 226.613 227.341 227.854 227.323 229.114C227.304 230.374 227.559 231.624 228.068 232.776C228.47 233.653 228.847 234.145 228.781 234.186Z" fill="#3D2E27"/>
<path d="M233.758 233.464C233.382 233.077 233.087 232.621 232.889 232.12C232.34 230.934 232.017 229.655 231.938 228.35C231.856 227.047 232.023 225.74 232.43 224.499C232.563 223.976 232.799 223.485 233.127 223.057C232.514 224.742 232.255 226.536 232.363 228.326C232.472 230.116 232.946 231.864 233.758 233.464Z" fill="#3D2E27"/>
<path d="M237.74 234.881C237.222 233.638 237.009 232.29 237.117 230.947C237.081 229.601 237.362 228.265 237.937 227.047C238.06 227.088 237.593 228.792 237.543 230.956C237.494 233.119 237.863 234.881 237.74 234.881Z" fill="#3D2E27"/>
<path d="M306.155 245.126C298.657 249.698 288.685 248.83 280.916 244.724C273.148 240.619 267.264 233.743 262.355 226.532C260.962 224.483 259.553 222.312 257.389 221.075C253.137 218.616 247.261 220.993 244.819 225.172C242.377 229.351 242.836 234.71 244.721 239.185C244.721 239.185 249.719 263.408 275.778 278.469" fill="#F4A76F"/>
<path d="M275.776 278.494C275.697 278.467 275.623 278.428 275.555 278.379L274.916 278.002C274.342 277.65 273.531 277.142 272.457 276.502C271.941 276.158 271.318 275.83 270.704 275.372L268.696 273.905C267.983 273.356 267.164 272.839 266.394 272.159L263.935 270.053C259.88 266.421 256.273 262.316 253.192 257.827C251.332 255.125 249.688 252.281 248.275 249.321C246.688 246.101 245.436 242.726 244.539 239.25V239.291C243.292 236.439 242.771 233.322 243.023 230.219C243.182 228.599 243.643 227.023 244.383 225.573C245.346 223.744 246.824 222.237 248.634 221.238C250.445 220.239 252.507 219.792 254.569 219.952C255.769 220.094 256.921 220.509 257.937 221.164C258.908 221.827 259.771 222.637 260.493 223.565C261.223 224.467 261.862 225.417 262.485 226.343C263.107 227.269 263.755 228.179 264.394 229.064C265.689 230.842 267.016 232.538 268.385 234.12C270.952 237.145 273.877 239.847 277.096 242.167C279.907 244.186 283.025 245.739 286.331 246.764C291.104 248.318 296.221 248.477 301.081 247.223C301.487 247.123 301.886 247 302.278 246.854C302.646 246.723 302.999 246.617 303.31 246.486C303.933 246.207 304.474 245.994 304.883 245.781L305.826 245.281C305.93 245.22 306.04 245.168 306.154 245.125C306.058 245.199 305.957 245.265 305.85 245.322L304.924 245.855C304.515 246.084 303.982 246.305 303.359 246.6C303.04 246.74 302.695 246.854 302.327 246.994C301.934 247.149 301.531 247.281 301.122 247.387C296.226 248.72 291.048 248.603 286.216 247.051C282.876 246.036 279.723 244.483 276.883 242.454C273.631 240.128 270.676 237.415 268.082 234.374C266.697 232.784 265.361 231.096 264.058 229.31C263.411 228.417 262.772 227.499 262.141 226.573C261.51 225.647 260.879 224.704 260.166 223.828C259.468 222.938 258.639 222.159 257.707 221.517C256.746 220.898 255.655 220.508 254.52 220.378C252.164 220.163 249.81 220.812 247.898 222.205C246.614 223.143 245.55 224.349 244.78 225.741C244.01 227.132 243.553 228.674 243.44 230.26C243.198 233.292 243.704 236.337 244.916 239.127V239.168C245.8 242.62 247.035 245.973 248.603 249.173C250.019 252.121 251.663 254.954 253.52 257.647C256.574 262.125 260.15 266.224 264.173 269.857L266.631 271.979C267.393 272.667 268.205 273.184 268.901 273.741L270.892 275.232C271.499 275.699 272.113 276.052 272.63 276.379L275.031 277.936L275.645 278.346C275.693 278.391 275.737 278.441 275.776 278.494Z" fill="#3D2E27"/>
<path d="M251.768 234.792C251.147 232.812 250.274 230.92 249.17 229.162C247.253 226.294 244.811 224.787 244.909 224.672C245.48 224.909 246.009 225.239 246.474 225.647C248.843 227.518 250.577 230.073 251.44 232.965C251.654 233.55 251.765 234.169 251.768 234.792Z" fill="#3D2E27"/>
<path d="M256.83 231.505C256.507 229.425 255.912 227.397 255.06 225.474C254.077 223.614 252.857 221.889 251.43 220.344C251.969 220.67 252.452 221.079 252.864 221.557C253.912 222.661 254.783 223.922 255.445 225.293C256.104 226.663 256.552 228.124 256.773 229.628C256.899 230.246 256.919 230.881 256.83 231.505Z" fill="#3D2E27"/>
<g opacity="0.3">
<path d="M239.893 279.6C241.933 276.478 233.526 275.74 229.822 276.174C224.397 276.798 219.398 279.414 215.794 283.517C212.19 287.619 210.238 292.914 210.319 298.374C210.319 298.374 226.511 300.103 239.893 279.6Z" fill="#FBFBFB"/>
</g>
<g opacity="0.3">
<path d="M253.703 265.661C257.963 272.177 264.28 277.081 271.649 279.592C272.422 279.927 273.272 280.046 274.107 279.936C274.519 279.875 274.897 279.672 275.175 279.363C275.454 279.053 275.615 278.656 275.632 278.24C266.872 273.474 259.363 266.704 253.719 258.482C253.289 261.004 253.65 263.598 254.752 265.907" fill="#1F1712"/>
</g>
<path d="M242.426 210.363C249.642 203.147 249.642 191.447 242.426 184.23C235.21 177.014 223.509 177.014 216.293 184.23C209.077 191.447 209.077 203.147 216.293 210.363C223.509 217.58 235.21 217.58 242.426 210.363Z" fill="#F7F7F7"/>
<path d="M247.817 198.072C247.817 206.996 243.13 214.461 237.91 214.461C232.69 214.461 228.453 207.225 228.453 198.31C228.453 189.394 232.69 182.158 237.91 182.158C243.13 182.158 247.817 189.156 247.817 198.072Z" fill="#3D2E27"/>
<path d="M233.313 205.734C233.158 205.551 233.031 205.347 232.936 205.127C232.639 204.548 232.384 203.948 232.174 203.333C230.746 199.22 230.866 194.728 232.51 190.697C232.752 190.093 233.043 189.509 233.378 188.951C233.482 188.736 233.617 188.537 233.78 188.361C233.845 188.361 233.354 189.279 232.796 190.82C232.078 192.809 231.679 194.9 231.616 197.015C231.562 199.126 231.838 201.233 232.436 203.259C232.936 204.791 233.386 205.701 233.313 205.734Z" fill="#FBFBFB"/>
<path d="M240.269 191.115C242.016 191.115 243.432 189.699 243.432 187.952C243.432 186.205 242.016 184.789 240.269 184.789C238.522 184.789 237.105 186.205 237.105 187.952C237.105 189.699 238.522 191.115 240.269 191.115Z" fill="#FBFBFB"/>
<path d="M241.328 174.488C240.976 174.972 240.083 174.963 238.96 174.783C237.837 174.603 236.428 174.275 234.904 174.029C233.38 173.783 232.003 173.636 230.897 173.48C229.79 173.324 228.938 173.103 228.717 172.546C228.496 171.989 229.028 171.194 230.274 170.53C231.006 170.156 231.795 169.904 232.609 169.784C233.603 169.629 234.615 169.629 235.608 169.784C237.4 170.056 239.067 170.862 240.394 172.095C241.377 173.111 241.664 174.021 241.328 174.488Z" fill="#3D2E27"/>
<path d="M232.954 220.369C231.528 217.438 231.214 214.089 232.071 210.944C232.927 207.8 234.897 205.073 237.612 203.27C240.328 201.468 243.606 200.712 246.837 201.144C250.067 201.576 253.031 203.166 255.178 205.619" fill="#F4A76F"/>
<path d="M255.194 205.62C255.194 205.62 254.801 205.251 254.072 204.62C253.03 203.736 251.858 203.017 250.597 202.489C248.735 201.702 246.727 201.316 244.705 201.359C242.22 201.336 239.784 202.056 237.711 203.427C235.637 204.798 234.021 206.757 233.069 209.053C232.246 210.9 231.822 212.899 231.823 214.921C231.823 216.285 232.03 217.642 232.438 218.944C232.733 219.862 232.962 220.354 232.921 220.37C232.845 220.266 232.782 220.153 232.733 220.034C232.561 219.7 232.41 219.355 232.282 219.001C231.8 217.689 231.545 216.303 231.528 214.904C231.474 212.831 231.876 210.772 232.708 208.873C233.67 206.502 235.325 204.476 237.457 203.061C239.588 201.645 242.098 200.906 244.656 200.941C246.728 200.916 248.781 201.344 250.671 202.194C251.944 202.754 253.113 203.524 254.129 204.472C254.407 204.727 254.667 205.001 254.907 205.292C255.016 205.389 255.113 205.499 255.194 205.62Z" fill="#3D2E27"/>
<path d="M196.259 150.396C196.128 150.465 195.987 150.512 195.841 150.536L194.62 150.864C194.087 150.995 193.44 151.183 192.694 151.413L191.506 151.765L190.178 152.216C185.362 153.899 180.741 156.097 176.395 158.771C172.044 161.455 167.883 164.434 163.939 167.687C162.423 168.933 161.202 169.949 160.375 170.67L159.4 171.489C159.178 171.678 159.055 171.768 159.039 171.752C159.128 171.634 159.23 171.527 159.342 171.432L160.26 170.555C161.08 169.801 162.251 168.752 163.743 167.466C167.649 164.146 171.805 161.133 176.174 158.452C180.544 155.739 185.22 153.555 190.105 151.945L191.44 151.511L192.653 151.191C193.407 150.978 194.054 150.814 194.595 150.708L195.841 150.462C195.977 150.423 196.117 150.401 196.259 150.396Z" fill="#3D2E27"/>
<path d="M77.4197 50.3234C77.2731 50.017 77.1604 49.6955 77.0837 49.3646C76.9854 49.0532 76.8789 48.6599 76.7805 48.2092C76.6822 47.7585 76.5511 47.2259 76.4691 46.6522C76.2445 45.2974 76.1185 43.928 76.0922 42.5549C76.0716 40.8685 76.1867 39.1832 76.4364 37.5153C76.7093 35.8475 77.1121 34.2036 77.641 32.5985C78.0937 31.2955 78.6415 30.0274 79.2799 28.8044C79.5339 28.2718 79.8207 27.8211 80.0502 27.4114C80.2796 27.0016 80.5009 26.6739 80.6893 26.4034C80.8642 26.109 81.0702 25.8343 81.3039 25.584C81.3695 25.625 80.5582 26.8296 79.5503 28.9274C78.9682 30.1562 78.4646 31.4207 78.0425 32.7133C77.5411 34.3037 77.1523 35.9276 76.8789 37.5726C76.6378 39.2198 76.5145 40.8821 76.5101 42.5467C76.5176 43.9173 76.6134 45.2859 76.7969 46.644C77.0919 48.9139 77.5016 50.307 77.4197 50.3234Z" fill="#3D2E27"/>
<path d="M270.963 0.171209L93.2734 33.2324L111.87 133.179L289.56 100.118L270.963 0.171209Z" fill="#FBFBFB"/>
<path d="M289.559 100.113C289.559 100.113 289.428 99.5067 289.207 98.3267C288.985 97.1466 288.649 95.393 288.215 93.1067C287.355 88.5342 286.085 81.79 284.462 73.1366C281.184 55.8378 276.546 30.8771 270.793 0.204864L270.99 0.335977L93.3154 33.4338L93.4875 33.1798C100.043 68.5312 106.345 102.342 112.073 133.154L111.835 132.99L239.67 109.299L276.39 102.522L286.175 100.728L288.699 100.269L289.567 100.121L288.748 100.293L286.248 100.769L276.497 102.596L239.834 109.504L111.901 133.375L111.704 133.416V133.219C105.968 102.424 99.6744 68.6213 93.0859 33.2454V33.0323H93.2908L270.925 0H271.088V0.155696L284.593 73.2349C286.183 81.8802 287.42 88.6079 288.264 93.1805L289.215 98.3758C289.461 99.5231 289.559 100.113 289.559 100.113Z" fill="#3D2E27"/>
<path d="M169.697 71.5299L164.231 72.5461L165.542 79.5688L155.43 81.4536L154.119 74.4308L134.731 78.0364L133.469 71.2759L145.662 45.3237L156.405 43.3242L145.457 67.531L152.898 66.1461L151.734 59.91L161.568 58.0908L162.732 64.3187L168.173 63.3108L169.697 71.5299Z" fill="#3D2E27"/>
<path d="M169.689 59.8281C167.436 47.7247 172.967 39.4891 182.334 37.7437C191.7 35.9982 199.764 41.7099 202.001 53.8132C204.238 65.9166 198.723 74.1522 189.414 75.8812C180.105 77.6103 171.943 71.9314 169.689 59.8281ZM191.594 55.7308C190.159 48.0443 187.177 45.5859 183.899 46.2333C180.621 46.8806 178.671 50.183 180.105 57.8859C181.539 65.5888 184.481 68.0226 187.832 67.3998C191.184 66.7771 193.028 63.4501 191.594 55.7472V55.7308Z" fill="#3D2E27"/>
<path d="M242.27 58.026L236.821 59.0422L238.124 66.0649L228.02 67.9497L226.709 60.9269L207.32 64.5325L206.066 57.772L218.26 31.8198L228.97 29.8203L218.055 54.0271L225.496 52.6422L224.332 46.4061L234.166 44.5869L235.321 50.8148L240.77 49.8069L242.27 58.026Z" fill="#3D2E27"/>
<path d="M173.311 101.104L173.647 102.891L163.207 104.833L160.527 90.4433L170.68 88.5586L171.008 90.345L162.912 91.8528L163.731 96.2697L170.951 94.9258L171.279 96.6794L164.059 98.0315L164.928 102.67L173.311 101.104Z" fill="#3D2E27"/>
<path d="M186.588 100.49L182.663 96.6463C182.385 96.72 182.081 96.802 181.77 96.8593L178.214 97.5231L179.033 101.899L176.984 102.284L174.305 87.8945L179.918 86.8456C183.655 86.149 186.269 87.6241 186.851 90.7462C187.083 91.7373 186.982 92.7774 186.562 93.7049C186.143 94.6325 185.429 95.3957 184.532 95.876L188.842 100.072L186.588 100.49ZM184.786 91.1313C184.4 89.0745 182.811 88.1567 180.18 88.673L176.681 89.3203L177.886 95.794L181.385 95.1467C184.015 94.6222 185.171 93.18 184.786 91.1231V91.1313Z" fill="#3D2E27"/>
<path d="M201.526 97.7036L197.601 93.8604C197.322 93.9341 197.019 94.0161 196.707 94.0734L193.151 94.729L193.97 99.1131L191.922 99.49L189.242 85.1086L194.855 84.0597C198.592 83.3631 201.206 84.8791 201.788 87.9603C202.026 88.9549 201.928 90.0005 201.508 90.9333C201.089 91.866 200.371 92.6332 199.469 93.1147L203.779 97.3103L201.526 97.7036ZM199.723 88.3454C199.338 86.2886 197.748 85.3708 195.118 85.887L191.619 86.5344L192.823 93.0081L196.322 92.3608C198.953 91.8445 200.108 90.3941 199.723 88.3454Z" fill="#3D2E27"/>
<path d="M204.338 89.7391C203.56 85.5271 206.215 81.774 210.64 80.9546C215.065 80.1351 218.834 82.659 219.654 86.8956C220.473 91.1322 217.777 94.8525 213.401 95.672C209.025 96.4915 205.125 93.9348 204.338 89.7391ZM217.58 87.2808C217.388 86.1686 216.87 85.1387 216.091 84.3222C215.312 83.5057 214.307 82.9395 213.205 82.6956C212.103 82.4518 210.954 82.5413 209.903 82.9529C208.852 83.3644 207.947 84.0793 207.304 85.0066C206.66 85.934 206.307 87.0317 206.29 88.1602C206.273 89.2887 206.591 90.3969 207.205 91.3437C207.82 92.2905 208.702 93.0331 209.74 93.477C210.777 93.9209 211.923 94.046 213.032 93.8364C213.771 93.7231 214.479 93.4605 215.113 93.0644C215.747 92.6684 216.293 92.1473 216.719 91.533C217.144 90.9187 217.44 90.2241 217.588 89.4916C217.737 88.759 217.734 88.004 217.58 87.2726V87.2808Z" fill="#3D2E27"/>
<path d="M233.731 91.7127L229.789 87.8695C229.502 87.9432 229.199 88.017 228.888 88.0744L225.331 88.7381L226.151 93.114L224.094 93.4992L221.414 79.1095L227.027 78.0688C230.772 77.3722 233.378 78.8391 233.96 81.9694C234.195 82.9605 234.095 84.0017 233.676 84.9299C233.256 85.8581 232.54 86.621 231.641 87.0992L235.951 91.2948L233.731 91.7127ZM231.92 82.3463C231.543 80.2977 229.945 79.3799 227.314 79.888L223.823 80.5353L225.028 87.0091L228.519 86.3617C231.149 85.8536 232.305 84.4032 231.92 82.3463Z" fill="#3D2E27"/>
<path d="M267.214 10.9883C267.242 11.7211 267.053 12.446 266.669 13.0711C266.286 13.6961 265.725 14.1933 265.059 14.4994C264.392 14.8056 263.65 14.907 262.926 14.7908C262.202 14.6746 261.528 14.3461 260.991 13.8468C260.454 13.3476 260.077 12.7 259.908 11.9863C259.739 11.2726 259.786 10.5249 260.043 9.83781C260.299 9.15075 260.754 8.55532 261.349 8.127C261.945 7.69868 262.654 7.45673 263.387 7.43183C264.365 7.39858 265.317 7.75402 266.034 8.42045C266.751 9.08687 267.175 10.0101 267.214 10.9883Z" fill="#7C7C7C"/>
<path d="M267.215 10.9892C267.174 10.9892 267.166 10.6614 266.985 10.1124C266.724 9.34553 266.221 8.68419 265.551 8.22761C265.011 7.86152 264.379 7.65205 263.727 7.62237C263.075 7.59269 262.427 7.74396 261.856 8.05944C261.284 8.37493 260.811 8.84234 260.488 9.41C260.166 9.97767 260.006 10.6235 260.028 11.276C260.06 11.9259 260.271 12.5544 260.637 13.0924C261.003 13.6303 261.511 14.057 262.103 14.3254C262.696 14.5939 263.352 14.6937 263.997 14.614C264.643 14.5343 265.255 14.2782 265.764 13.8737C266.398 13.3684 266.847 12.6686 267.043 11.8824C267.182 11.317 267.166 10.9892 267.207 10.9892C267.248 10.9892 267.207 11.0711 267.248 11.2268C267.263 11.4571 267.249 11.6884 267.207 11.9152C267.061 12.7699 266.617 13.5452 265.953 14.1031C265.46 14.5233 264.868 14.8121 264.234 14.9424C263.599 15.0728 262.942 15.0406 262.323 14.8488C261.556 14.6108 260.881 14.1409 260.393 13.5038C259.904 12.8667 259.624 12.0937 259.593 11.2913C259.561 10.4889 259.779 9.69646 260.217 9.02307C260.654 8.34967 261.29 7.82843 262.036 7.53108C262.637 7.28911 263.29 7.20354 263.934 7.28236C264.577 7.36118 265.19 7.60181 265.715 7.98178C266.419 8.48977 266.921 9.22972 267.133 10.0714C267.195 10.2926 267.226 10.5217 267.223 10.7515C267.231 10.9072 267.231 10.9892 267.215 10.9892Z" fill="#3D2E27"/>
<path d="M265.147 8.41602C265.331 9.40468 265.151 10.4264 264.639 11.2923C264.258 12.2211 263.554 12.9806 262.656 13.4311C263.241 12.6893 263.775 11.9091 264.254 11.0956C264.61 10.2229 264.908 9.32775 265.147 8.41602Z" fill="#3D2E27"/>
<path d="M265.847 12.3409C265.74 12.4064 265.248 11.4313 264.134 10.8576C263.429 10.5723 262.687 10.3901 261.93 10.3168C261.93 10.2594 262.176 10.1447 262.626 10.1119C263.217 10.0811 263.805 10.2084 264.331 10.4807C264.855 10.7517 265.297 11.1594 265.609 11.6607C265.847 12.0459 265.929 12.3245 265.847 12.3409Z" fill="#3D2E27"/>
<path d="M101.146 59.8554L91.8242 67.2891L95.186 71.5048L104.508 64.0711L101.146 59.8554Z" fill="#7C7C7C"/>
<path d="M104.502 64.0821C104.502 64.0821 104.125 63.6724 103.518 62.9513L101.06 59.9603H101.281C98.8885 61.9106 95.6189 64.5492 91.9969 67.4337C91.9969 67.7041 91.9969 67.0731 91.9969 67.1387L92.0543 67.2125L92.169 67.3518L92.3902 67.6222L92.8246 68.1712L93.644 69.2447L95.2829 71.2934H94.9961C97.6839 69.171 100.019 67.3682 101.699 66.0734L103.682 64.5656C103.924 64.3683 104.178 64.1876 104.444 64.0248C104.252 64.2264 104.043 64.4127 103.822 64.582L101.937 66.1554C100.298 67.4993 97.9871 69.4332 95.2502 71.6129L95.0945 71.7359L94.9633 71.5802L93.3244 69.5397C93.0376 69.1873 92.7508 68.835 92.464 68.4662L92.0297 67.9254L91.8084 67.6468L91.6937 67.5075L91.6445 67.4419C91.6445 67.5075 91.7101 66.8765 91.6445 67.1469C95.2665 64.2542 98.5689 61.6565 101.003 59.7718L101.126 59.6816L101.224 59.7964C102.265 61.1403 103.092 62.2547 103.682 62.9759C103.98 63.3257 104.254 63.6953 104.502 64.0821Z" fill="#3D2E27"/>
<path d="M89.7269 72.6294C90.1319 73.1425 90.634 73.5707 91.2046 73.8896C91.7751 74.2084 92.4029 74.4117 93.0521 74.4878C93.7013 74.5639 94.3591 74.5114 94.9879 74.3331C95.6167 74.1548 96.2043 73.8544 96.7169 73.4489L90.4808 65.6641C89.4618 66.4909 88.8107 67.6869 88.6695 68.9915C88.5283 70.2962 88.9084 71.6038 89.7269 72.6294Z" fill="#7C7C7C"/>
<path d="M89.7292 72.628C89.5786 72.5045 89.4485 72.3579 89.344 72.1937C89.0355 71.7391 88.8082 71.2345 88.6721 70.7022C88.4531 69.8807 88.4531 69.0162 88.6721 68.1947C88.9422 67.1283 89.5484 66.1773 90.4011 65.4823L90.5568 65.3594L90.6797 65.5151L93.7937 69.3911C94.8917 70.7678 95.9324 72.0871 96.883 73.2917L97.0059 73.4474L96.8502 73.5703C95.9837 74.2456 94.9246 74.6274 93.8264 74.6602C92.9715 74.6818 92.1252 74.4843 91.3681 74.0866C90.8822 73.8337 90.4441 73.4982 90.0733 73.0951C89.935 72.9582 89.8189 72.8006 89.7292 72.628C90.2487 73.1241 90.8365 73.5435 91.4746 73.8735C92.3015 74.2555 93.2181 74.4003 94.1225 74.2918C95.0268 74.1833 95.8832 73.8257 96.5962 73.2589V73.5376L93.4823 69.6615L90.3929 65.7609H90.6633C89.9505 66.331 89.4104 67.0883 89.1036 67.948C88.7967 68.8077 88.7353 69.7358 88.9261 70.6285C89.1005 71.3288 89.3707 72.0016 89.7292 72.628Z" fill="#3D2E27"/>
<path d="M90.8769 70.0469C90.494 70.4909 90.2428 71.0331 90.1516 71.6122C90.0604 72.1914 90.1328 72.7845 90.3606 73.3247" fill="#7C7C7C"/>
<path d="M90.3606 73.357C90.1459 73.1236 89.9941 72.8394 89.9195 72.5312C89.845 72.2229 89.8501 71.9008 89.9345 71.5951C90.0902 70.5298 90.8113 69.9562 90.8768 70.0463C90.9424 70.1365 90.4835 70.7429 90.3524 71.6853C90.2213 72.6276 90.4835 73.2996 90.3606 73.357Z" fill="#3D2E27"/>
<path d="M96.7353 70.5795C96.0745 69.903 95.4663 69.177 94.9161 68.4079C94.2616 67.7302 93.659 67.0043 93.1133 66.2363C93.9594 66.6989 94.6883 67.3493 95.2439 68.1375C95.9147 68.8317 96.424 69.6656 96.7353 70.5795Z" fill="#3D2E27"/>
<path d="M97.856 69.7107C97.199 69.033 96.5936 68.3072 96.045 67.5391C95.3885 66.8603 94.7858 66.1315 94.2422 65.3594C95.8549 66.4157 97.1138 67.9314 97.856 69.7107Z" fill="#3D2E27"/>
<path d="M98.9228 68.8353C98.2634 68.1598 97.6578 67.4338 97.1118 66.6638C96.4533 65.9874 95.8479 65.2614 95.3008 64.4922C96.1486 64.9556 96.8799 65.6057 97.4396 66.3933C98.1054 67.09 98.6115 67.9233 98.9228 68.8353Z" fill="#3D2E27"/>
<path d="M100.012 67.9665C99.3552 67.2889 98.7499 66.563 98.2012 65.795C97.5477 65.1136 96.9451 64.385 96.3984 63.6152C97.2397 64.0847 97.9672 64.7338 98.529 65.5164C99.2013 66.2113 99.7083 67.0487 100.012 67.9665Z" fill="#3D2E27"/>
<path d="M101.133 67.0892C100.474 66.4137 99.8684 65.6877 99.3223 64.9177C98.6649 64.2426 98.0621 63.5165 97.5195 62.7461C98.3622 63.2136 99.0901 63.863 99.6501 64.6472C100.316 65.3439 100.822 66.1772 101.133 67.0892Z" fill="#3D2E27"/>
<path d="M102.2 66.2205C101.543 65.5428 100.937 64.8169 100.389 64.0489C99.7352 63.3675 99.1326 62.6389 98.5859 61.8691C99.4272 62.3386 100.155 62.9877 100.717 63.7703C101.389 64.4652 101.896 65.3026 102.2 66.2205Z" fill="#3D2E27"/>
<path d="M103.297 65.3431C102.638 64.6676 102.032 63.9416 101.486 63.1716C100.829 62.4965 100.226 61.7704 99.6836 61C100.526 61.4675 101.254 62.1169 101.814 62.9011C102.48 63.5978 102.986 64.4311 103.297 65.3431Z" fill="#3D2E27"/>
<path d="M109.739 41.4887C109.698 41.4887 109.69 41.1528 109.509 40.6037C109.249 39.8226 108.736 39.1506 108.051 38.6944C107.504 38.3214 106.865 38.1073 106.203 38.0757C105.542 38.0442 104.885 38.1964 104.306 38.5156C103.726 38.8348 103.246 39.3084 102.919 39.8839C102.592 40.4593 102.431 41.1141 102.454 41.7756C102.483 42.4374 102.695 43.0783 103.066 43.6269C103.438 44.1755 103.954 44.6103 104.558 44.8829C105.162 45.1555 105.829 45.2553 106.486 45.1711C107.144 45.0869 107.764 44.822 108.28 44.406C108.923 43.896 109.379 43.187 109.575 42.3901C109.714 41.8247 109.698 41.4887 109.739 41.4887C109.78 41.4887 109.739 41.5707 109.78 41.7264C109.795 41.9594 109.781 42.1934 109.739 42.4229C109.605 43.2925 109.17 44.0874 108.51 44.6682C108.012 45.0947 107.413 45.387 106.771 45.5175C106.128 45.648 105.463 45.6124 104.838 45.4139C104.073 45.166 103.402 44.6895 102.916 44.0485C102.43 43.4075 102.152 42.633 102.12 41.8292C102.088 41.0255 102.303 40.2312 102.736 39.5534C103.17 38.8757 103.8 38.3471 104.543 38.0388C105.153 37.796 105.815 37.7108 106.466 37.791C107.118 37.8712 107.739 38.1142 108.272 38.4977C108.982 39.0131 109.49 39.7612 109.706 40.6119C109.766 40.8367 109.799 41.0677 109.804 41.3003C109.777 41.4259 109.755 41.4887 109.739 41.4887Z" fill="#3D2E27"/>
<path d="M85.4031 50.5695C85.2639 50.2609 85.1541 49.9399 85.0753 49.6107C84.9495 49.2297 84.8482 48.841 84.7721 48.4471C84.6738 47.9964 84.5345 47.4801 84.4607 46.8983C84.2333 45.5437 84.1046 44.1743 84.0756 42.801C84.0112 39.4169 84.5381 36.0475 85.6325 32.8446C86.0834 31.5382 86.6312 30.2672 87.2715 29.0423C87.5173 28.5097 87.8041 28.059 88.0335 27.6575C88.2294 27.3109 88.4428 26.9745 88.6727 26.6495C88.8498 26.3566 89.0557 26.0821 89.2873 25.8301C89.3611 25.8792 88.5416 27.0757 87.5419 29.1817C86.9505 30.4074 86.444 31.6724 86.0259 32.9675C85.5244 34.5547 85.1383 36.176 84.8704 37.8187C84.6225 39.468 84.4965 41.1333 84.4935 42.801C84.5003 44.1716 84.5961 45.5402 84.7803 46.8983C85.0753 49.16 85.485 50.5449 85.4031 50.5695Z" fill="#3D2E27"/>
<path d="M301.482 86.5586C301.634 86.863 301.746 87.1851 301.818 87.5174C301.94 87.8967 302.041 88.2824 302.121 88.6728C302.22 89.1317 302.359 89.6479 302.433 90.2298C302.661 91.5843 302.789 92.9537 302.818 94.327C302.881 97.711 302.354 101.08 301.261 104.283C300.812 105.588 300.264 106.856 299.622 108.078C299.368 108.61 299.089 109.061 298.852 109.471C298.66 109.82 298.446 110.156 298.213 110.479C298.042 110.774 297.838 111.048 297.606 111.298C297.532 111.257 298.352 110.052 299.352 107.955C299.933 106.725 300.439 105.46 300.868 104.169C301.37 102.579 301.756 100.955 302.023 99.3093C302.271 97.6628 302.397 96.0003 302.4 94.3352C302.388 92.9649 302.293 91.5966 302.113 90.238C301.818 88.0008 301.408 86.6078 301.482 86.5586Z" fill="#3D2E27"/>
<path d="M306.819 88.002C306.968 88.3072 307.081 88.629 307.155 88.9607C307.277 89.34 307.378 89.7258 307.458 90.1162C307.556 90.5751 307.687 91.0913 307.769 91.6731C307.997 93.0277 308.126 94.3971 308.154 95.7704C308.171 97.4567 308.056 99.1417 307.81 100.81C307.538 102.479 307.133 104.123 306.597 105.727C306.146 107.033 305.599 108.304 304.958 109.529C304.704 110.054 304.426 110.504 304.188 110.914C303.992 111.275 303.776 111.626 303.541 111.963C303.37 112.258 303.167 112.533 302.934 112.782C302.861 112.741 303.68 111.537 304.68 109.439C305.264 108.21 305.77 106.946 306.196 105.653C306.698 104.063 307.084 102.439 307.351 100.794C307.599 99.1472 307.725 97.4846 307.728 95.8196C307.717 94.4492 307.621 93.0808 307.441 91.7223C307.146 89.4114 306.737 88.0183 306.819 88.002Z" fill="#3D2E27"/>
<path d="M128.613 152.289C133.802 145.358 136.204 136.733 135.346 128.118C134.487 119.502 130.43 111.521 123.975 105.751C117.521 99.9799 109.137 96.8383 100.48 96.946C91.8224 97.0538 83.5197 100.403 77.2107 106.332C70.9016 112.262 67.0445 120.341 66.4006 128.975C65.7567 137.61 68.3728 146.172 73.7326 152.971C79.0924 159.771 86.8064 164.315 95.3522 165.705C103.898 167.096 112.655 165.233 119.894 160.483L131.792 165.752L128.613 152.289Z" fill="#FAFAFA"/>
<path d="M90.416 129.598C90.5172 128.293 91.0179 127.052 91.85 126.042C92.6234 125.019 93.6983 124.265 94.923 123.886C95.9701 123.584 97.0881 123.638 98.1012 124.04C99.1143 124.442 99.9651 125.169 100.52 126.107C100.992 125.168 101.75 124.402 102.686 123.922C103.621 123.442 104.685 123.272 105.723 123.436C106.973 123.677 108.118 124.298 109.001 125.214C109.942 126.124 110.585 127.299 110.845 128.582C111.143 130.226 110.902 131.922 110.157 133.417C109.284 134.941 108.059 136.233 106.584 137.186C104.199 138.825 101.061 140.874 101.061 140.874C101.061 140.874 98.1845 138.981 95.6277 137.637C94.0489 136.866 92.6777 135.728 91.6288 134.318C90.7292 132.915 90.3041 131.261 90.416 129.598Z" fill="#E12428"/>
<path d="M100.874 97.0745C100.672 97.0565 100.469 97.0565 100.267 97.0745L98.5053 97.1318C98.112 97.1318 97.6859 97.1318 97.2024 97.1892L95.6454 97.4022L93.8263 97.6645L91.794 98.1725C88.302 99.0523 84.9794 100.503 81.9605 102.466C77.4826 105.314 73.7158 109.149 70.9489 113.677C68.182 118.205 66.4882 123.307 65.9975 128.591C65.8618 130.177 65.829 131.77 65.8991 133.36C65.9565 134.179 65.8992 134.999 66.0548 135.818C66.2105 136.638 66.3007 137.457 66.4318 138.277C67.0413 141.652 68.1459 144.918 69.7096 147.971C71.3829 151.167 73.5141 154.102 76.0358 156.682C78.72 159.324 81.7965 161.535 85.1564 163.237C88.6322 165.023 92.3973 166.177 96.2764 166.646C97.258 166.801 98.2493 166.886 99.2429 166.9C100.241 166.977 101.242 166.996 102.242 166.958C104.262 166.874 106.272 166.619 108.249 166.196C112.516 165.272 116.572 163.554 120.205 161.131L119.844 161.172L132.021 166.089L132.742 166.384L132.537 165.63L128.997 152.568L128.94 152.888C132.242 148.509 134.465 143.413 135.43 138.015C135.899 135.503 136.059 132.944 135.905 130.394C135.881 129.16 135.763 127.93 135.553 126.714C135.463 126.116 135.365 125.526 135.274 124.936C135.184 124.346 134.988 123.781 134.848 123.207C132.815 115.205 128.002 108.188 121.27 103.409C118.782 101.622 116.061 100.186 113.182 99.1395L111.363 98.4921L109.634 98.0496L108.052 97.6563C107.544 97.5579 107.052 97.5088 106.593 97.435C105.676 97.3203 104.864 97.1646 104.135 97.1236L102.34 97.0663H101.251C101.128 97.0482 101.004 97.0482 100.882 97.0663C101.003 97.0933 101.126 97.1098 101.251 97.1154L102.34 97.1974L104.11 97.3203C104.815 97.3777 105.618 97.5498 106.528 97.6891C113.134 98.8294 119.267 101.863 124.183 106.422C129.098 110.981 132.584 116.869 134.217 123.371C134.348 123.936 134.52 124.494 134.627 125.067C134.734 125.641 134.799 126.231 134.889 126.813C135.087 128.002 135.194 129.204 135.209 130.41C135.349 132.912 135.184 135.421 134.717 137.883C133.753 143.168 131.557 148.151 128.309 152.429L128.202 152.576L128.252 152.757C129.399 156.96 130.579 161.312 131.8 165.778L132.316 165.319L120.147 160.402L119.959 160.328L119.778 160.435C116.222 162.785 112.26 164.453 108.093 165.352C106.162 165.766 104.199 166.016 102.226 166.097C101.247 166.132 100.268 166.112 99.292 166.04C98.3233 166.024 97.3569 165.942 96.3993 165.794C92.6071 165.338 88.9255 164.215 85.5251 162.475C82.2245 160.824 79.1979 158.673 76.5521 156.1C74.0799 153.576 71.9851 150.708 70.3324 147.586C68.7826 144.602 67.6783 141.408 67.0546 138.105C66.9317 137.285 66.8087 136.466 66.6858 135.704C66.5629 134.942 66.5793 134.065 66.5219 133.311C66.2253 127.305 67.513 121.326 70.2557 115.974C72.9985 110.622 77.1 106.086 82.149 102.819C85.1208 100.85 88.3918 99.3748 91.835 98.4511L93.8426 97.9185L95.6454 97.6235L97.186 97.3695C97.6613 97.3121 98.0956 97.3039 98.4808 97.2711L100.243 97.14C100.454 97.1316 100.665 97.1097 100.874 97.0745Z" fill="#3D2E27"/>
</svg>
